<svg width="110" height="79" viewBox="0 0 110 79" fill="none" xmlns="http://www.w3.org/2000/svg">
<g clip-path="url(#clip0_53_923)">
<path d="M74.188 76H94.436" stroke="#A78B78" stroke-width="5" stroke-linecap="round" stroke-linejoin="round"/>
<path d="M104.564 16.936C101.768 16.936 99.5 19.204 99.5 22V29.876C99.5 32.668 97.228 34.94 94.436 34.94V14.124C94.436 8.532 89.904 4 84.312 4C78.72 4 74.188 8.532 74.188 14.124V45.06C71.396 45.06 69.124 42.788 69.124 39.996V32.12C69.124 29.324 66.856 27.056 64.06 27.056C61.264 27.056 59 29.328 59 32.124V40C59 48.376 65.812 55.188 74.188 55.188V76H94.436V45.064C102.812 45.064 109.624 38.252 109.624 29.876V22C109.624 19.204 107.356 16.936 104.56 16.936H104.564Z" fill="#00D890"/>
<path d="M74.188 50.1241C68.596 50.1241 64.064 45.5921 64.064 40.0001V32.1241V27.0601C66.86 27.0601 69.128 29.3281 69.128 32.1241V40.0001C69.128 42.7921 71.4 45.0641 74.192 45.0641C76.988 45.0641 79.256 47.3321 79.256 50.1281H74.192L74.188 50.1241Z" fill="#00A26C"/>
<path d="M104.564 16.936V29.872C104.564 35.464 100.032 39.996 94.4399 39.996V14.124C94.4399 8.532 89.9079 4 84.3159 4V76H94.4399V45.064C102.816 45.064 109.628 38.252 109.628 29.876V22C109.628 19.204 107.36 16.936 104.564 16.936Z" fill="#00A26C"/>
<path d="M15.9771 76H37.4597" stroke="#A78B78" stroke-width="5" stroke-linecap="round" stroke-linejoin="round"/>
<path d="M5.34533 13.6547C8.29667 13.6547 10.6907 16.0487 10.6907 19V27.3136C10.6907 30.2607 13.0889 32.6589 16.036 32.6589V10.6864C16.0318 4.78378 20.8156 0 26.7182 0C32.6209 0 37.4047 4.78378 37.4047 10.6864V43.3411C40.3518 43.3411 42.75 40.9429 42.75 37.9958V29.6822C42.75 26.7309 45.144 24.3369 48.0953 24.3369C51.0467 24.3369 53.4407 26.7309 53.4407 29.6822V37.9958C53.4407 46.8371 46.2502 54.0276 37.4089 54.0276V75.9958H16.0318V43.3411C7.19044 43.3453 0 36.1507 0 27.3136V19C0 16.0487 2.394 13.6547 5.34533 13.6547Z" fill="#00A26C"/>
<path d="M5.34533 13.6547V19V27.3136C5.34533 33.2162 10.1291 38 16.0318 38V10.6864C16.0318 4.78378 20.8156 0 26.7182 0V76H16.0318V43.3453C7.19044 43.3453 0 36.1507 0 27.3136V19C0 16.0487 2.394 13.6547 5.34533 13.6547Z" fill="#00D890"/>
<path d="M37.4046 48.6866C43.3073 48.6866 48.0911 43.9029 48.0911 38.0002V29.6866V24.3413C45.1397 24.3413 42.7457 26.7353 42.7457 29.6866V38.0002C42.7457 40.9473 40.3475 43.3455 37.4004 43.3455V48.6909L37.4046 48.6866Z" fill="#00D890"/>
<path d="M16.0317 38.0001C10.129 38.0001 5.34521 33.2163 5.34521 27.3137V19.0001V13.6548C8.29655 13.6548 10.6905 16.0488 10.6905 19.0001V27.3137C10.6905 30.2608 13.0888 32.659 16.0359 32.659C18.9872 32.659 21.3812 35.053 21.3812 38.0043H16.0359L16.0317 38.0001Z" fill="#00A26C"/>
</g>
<defs>
<clipPath id="clip0_53_923">
<rect width="110" height="79" fill="white"/>
</clipPath>
</defs>
</svg>
