<svg width="75" height="78" viewBox="0 0 75 78" fill="none" xmlns="http://www.w3.org/2000/svg">
<g clip-path="url(#clip0_48_385)">
<path d="M62.6724 34.568H60.3719C58.7623 34.568 57.3392 33.5754 56.7518 32.1273L56.5463 32.0431L48.9833 39.2316C48.6883 39.5122 48.3757 39.7676 48.0455 39.9978C46.6173 40.998 44.6484 40.6746 43.5959 39.2857L29.5702 20.7746C24.6593 14.293 16.9892 10.4849 8.84756 10.4849H6.58369C6.58369 10.4849 6.58117 10.4849 6.57991 10.4849H2.60176C2.60176 10.4849 2.59924 10.4849 2.59798 10.4849H2.21605C2.1089 10.4849 2.01563 10.5188 1.94126 10.5729C0.823189 10.8648 -0.00244141 11.8775 -0.00244141 13.0853C-0.00244141 14.5207 1.16353 15.6844 2.60176 15.6844H9.39084C15.619 16.1537 21.4551 19.3001 25.2455 24.3022L37.2202 40.1727C37.6236 40.7073 37.2417 41.4735 36.5698 41.4735H8.51479H1.95386C0.87487 41.4735 7.96022e-05 42.3466 7.96022e-05 43.4235C7.96022e-05 44.5004 0.87487 45.3735 1.95386 45.3735H5.54126L14.2211 51.9154L7.27193 58.8512C6.67193 59.45 7.27697 60.4527 8.08873 60.2011L23.6522 55.3789C24.0429 55.2581 24.4488 55.1965 24.8585 55.1965H35.6938C39.9871 55.1965 44.1064 53.5031 47.1543 50.485L63.0656 34.7315L62.6724 34.5693V34.568Z" fill="#FF984E"/>
<path d="M56.5414 31.4316L55.9401 28.4223L50.999 26.4496C50.2036 26.1326 49.5784 25.4897 49.2822 24.6883L48.8876 23.6202L59.4469 25.3677L56.1469 20.777C51.2359 14.2955 43.5658 10.4873 35.4242 10.4873H28.7939C28.6603 10.4873 28.5481 10.5389 28.4662 10.6194C27.4275 10.9616 26.6763 11.9353 26.6763 13.0877C26.6763 14.5232 27.8422 15.6869 29.2805 15.6869H32.5111L35.68 19.1214C36.7439 20.275 37.3351 21.7847 37.3351 23.3523V31.024L43.5973 39.2894C44.6498 40.6783 46.6187 41.0004 48.0469 40.0015C48.3758 39.7713 48.6897 39.5159 48.9834 39.2353L56.5464 32.0468L56.6422 31.8253C56.6032 31.697 56.5679 31.5674 56.5401 31.4341L56.5414 31.4316Z" fill="#FF6C4E"/>
<path d="M56.3824 31.463L55.7988 28.5392L55.3186 28.348L48.9845 34.3691C48.6896 34.6497 48.377 34.905 48.0467 35.1353C46.6186 36.1354 44.6497 35.8121 43.5971 34.4232L37.335 26.1577V31.0214L43.5971 39.2869C44.6497 40.6758 46.6186 40.9978 48.0467 39.9989C48.3757 39.7687 48.6896 39.5133 48.9845 39.2328L56.5476 32.0442C56.4795 31.8567 56.4228 31.6643 56.3824 31.4642V31.463Z" fill="#FF5D4E"/>
<path d="M14.4679 51.8975L11.0948 49.355L3.90614 56.5297C3.31245 57.1223 3.89732 58.1149 4.70404 57.8847L9.96917 56.3863L14.4666 51.8975H14.4679Z" fill="#FF6C4E"/>
<path d="M8.38237 38.0036L3.78027 41.6344H36.5723C36.9441 41.6344 37.2794 41.428 37.4458 41.0947C37.6122 40.7625 37.5756 40.3713 37.3525 40.0744L25.3778 24.2039C21.5584 19.1641 15.7374 15.9988 9.4059 15.522H5.78826L9.1059 19.1175C10.1698 20.2712 10.7597 21.7808 10.7597 23.3484V33.1022C10.7597 35.0132 9.88363 36.8185 8.38237 38.0023V38.0036Z" fill="#FED2A4"/>
<path d="M8.38237 38.0036L3.78027 41.6344H36.5723C36.9441 41.6344 37.2794 41.428 37.4458 41.0947C37.6122 40.7625 37.5756 40.3713 37.3525 40.0744L25.3778 24.2039C21.5584 19.1641 15.7374 15.9988 9.4059 15.522H5.78826L9.1059 19.1175C10.1698 20.2712 10.7597 21.7808 10.7597 23.3484V33.1022C10.7597 35.0132 9.88363 36.8185 8.38237 38.0023V38.0036Z" fill="#FFD6B8"/>
<path d="M37.3524 40.0744L25.3776 24.2039C21.5583 19.1641 15.7372 15.9988 9.40573 15.522H5.78809L8.74523 18.7275C13.6599 19.9214 18.0553 22.7697 21.1423 26.8433L32.3028 41.6344H36.5734C36.9452 41.6344 37.2805 41.428 37.4469 41.0947C37.6133 40.7625 37.578 40.3713 37.3536 40.0744H37.3524Z" fill="#FFC195"/>
<path d="M31.9085 32.8594L10.5064 34.8622C10.2266 35.8146 9.71985 36.6902 9.02783 37.4148L33.5837 35.0786L31.9098 32.8606L31.9085 32.8594Z" fill="#FF984E"/>
<path d="M27.4738 26.9828L10.6348 22.1128C10.7167 22.5166 10.7596 22.9305 10.7596 23.3482V24.5773L29.1049 29.9115C29.2159 29.9442 29.3268 29.9593 29.4364 29.9593C29.5247 29.9593 29.6117 29.9455 29.6961 29.9266L27.4738 26.9828Z" fill="#FF984E"/>
<path d="M58.5857 34.3149L45.5294 47.2416C42.4815 50.2597 38.3621 51.953 34.0689 51.953H23.2336C22.8252 51.953 22.418 52.0147 22.0273 52.1354L10.3852 55.7423L7.2718 58.8497C6.6718 59.4486 7.27684 60.4512 8.0886 60.1996L23.652 55.3775C24.0428 55.2567 24.4487 55.195 24.8584 55.195H35.6936C39.9869 55.195 44.1063 53.5017 47.1542 50.4836L63.0668 34.7301H60.3731C59.7365 34.7301 59.1289 34.5804 58.5869 34.3149H58.5857Z" fill="#FF6C4E"/>
<path d="M72.9668 29.6552C72.9252 29.6389 72.8836 29.6238 72.8408 29.6087L55.5239 23.9021L51.1639 22.4314C50.0307 22.049 48.8017 22.6554 48.4185 23.7864C48.0353 24.9174 48.6429 26.144 49.776 26.5264L55.8013 28.5595L56.3811 31.4618C56.7605 33.3615 58.4307 34.729 60.3706 34.729H72.4878C73.9046 34.729 75.0529 33.5829 75.0529 32.1689C75.0529 30.9183 74.1529 29.8779 72.9643 29.654L72.9668 29.6552Z" fill="#FFC195"/>
<path d="M74.869 33.1237C74.9875 32.8293 75.0543 32.5073 75.0543 32.1701C75.0543 30.8793 74.0964 29.8138 72.851 29.6376L72.8409 29.6087L51.1653 22.4314V22.4365L51.1489 22.4314C50.0157 22.049 48.7867 22.6554 48.4035 23.7864C48.3543 23.9298 48.3228 24.0757 48.3052 24.2204L51.28 25.2004L69.6695 31.3763L74.869 33.1225V33.1237Z" fill="#FF984E"/>
<path d="M60.9645 29.1013C60.8863 29.2951 60.8435 29.5064 60.8448 29.7278L60.8498 30.3946C60.8561 31.2967 61.5948 32.0226 62.4985 32.0163C63.1805 32.0112 63.7616 31.5898 64.0036 30.996C64.0817 30.8035 64.1246 30.5921 64.1233 30.3707L64.1183 29.7039C64.112 28.8019 63.3733 28.076 62.4695 28.0836C61.7876 28.0886 61.2065 28.51 60.9645 29.1038V29.1013Z" fill="white"/>
<path d="M62.4893 30.483C62.4916 30.7838 62.7377 31.0259 63.0392 31.0236C63.3406 31.0214 63.5831 30.7756 63.5809 30.4748L63.5743 29.5967C63.572 29.2959 63.3258 29.0538 63.0244 29.0561C62.723 29.0583 62.4804 29.304 62.4827 29.6049L62.4893 30.483Z" fill="black"/>
</g>
<defs>
<clipPath id="clip0_48_385">
<rect width="75" height="78" fill="white"/>
</clipPath>
</defs>
</svg>
