<svg width="75" height="78" viewBox="0 0 75 78" fill="none" xmlns="http://www.w3.org/2000/svg">
<g clip-path="url(#clip0_48_338)">
<path d="M56.7897 31.4321L56.1964 28.4228L51.3211 26.4501C50.5364 26.1331 49.9195 25.4902 49.6272 24.6888L49.2379 23.6207L59.6564 25.3682L56.4004 20.7775C51.555 14.296 43.9871 10.4878 35.954 10.4878H29.4122C29.2803 10.4878 29.1696 10.5394 29.0888 10.6199C28.064 10.9621 27.3228 11.9358 27.3228 13.0882C27.3228 14.5237 28.4732 15.6874 29.8922 15.6874H33.0798L36.2065 19.1219C37.2562 20.2755 37.8395 21.7852 37.8395 23.3528V31.0244L44.0181 39.2899C45.0566 40.6788 46.9993 41.0009 48.4084 40.002C48.733 39.7718 49.0427 39.5164 49.3325 39.2358L56.7947 32.0472L56.8892 31.8258C56.8506 31.6975 56.8158 31.5679 56.7884 31.4346L56.7897 31.4321Z" fill="#FF6C4E"/>
<path d="M56.6334 31.4635L56.0575 28.5397L55.5837 28.3485L49.3341 34.3696C49.0431 34.6501 48.7346 34.9055 48.4088 35.1358C46.9997 36.1359 45.057 35.8126 44.0185 34.4237L37.8398 26.1582V31.0219L44.0185 39.2874C45.057 40.6763 46.9997 40.9983 48.4088 39.9994C48.7334 39.7692 49.0431 39.5138 49.3341 39.2333L56.7963 32.0447C56.7291 31.8572 56.6732 31.6648 56.6334 31.4647V31.4635Z" fill="#FF5D4E"/>
<path d="M25.5208 26.2689L24.0694 6.47576C23.756 4.14456 25.2907 1.97063 27.5704 1.51143L28.4696 1.33027C29.3252 1.15792 30.1647 1.68882 30.3874 2.54179L34.2789 26.2676H25.5208V26.2689Z" fill="#008C46"/>
<path d="M24.8926 17.7125L25.706 17.6496C26.257 17.6068 26.6686 17.1212 26.6263 16.5639C26.5841 16.0065 26.104 15.5901 25.553 15.6329L24.7446 15.6958L24.8926 17.7125Z" fill="#00763B"/>
<path d="M25.1153 20.7423L25.9287 20.6794C26.4796 20.6366 26.8913 20.151 26.849 19.5937C26.8067 19.0363 26.3266 18.6199 25.7757 18.6627L24.9673 18.7256L25.1153 20.7423Z" fill="#00763B"/>
<path d="M24.4502 11.6715L25.2636 11.6086C25.8146 11.5658 26.2262 11.0802 26.184 10.5229C26.1417 9.96553 25.6616 9.54911 25.1106 9.59189L24.3022 9.65479L24.4502 11.6715Z" fill="#00763B"/>
<path d="M24.67 14.6832L25.4834 14.6203C26.0343 14.5775 26.446 14.0919 26.4037 13.5346C26.3614 12.9773 25.8813 12.5608 25.3304 12.6036L24.522 12.6665L24.67 14.6832Z" fill="#00763B"/>
<path d="M25.3379 23.773L26.1513 23.7101C26.7023 23.6674 27.1139 23.1817 27.0717 22.6244C27.0294 22.0671 26.5493 21.6507 25.9983 21.6935L25.1899 21.7564L25.3379 23.773Z" fill="#00763B"/>
<path d="M25.5233 26.2687L25.4126 24.7666L26.221 24.7037C26.772 24.6609 27.252 25.0773 27.2943 25.6347C27.3117 25.8674 27.2508 26.0876 27.1326 26.2687H25.5233Z" fill="#00763B"/>
<path d="M29.2694 4.54186C29.1574 4.82996 29.0977 5.14447 29.104 5.47409L29.1214 6.46544C29.145 7.80528 30.237 8.87338 31.5615 8.84947C32.5614 8.83186 33.4071 8.1978 33.7529 7.31212C33.8648 7.02402 33.9245 6.70951 33.9183 6.38115L33.9009 5.3898C33.8773 4.04996 32.7853 2.98186 31.4608 3.00576C30.4608 3.02338 29.6151 3.65744 29.2694 4.54312V4.54186Z" fill="white"/>
<path d="M31.5202 6.58173C31.5279 7.02842 31.8921 7.38422 32.3337 7.37642C32.7753 7.36863 33.1271 7.00019 33.1193 6.55349L33.0968 5.24908C33.0891 4.80238 32.7249 4.44659 32.2833 4.45438C31.8417 4.46218 31.49 4.83062 31.4977 5.27731L31.5202 6.58173Z" fill="black"/>
<path d="M36.9954 4.00348C36.0813 4.01983 35.3537 4.78096 35.3699 5.70564C35.3711 5.80754 35.3823 5.90693 35.4022 6.0038L35.6211 8.0557C35.702 8.81054 36.3387 9.37793 37.0887 9.36535C37.8374 9.35151 38.4518 8.76399 38.5077 8.0079L38.657 5.94593C38.6719 5.84906 38.6806 5.74841 38.6781 5.64651C38.662 4.72183 37.9083 3.98587 36.9954 4.00222V4.00348Z" fill="#00BF5F"/>
<path d="M46.5904 17.3719C46.5991 17.0938 46.2285 16.9957 46.1016 17.2435L45.4897 18.4387L46.5519 18.7167L46.5917 17.3706L46.5904 17.3719Z" fill="#FCF7F1"/>
<path d="M44.7745 16.8947L44.1626 18.0899L45.2247 18.3679L45.2645 17.0218C45.2732 16.7437 44.9026 16.6456 44.7757 16.8934L44.7745 16.8947Z" fill="#FCF7F1"/>
<path d="M43.4474 16.5475L42.8354 17.7427L43.8976 18.0207L43.9374 16.6746C43.9461 16.3966 43.5755 16.2984 43.4486 16.5463L43.4474 16.5475Z" fill="#FCF7F1"/>
<path d="M42.1207 16.1994L41.5088 17.3946L42.5709 17.6726L42.6107 16.3265C42.6194 16.0484 42.2488 15.9503 42.1219 16.1981L42.1207 16.1994Z" fill="#FCF7F1"/>
<path d="M40.7935 15.8508L40.1816 17.0459L41.2438 17.324L41.2836 15.9778C41.2923 15.6998 40.9216 15.6017 40.7948 15.8495L40.7935 15.8508Z" fill="#FCF7F1"/>
<path d="M39.4664 15.5036L38.8545 16.6988L39.9166 16.9768L39.9564 15.6307C39.9651 15.3526 39.5945 15.2545 39.4676 15.5023L39.4664 15.5036Z" fill="#FCF7F1"/>
<path d="M38.1392 15.155L37.5273 16.3501L38.5895 16.6282L38.6293 15.282C38.638 15.004 38.2673 14.9059 38.1405 15.1537L38.1392 15.155Z" fill="#FCF7F1"/>
<path d="M36.8136 14.8068L36.2017 16.002L37.2638 16.28L37.3036 14.9339C37.3123 14.6558 36.9417 14.5577 36.8148 14.8056L36.8136 14.8068Z" fill="#FCF7F1"/>
<path d="M46.9048 19.556C46.6188 20.6719 45.492 21.3424 44.3888 21.0531L30.8648 17.5053C30.8648 17.5053 30.8549 17.5028 30.8499 17.5015C30.151 17.3229 29.5204 16.8713 29.1249 16.1932L25.9945 10.8086C25.211 9.46125 25.6562 7.72764 26.9882 6.93506L35.4056 15.5528C35.5959 15.7478 35.8347 15.8862 36.0958 15.9554L46.7332 18.7458C46.9297 18.7973 47.0491 19.0012 46.9968 19.1999L46.9048 19.5572V19.556Z" fill="#00BF5F"/>
<path d="M46.1577 13.5181L46.3642 15.453C46.399 15.7851 46.8554 15.8405 46.9661 15.5247L47.6104 13.6892L46.1577 13.5193V13.5181Z" fill="#FCF7F1"/>
<path d="M34.2231 14.0279C34.2579 14.36 34.7143 14.4154 34.825 14.0996L35.4692 12.2641L34.0166 12.0942L34.2231 14.0291V14.0279Z" fill="#FCF7F1"/>
<path d="M35.9579 14.2315C35.9927 14.5636 36.4492 14.619 36.5599 14.3032L37.2041 12.4677L35.7515 12.2979L35.9579 14.2328V14.2315Z" fill="#FCF7F1"/>
<path d="M37.6918 14.4356C37.7266 14.7677 38.1831 14.8231 38.2938 14.5073L38.938 12.6718L37.4854 12.502L37.6918 14.4369V14.4356Z" fill="#FCF7F1"/>
<path d="M39.4252 14.6382C39.46 14.9704 39.9165 15.0257 40.0272 14.7099L40.6714 12.8744L39.2188 12.7046L39.4252 14.6395V14.6382Z" fill="#FCF7F1"/>
<path d="M41.1606 14.8418C41.1954 15.174 41.6518 15.2293 41.7625 14.9136L42.4067 13.078L40.9541 12.9082L41.1606 14.8431V14.8418Z" fill="#FCF7F1"/>
<path d="M42.894 15.0455C42.9288 15.3776 43.3852 15.4329 43.4959 15.1172L44.1401 13.2817L42.6875 13.1118L42.894 15.0467V15.0455Z" fill="#FCF7F1"/>
<path d="M44.6288 15.2481C44.6636 15.5802 45.1201 15.6356 45.2308 15.3198L45.875 13.4843L44.4224 13.3145L44.6288 15.2494V15.2481Z" fill="#FCF7F1"/>
<path d="M42.3981 5.83032C41.1991 5.61142 40.0512 6.41658 39.8348 7.6281C39.6184 8.84087 40.4144 10.0008 41.612 10.221C41.7439 10.2449 41.8757 10.2562 42.005 10.2562L44.7151 10.5003C45.7113 10.5896 46.6117 9.89639 46.7895 8.9C46.9674 7.90613 46.3667 6.93993 45.4041 6.67071L42.7774 5.93726C42.6555 5.89197 42.5286 5.85548 42.3968 5.83032H42.3981Z" fill="#00BF5F"/>
<path d="M33.4197 0.272137L45.6403 3.30156C48.8602 4.10043 50.9098 7.29465 50.3203 10.5933L50.0878 11.8941C49.8664 13.1321 48.7309 13.9813 47.4971 13.8328L31.3415 11.9017C31.1015 11.8878 30.8614 11.8589 30.6189 11.8149C27.4201 11.2299 25.2959 8.13127 25.8742 4.89678C26.4538 1.65978 29.5158 -0.488992 32.7145 0.0960078C32.9571 0.14004 33.1921 0.199169 33.421 0.270879L33.4197 0.272137ZM29.1203 6.46433C29.1439 7.80417 30.2359 8.87227 31.5604 8.84836C32.5603 8.83075 33.406 8.19669 33.7518 7.31101C33.8637 7.02291 33.9234 6.70839 33.9172 6.38004L33.8998 5.38869C33.8762 4.04885 32.7842 2.98075 31.4597 3.00465C30.4597 3.02227 29.614 3.65633 29.2683 4.54201C29.1563 4.8301 29.0966 5.14462 29.1028 5.47423L29.1203 6.46559V6.46433ZM35.4022 6.00262L35.6211 8.05452C35.7019 8.80936 36.3387 9.37675 37.0886 9.36417C37.8373 9.35033 38.4517 8.76281 38.5077 8.00672L38.6569 5.94475C38.6719 5.84788 38.6806 5.74723 38.6781 5.64533C38.6619 4.72065 37.9082 3.98469 36.9954 4.00104C36.0812 4.01739 35.3537 4.77852 35.3698 5.7032C35.3711 5.8051 35.3823 5.90449 35.4022 6.00136V6.00262ZM41.612 10.2209C41.7438 10.2448 41.8756 10.2561 42.005 10.2561L44.715 10.5002C45.7112 10.5895 46.6116 9.89633 46.7895 8.89994C46.9673 7.90607 46.3666 6.93988 45.404 6.67065L42.7773 5.9372C42.6554 5.89191 42.5286 5.85543 42.3967 5.83027C41.1978 5.61136 40.0499 6.41652 39.8335 7.62804C39.6171 8.84081 40.413 10.0007 41.6107 10.2209H41.612Z" fill="#00D86C"/>
<path d="M29.0142 1.75682C28.9234 1.73291 28.8401 1.67379 28.7891 1.58572C28.6858 1.40833 28.743 1.17937 28.9197 1.07369C30.0141 0.418237 31.3076 0.184237 32.5612 0.413205C32.7701 0.450947 32.9803 0.503785 33.1855 0.567947L45.6412 3.65524C45.6412 3.65524 45.6449 3.65524 45.6461 3.65524C45.8414 3.70682 45.9608 3.90685 45.9123 4.10562C45.8638 4.30566 45.6636 4.42895 45.4658 4.37988L33.0002 1.29008C32.9928 1.28882 32.9853 1.2863 32.9778 1.28379C32.7975 1.22717 32.6122 1.18062 32.4306 1.14791C31.3523 0.950398 30.2392 1.15169 29.2965 1.7153C29.2082 1.76814 29.1075 1.77946 29.0154 1.75556L29.0142 1.75682Z" fill="#00EC76"/>
<path d="M49.2467 9.39823L49.1684 8.74277L49.09 8.08732C49.0515 7.76148 48.758 7.52874 48.4358 7.56774C48.1137 7.608 47.8836 7.90365 47.9222 8.22949L48.0005 8.88494L48.0789 9.54039C48.1174 9.86623 48.411 10.099 48.7331 10.06C49.0552 10.0197 49.2853 9.72406 49.2467 9.39823Z" fill="#00763B"/>
<path d="M15.278 51.898L11.9498 49.3555L4.85701 56.5302C4.27123 57.1228 4.84831 58.1154 5.64427 57.8851L10.8392 56.3868L15.2767 51.898H15.278Z" fill="#FF6C4E"/>
<path d="M9.27316 38.0041L4.73242 41.6349H37.0872C37.4541 41.6349 37.7849 41.4285 37.9491 41.0951C38.1133 40.763 38.0772 40.3718 37.8571 40.0749L26.0419 24.2044C22.2735 19.1646 16.5301 15.9993 10.283 15.5225H6.71363L9.98704 19.118C11.0367 20.2717 11.6188 21.7813 11.6188 23.3489V33.1027C11.6188 35.0137 10.7544 36.819 9.27316 38.0028V38.0041Z" fill="#FED2A4"/>
<path d="M25.5632 21.2612L34.1447 26.0419C34.1447 26.0419 36.8674 29.6274 38.1111 31.829C39.3548 34.0306 41.296 38.8112 38.0002 43.4661C34.7044 48.1209 16.9817 41.5161 14.743 40.5096C12.5044 39.5032 10.0792 36.7354 8.83548 34.5338C7.59178 32.3322 6.72119 28.9983 6.72119 28.9983L11.2607 33.0241C11.2607 33.0241 14.3077 34.408 16.6086 33.5274C18.9094 32.6467 25.5632 21.2612 25.5632 21.2612Z" fill="#008C46"/>
<path d="M9.27316 38.0041L4.73242 41.6349H37.0872C37.4541 41.6349 37.7849 41.4285 37.9491 41.0951C38.1133 40.763 38.0772 40.3718 37.8571 40.0749L26.0419 24.2044C22.2735 19.1646 16.5301 15.9993 10.283 15.5225H6.71363L9.98704 19.118C11.0367 20.2717 11.6188 21.7813 11.6188 23.3489V33.1027C11.6188 35.0137 10.7544 36.819 9.27316 38.0028V38.0041Z" fill="#FFD6B8"/>
<path d="M37.8573 40.0749L26.0422 24.2044C22.2738 19.1646 16.5304 15.9993 10.2833 15.5225H6.71387L9.63158 18.728C14.4808 19.9219 18.8175 22.7702 21.8633 26.8438L32.875 41.6349H37.0887C37.4556 41.6349 37.7864 41.4285 37.9506 41.0951C38.1147 40.763 38.0799 40.3718 37.8585 40.0749H37.8573Z" fill="#FFC195"/>
<path d="M32.4858 32.8599L11.369 34.8627C11.0929 35.8151 10.5929 36.6907 9.91016 37.4153L34.1386 35.0791L32.487 32.8611L32.4858 32.8599Z" fill="#FF984E"/>
<path d="M28.1102 26.9832L11.4956 22.1133C11.5764 22.5171 11.6187 22.931 11.6187 23.3487V24.5778L29.7195 29.912C29.8289 29.9447 29.9384 29.9598 30.0466 29.9598C30.1337 29.9598 30.2195 29.946 30.3028 29.9271L28.1102 26.9832Z" fill="#FF984E"/>
<path d="M62.8391 34.568H60.5694C58.9812 34.568 57.577 33.5754 56.9975 32.1273L56.7948 32.0431L49.3326 39.2316C49.0415 39.5122 48.7331 39.7676 48.4073 39.9978C46.9982 40.998 45.0555 40.6746 44.017 39.2857L30.1784 20.7746C25.3329 14.293 17.765 10.4849 9.732 10.4849H7.49832C7.49832 10.4849 7.49583 10.4849 7.49459 10.4849H3.56948C3.56948 10.4849 3.56699 10.4849 3.56575 10.4849H3.18891C3.08319 10.4849 2.99116 10.5188 2.91778 10.5729C1.81462 10.8648 1 11.8775 1 13.0853C1 14.5207 2.15042 15.6844 3.56948 15.6844H10.268C16.4131 16.1537 22.1715 19.3001 25.9113 24.3022L37.7264 40.1727C38.1244 40.7073 37.7475 41.4735 37.0846 41.4735H9.40366H2.93022C1.86561 41.4735 1.00249 42.3466 1.00249 43.4235C1.00249 44.5004 1.86561 45.3735 2.93022 45.3735H6.46978L15.0339 51.9154L8.17738 58.8512C7.58538 59.45 8.18235 60.4527 8.98329 60.2011L24.3392 55.3789C24.7248 55.2581 25.1252 55.1965 25.5294 55.1965H36.2203C40.4563 55.1965 44.5207 53.5031 47.528 50.485L63.2272 34.7315L62.8391 34.5693V34.568Z" fill="#FF984E"/>
<path d="M58.8069 34.3154L45.9247 47.242C42.9175 50.2601 38.8531 51.9535 34.617 51.9535H23.9262C23.5232 51.9535 23.1215 52.0151 22.736 52.1359L11.2492 55.7428L8.17725 58.8502C7.58525 59.449 8.18223 60.4517 8.98317 60.2001L24.3391 55.3779C24.7246 55.2572 25.1251 55.1955 25.5293 55.1955H36.2201C40.4562 55.1955 44.5206 53.5022 47.5278 50.4841L63.2283 34.7306H60.5705C59.9424 34.7306 59.343 34.5809 58.8082 34.3154H58.8069Z" fill="#FF6C4E"/>
<path d="M72.9964 29.6552C72.9553 29.6389 72.9143 29.6238 72.872 29.6087L55.7861 23.9021L51.4841 22.4314C50.366 22.049 49.1534 22.6554 48.7754 23.7864C48.3973 24.9174 48.9967 26.144 50.1148 26.5264L56.0597 28.5595L56.6318 31.4618C57.0061 33.3615 58.654 34.729 60.5681 34.729H72.5238C73.9217 34.729 75.0547 33.5829 75.0547 32.1689C75.0547 30.9183 74.1667 29.8779 72.9939 29.654L72.9964 29.6552Z" fill="#FFC195"/>
<path d="M74.8733 33.1237C74.9902 32.8293 75.0561 32.5073 75.0561 32.1701C75.0561 30.8793 74.1109 29.8138 72.8821 29.6376L72.8721 29.6087L51.4855 22.4314V22.4365L51.4694 22.4314C50.3513 22.049 49.1387 22.6554 48.7606 23.7864C48.7121 23.9298 48.681 24.0757 48.6636 24.2204L51.5987 25.2004L69.743 31.3763L74.8733 33.1225V33.1237Z" fill="#FF984E"/>
<path d="M61.1538 29.1018C61.0767 29.2956 61.0344 29.5069 61.0357 29.7283L61.0406 30.3951C61.0469 31.2971 61.7757 32.023 62.6674 32.0168C63.3402 32.0117 63.9136 31.5903 64.1524 30.9965C64.2295 30.804 64.2718 30.5926 64.2705 30.3712L64.2656 29.7044C64.2593 28.8024 63.5305 28.0765 62.6388 28.084C61.966 28.0891 61.3926 28.5105 61.1538 29.1043V29.1018Z" fill="white"/>
<path d="M62.6587 30.4835C62.6609 30.7843 62.9038 31.0264 63.2012 31.0241C63.4986 31.0218 63.7379 30.7761 63.7357 30.4753L63.7292 29.5972C63.727 29.2963 63.484 29.0543 63.1866 29.0566C62.8892 29.0588 62.6499 29.3045 62.6522 29.6054L62.6587 30.4835Z" fill="black"/>
</g>
<defs>
<clipPath id="clip0_48_338">
<rect width="75" height="78" fill="white"/>
</clipPath>
</defs>
</svg>
