<svg width="75" height="78" viewBox="0 0 75 78" fill="none" xmlns="http://www.w3.org/2000/svg">
<g clip-path="url(#clip0_48_439)">
<path d="M56.5518 44.3668C56.5518 44.3668 56.5569 45.6678 56.3653 46.8C56.1737 47.9323 53.2518 52.012 53.2518 52.012C48.3409 58.4936 40.6707 62.3018 32.5291 62.3018H25.8989C25.7653 62.3018 25.6531 62.2502 25.5712 62.1697C24.5325 61.8275 23.7812 60.8537 23.7812 59.7013C23.7812 58.2659 24.9472 57.1022 26.3855 57.1022H29.6161L32.785 53.6677C33.8489 52.514 34.4401 51.0043 34.4401 49.4368V41.7651L41.4258 36.1694C42.9932 34.101 46.1648 33.8115 48.1065 35.6662C50.136 37.5952 56.5518 41.2522 56.5518 44.3668Z" fill="#FF5D4E"/>
<path d="M63.6723 34.5679H61.3718C59.7622 34.5679 58.3391 33.5753 57.7517 32.1273L57.5462 32.043L49.9832 39.2315C49.6882 39.5121 49.3756 39.7675 49.0454 39.9977C47.6172 40.9979 44.5416 40.8243 44.5416 40.8243C44.5416 40.8243 38.2416 41.4734 37.5697 41.4734H9.51471H2.95378C1.87479 41.4734 1 42.3465 1 43.4234C1 44.5003 1.87479 45.3734 2.95378 45.3734H6.54118L15.221 51.9154L8.27185 58.8511C7.67185 59.4499 8.27689 60.4526 9.08865 60.201L24.6521 55.3788C25.0429 55.258 25.4487 55.1964 25.8584 55.1964H36.6937C40.987 55.1964 45.1063 53.503 48.1542 50.4849L64.0655 34.7315L63.6723 34.5692V34.5679Z" fill="#FF984E"/>
<path d="M57.3825 31.4631L56.7989 28.5394L56.3186 28.3481L49.9846 34.3692C49.6896 34.6498 49.377 34.9052 49.0468 35.1354C47.6186 36.1356 45.6497 35.8122 44.5972 34.4233V39.287C45.6497 40.6759 47.6186 40.998 49.0468 39.9991C49.3757 39.7689 49.6896 39.5135 49.9846 39.2329L57.5476 32.0443C57.4795 31.8569 57.4228 31.6644 57.3825 31.4644V31.4631Z" fill="#FF5D4E"/>
<path d="M15.4679 51.8975L12.0948 49.355L4.90614 56.5297C4.31245 57.1223 4.89732 58.1149 5.70404 57.8847L10.9692 56.3863L15.4666 51.8975H15.4679Z" fill="#FF6C4E"/>
<path d="M59.5857 34.3149L46.5294 47.2416C43.4815 50.2597 39.3621 51.953 35.0689 51.953H24.2336C23.8252 51.953 23.418 52.0147 23.0273 52.1354L11.3852 55.7423L8.2718 58.8497C7.6718 59.4486 8.27684 60.4512 9.0886 60.1996L24.652 55.3775C25.0428 55.2567 25.4487 55.195 25.8584 55.195H36.6936C40.9869 55.195 45.1063 53.5017 48.1542 50.4836L64.0668 34.7301H61.3731C60.7365 34.7301 60.1289 34.5804 59.5869 34.3149H59.5857Z" fill="#FF6C4E"/>
<path d="M72.9668 29.6552C72.9252 29.6389 72.8836 29.6238 72.8407 29.6087L55.5239 23.9021L51.1639 22.4314C50.0307 22.049 48.8017 22.6554 48.4185 23.7864C48.0353 24.9174 48.6429 26.144 49.776 26.5264L55.8013 28.5595L56.3811 31.4618C56.7605 33.3615 58.4307 34.729 60.3706 34.729H72.4878C73.9046 34.729 75.0529 33.5829 75.0529 32.1689C75.0529 30.9183 74.1529 29.8779 72.9643 29.654L72.9668 29.6552Z" fill="#FFC195"/>
<path d="M74.869 33.1237C74.9875 32.8293 75.0543 32.5073 75.0543 32.1701C75.0543 30.8793 74.0964 29.8138 72.851 29.6376L72.8409 29.6087L51.1653 22.4314V22.4365L51.1489 22.4314C50.0157 22.049 48.7867 22.6554 48.4035 23.7864C48.3543 23.9298 48.3228 24.0757 48.3052 24.2204L51.28 25.2004L69.6695 31.3763L74.869 33.1225V33.1237Z" fill="#FF984E"/>
<path d="M46.8122 47.5863L32.7866 66.0975C27.8756 72.579 20.2055 76.3872 12.0639 76.3872H9.8C9.8 76.3872 9.79748 76.3872 9.79622 76.3872H5.81807C5.81807 76.3872 5.81555 76.3872 5.81429 76.3872H5.43235C5.32521 76.3872 5.23193 76.3532 5.15756 76.2991C4.0395 76.0073 3.21387 74.9945 3.21387 73.7868C3.21387 72.3513 4.37983 71.1876 5.81807 71.1876H10.6256C10.6256 71.1876 14.9108 66.6561 16.2343 63.8883C16.2343 59.6109 15.6677 58.4371 15.6677 52.5871C14.9744 48.8758 8.75756 45.3986 8.75756 45.3986H5.17017C4.09118 45.3986 3.21639 44.5255 3.21639 43.4486C3.21639 42.3717 4.09118 41.4986 5.17017 41.4986H8.75756L20.0158 39.1045C20.0158 39.1045 40.2469 34.3454 41.3184 34.198C42.3898 34.0506 47.3227 33.3689 50.3706 36.387C50.3706 36.387 51.6344 41.223 46.8122 47.5863Z" fill="#FF984E"/>
<path d="M11.7735 49.0882L7.17139 45.4574H39.9634C40.3353 45.4574 40.6706 45.6638 40.8369 45.9971C41.0033 46.3293 40.9668 46.7205 40.7437 47.0174L28.7689 62.8879C24.9496 67.9277 19.1285 71.093 12.797 71.5698H9.17938L12.497 67.9743C13.5609 66.8206 14.1508 65.311 14.1508 63.7434V53.9896C14.1508 52.0786 13.2747 50.2733 11.7735 49.0895V49.0882Z" fill="#FFC195"/>
<path d="M60.9572 29.0725C60.879 29.2663 60.8362 29.4776 60.8374 29.699L60.8425 30.3658C60.8488 31.2678 61.5874 31.9937 62.4912 31.9875C63.1731 31.9824 63.7542 31.561 63.9963 30.9672C64.0744 30.7747 64.1173 30.5633 64.116 30.3419L64.111 29.6751C64.1047 28.7731 63.366 28.0472 62.4622 28.0547C61.7803 28.0598 61.1992 28.4812 60.9572 29.075V29.0725Z" fill="white"/>
<path d="M62.4825 30.4542C62.4847 30.755 62.7309 30.9971 63.0323 30.9948C63.3338 30.9926 63.5763 30.7468 63.574 30.446L63.5674 29.5679C63.5652 29.267 63.319 29.025 63.0175 29.0273C62.7161 29.0295 62.4736 29.2752 62.4759 29.5761L62.4825 30.4542Z" fill="black"/>
<path d="M26.1025 21.5127L34.8 26.2933C34.8 26.2933 37.5595 29.8788 38.82 32.0804C40.0805 34.2821 42.0479 39.0627 38.7075 43.7175C35.3672 48.3724 17.405 41.7675 15.1361 40.7611C12.8672 39.7546 10.4092 36.9869 9.14872 34.7853C7.88821 32.5837 7.00586 29.2498 7.00586 29.2498L11.6067 33.2756C11.6067 33.2756 14.6949 34.6595 17.0269 33.7788C19.3588 32.8982 26.1025 21.5127 26.1025 21.5127Z" fill="#008C46"/>
<path d="M28.9753 39.2515L38.5184 43.5289C38.5184 43.5289 35.9343 48.8757 34.6476 50.4482C33.4763 51.3289 23.5184 55.6692 22.8618 55.5434C22.2053 55.4176 21.8167 55.2289 21.8797 53.8765C21.9427 52.524 26.4175 51.3918 28.0929 48.8757C28.9753 47.5505 28.9753 39.2515 28.9753 39.2515Z" fill="#008C46"/>
<path d="M23.7705 53.7192C23.7705 53.7192 25.4722 55.9838 25.3462 56.8015C25.2201 57.6192 23.7705 57.745 23.4554 57.4934C23.1403 57.2418 22.0688 55.0402 22.0688 55.0402L23.7705 53.7192Z" fill="#008C46"/>
<path d="M25.8075 26.2689L24.3365 6.47576C24.0189 4.14456 25.5743 1.97063 27.8848 1.51143L28.7962 1.33027C29.6634 1.15792 30.5143 1.68882 30.7399 2.54179L34.684 26.2676H25.8075V26.2689Z" fill="#008C46"/>
<path d="M25.171 17.7125L25.9954 17.6496C26.5538 17.6068 26.971 17.1212 26.9281 16.5639C26.8853 16.0065 26.3987 15.5901 25.8403 15.6329L25.021 15.6958L25.171 17.7125Z" fill="#00763B"/>
<path d="M25.3966 20.7423L26.221 20.6794C26.7794 20.6366 27.1966 20.151 27.1537 19.5937C27.1109 19.0363 26.6243 18.6199 26.0659 18.6627L25.2466 18.7256L25.3966 20.7423Z" fill="#00763B"/>
<path d="M24.7223 11.6715L25.5466 11.6086C26.105 11.5658 26.5223 11.0802 26.4794 10.5229C26.4366 9.96553 25.95 9.54911 25.3916 9.59189L24.5723 9.65479L24.7223 11.6715Z" fill="#00763B"/>
<path d="M24.9454 14.6832L25.7698 14.6203C26.3282 14.5775 26.7454 14.0919 26.7026 13.5346C26.6597 12.9773 26.1731 12.5608 25.6147 12.6036L24.7954 12.6665L24.9454 14.6832Z" fill="#00763B"/>
<path d="M29.6066 4.54186C29.4931 4.82996 29.4326 5.14447 29.4389 5.47409L29.4566 6.46544C29.4805 7.80528 30.5872 8.87338 31.9297 8.84947C32.9431 8.83186 33.8003 8.1978 34.1507 7.31212C34.2641 7.02402 34.3246 6.70951 34.3183 6.38115L34.3007 5.3898C34.2767 4.04996 33.17 2.98186 31.8276 3.00576C30.8141 3.02338 29.957 3.65744 29.6066 4.54312V4.54186Z" fill="white"/>
<path d="M31.888 6.58173C31.8959 7.02842 32.265 7.38422 32.7126 7.37642C33.1601 7.36863 33.5166 7.00019 33.5088 6.55349L33.486 5.24908C33.4782 4.80238 33.109 4.44659 32.6615 4.45438C32.2139 4.46218 31.8574 4.83062 31.8652 5.27731L31.888 6.58173Z" fill="black"/>
<path d="M37.4368 4.00348C36.5103 4.01983 35.7729 4.78096 35.7893 5.70564C35.7906 5.80754 35.8019 5.90693 35.8221 6.0038L36.044 8.0557C36.1259 8.81054 36.7713 9.37793 37.5313 9.36535C38.2902 9.35151 38.9129 8.76399 38.9696 8.0079L39.1208 5.94593C39.136 5.84906 39.1448 5.74841 39.1423 5.64651C39.1259 4.72183 38.362 3.98587 37.4368 4.00222V4.00348Z" fill="#00BF5F"/>
<path d="M47.1619 17.3719C47.1708 17.0938 46.7951 16.9957 46.6666 17.2435L46.0464 18.4387L47.1229 18.7167L47.1632 17.3706L47.1619 17.3719Z" fill="#FCF7F1"/>
<path d="M45.3213 16.8947L44.7012 18.0899L45.7776 18.3679L45.818 17.0218C45.8268 16.7437 45.4512 16.6456 45.3226 16.8934L45.3213 16.8947Z" fill="#FCF7F1"/>
<path d="M43.9766 16.5475L43.3564 17.7427L44.4329 18.0207L44.4733 16.6746C44.4821 16.3966 44.1064 16.2984 43.9779 16.5463L43.9766 16.5475Z" fill="#FCF7F1"/>
<path d="M42.6314 16.1994L42.0112 17.3946L43.0877 17.6726L43.128 16.3265C43.1369 16.0484 42.7612 15.9503 42.6327 16.1981L42.6314 16.1994Z" fill="#FCF7F1"/>
<path d="M41.2867 15.8508L40.6665 17.0459L41.743 17.324L41.7833 15.9778C41.7921 15.6998 41.4165 15.6017 41.2879 15.8495L41.2867 15.8508Z" fill="#FCF7F1"/>
<path d="M39.9415 15.5036L39.3213 16.6988L40.3978 16.9768L40.4381 15.6307C40.4469 15.3526 40.0713 15.2545 39.9427 15.5023L39.9415 15.5036Z" fill="#FCF7F1"/>
<path d="M38.5967 15.155L37.9766 16.3501L39.053 16.6282L39.0934 15.282C39.1022 15.004 38.7266 14.9059 38.598 15.1537L38.5967 15.155Z" fill="#FCF7F1"/>
<path d="M37.253 14.8068L36.6328 16.002L37.7093 16.28L37.7496 14.9339C37.7584 14.6558 37.3828 14.5577 37.2542 14.8056L37.253 14.8068Z" fill="#FCF7F1"/>
<path d="M47.4807 19.556C47.1908 20.6719 46.0488 21.3424 44.9307 21.0531L31.224 17.5053C31.224 17.5053 31.2139 17.5028 31.2088 17.5015C30.5004 17.3229 29.8614 16.8713 29.4605 16.1932L26.2878 10.8086C25.4937 9.46125 25.945 7.72764 27.295 6.93506L35.8261 15.5528C36.0189 15.7478 36.2609 15.8862 36.5256 15.9554L47.3067 18.7458C47.5059 18.7973 47.6269 19.0012 47.574 19.1999L47.4807 19.5572V19.556Z" fill="#00BF5F"/>
<path d="M46.7231 13.5181L46.9324 15.453C46.9677 15.7851 47.4303 15.8405 47.5425 15.5247L48.1954 13.6892L46.7231 13.5193V13.5181Z" fill="#FCF7F1"/>
<path d="M34.6272 14.0279C34.6625 14.36 35.1251 14.4154 35.2373 14.0996L35.8902 12.2641L34.418 12.0942L34.6272 14.0291V14.0279Z" fill="#FCF7F1"/>
<path d="M36.3855 14.2315C36.4208 14.5636 36.8834 14.619 36.9956 14.3032L37.6485 12.4677L36.1763 12.2979L36.3855 14.2328V14.2315Z" fill="#FCF7F1"/>
<path d="M38.1428 14.4356C38.1781 14.7677 38.6407 14.8231 38.7529 14.5073L39.4059 12.6718L37.9336 12.502L38.1428 14.4369V14.4356Z" fill="#FCF7F1"/>
<path d="M39.9002 14.6382C39.9355 14.9704 40.3981 15.0257 40.5102 14.7099L41.1632 12.8744L39.6909 12.7046L39.9002 14.6395V14.6382Z" fill="#FCF7F1"/>
<path d="M41.6585 14.8418C41.6938 15.174 42.1564 15.2293 42.2685 14.9136L42.9215 13.078L41.4492 12.9082L41.6585 14.8431V14.8418Z" fill="#FCF7F1"/>
<path d="M43.4153 15.0455C43.4506 15.3776 43.9132 15.4329 44.0254 15.1172L44.6783 13.2817L43.2061 13.1118L43.4153 15.0467V15.0455Z" fill="#FCF7F1"/>
<path d="M45.1741 15.2481C45.2094 15.5802 45.672 15.6356 45.7842 15.3198L46.4371 13.4843L44.9648 13.3145L45.1741 15.2494V15.2481Z" fill="#FCF7F1"/>
<path d="M42.9127 5.83032C41.6975 5.61142 40.5341 6.41658 40.3148 7.6281C40.0954 8.84087 40.9022 10.0008 42.116 10.221C42.2496 10.2449 42.3833 10.2562 42.5143 10.2562L45.261 10.5003C46.2706 10.5896 47.1833 9.89639 47.3635 8.9C47.5438 7.90613 46.9349 6.93993 45.9593 6.67071L43.2971 5.93726C43.1736 5.89197 43.045 5.85548 42.9114 5.83032H42.9127Z" fill="#00BF5F"/>
<path d="M33.813 0.272137L46.1987 3.30156C49.4622 4.10043 51.5395 7.29465 50.942 10.5933L50.7063 11.8941C50.4819 13.1321 49.3311 13.9813 48.0807 13.8328L31.7067 11.9017C31.4634 11.8878 31.2202 11.8589 30.9744 11.8149C27.7323 11.2299 25.5794 8.13127 26.1655 4.89678C26.7529 1.65978 29.8563 -0.488992 33.0983 0.0960078C33.3441 0.14004 33.5823 0.199169 33.8143 0.270879L33.813 0.272137ZM29.4554 6.46433C29.4794 7.80417 30.5861 8.87227 31.9286 8.84836C32.942 8.83075 33.7991 8.19668 34.1496 7.31101C34.263 7.02291 34.3235 6.7084 34.3172 6.38004L34.2996 5.38869C34.2756 4.04885 33.1689 2.98075 31.8265 3.00465C30.813 3.02227 29.9559 3.65633 29.6054 4.54201C29.492 4.8301 29.4315 5.14462 29.4378 5.47423L29.4554 6.46559V6.46433ZM35.8223 6.00262L36.0441 8.05452C36.126 8.80936 36.7714 9.37675 37.5315 9.36417C38.2903 9.35033 38.913 8.76281 38.9697 8.00672L39.121 5.94475C39.1361 5.84788 39.1449 5.74723 39.1424 5.64533C39.126 4.72065 38.3622 3.98469 37.437 4.00104C36.5105 4.0174 35.7731 4.77852 35.7895 5.7032C35.7907 5.8051 35.8021 5.90449 35.8223 6.00136V6.00262ZM42.1159 10.2209C42.2496 10.2448 42.3832 10.2561 42.5143 10.2561L45.2609 10.5002C46.2706 10.5895 47.1832 9.89633 47.3634 8.89994C47.5437 7.90607 46.9349 6.93988 45.9592 6.67065L43.297 5.9372C43.1735 5.89191 43.0449 5.85543 42.9113 5.83027C41.6962 5.61136 40.5328 6.41652 40.3134 7.62804C40.0941 8.84081 40.9008 10.0007 42.1147 10.2209H42.1159Z" fill="#00D86C"/>
<path d="M29.3485 1.75682C29.2565 1.73291 29.172 1.67379 29.1203 1.58572C29.0157 1.40833 29.0737 1.17937 29.2527 1.07369C30.3619 0.418237 31.6728 0.184237 32.9434 0.413205C33.1552 0.450947 33.3682 0.503785 33.5762 0.567947L46.2002 3.65524C46.2002 3.65524 46.2039 3.65524 46.2052 3.65524C46.4031 3.70682 46.5241 3.90685 46.4749 4.10562C46.4258 4.30566 46.2228 4.42895 46.0224 4.37988L33.3884 1.29008C33.3808 1.28882 33.3733 1.2863 33.3657 1.28379C33.1829 1.22717 32.9951 1.18062 32.8111 1.14791C31.7182 0.950398 30.5901 1.15169 29.6346 1.7153C29.5451 1.76814 29.443 1.77946 29.3497 1.75556L29.3485 1.75682Z" fill="#00EC76"/>
<path d="M49.854 9.39823L49.7746 8.74277L49.6952 8.08732C49.6561 7.76148 49.3587 7.52874 49.0322 7.56774C48.7057 7.608 48.4725 7.90365 48.5116 8.22949L48.591 8.88494L48.6704 9.54039C48.7095 9.86623 49.007 10.099 49.3334 10.06C49.6599 10.0197 49.8931 9.72407 49.854 9.39823Z" fill="#00763B"/>
<mask id="mask0_48_439" style="mask-type:alpha" maskUnits="userSpaceOnUse" x="7" y="21" width="34" height="25">
<path d="M26.1025 21.5127L34.8 26.2933C34.8 26.2933 37.5595 29.8788 38.82 32.0804C40.0805 34.2821 42.0479 39.0627 38.7075 43.7175C35.3672 48.3724 17.405 41.7675 15.1361 40.7611C12.8672 39.7546 10.4092 36.9869 9.14872 34.7853C7.88821 32.5837 7.00586 29.2498 7.00586 29.2498L11.6067 33.2756C11.6067 33.2756 14.6949 34.6595 17.0269 33.7788C19.3588 32.8982 26.1025 21.5127 26.1025 21.5127Z" fill="#008C46"/>
</mask>
<g mask="url(#mask0_48_439)">
</g>
<mask id="mask1_48_439" style="mask-type:alpha" maskUnits="userSpaceOnUse" x="7" y="21" width="34" height="25">
<path d="M26.1025 21.5127L34.8 26.2933C34.8 26.2933 37.5595 29.8788 38.82 32.0804C40.0805 34.2821 42.0479 39.0627 38.7075 43.7175C35.3672 48.3724 17.405 41.7675 15.1361 40.7611C12.8672 39.7546 10.4092 36.9869 9.14872 34.7853C7.88821 32.5837 7.00586 29.2498 7.00586 29.2498L11.6067 33.2756C11.6067 33.2756 14.6949 34.6595 17.0269 33.7788C19.3588 32.8982 26.1025 21.5127 26.1025 21.5127Z" fill="#008C46"/>
</mask>
<g mask="url(#mask1_48_439)">
<path d="M23.4119 24.2335L24.1916 24.508C24.7198 24.6937 25.2979 24.4175 25.484 23.8903C25.6701 23.3631 25.3933 22.7861 24.8651 22.6003L24.09 22.3279L23.4119 24.2335Z" fill="#00763B"/>
<path d="M21.6472 26.7496L22.4269 27.0241C22.9551 27.2098 23.5332 26.9336 23.7194 26.4064C23.9055 25.8792 23.6287 25.3022 23.1005 25.1165L22.3254 24.844L21.6472 26.7496Z" fill="#00763B"/>
<path d="M19.7561 29.5177L20.5358 29.7921C21.064 29.9779 21.6421 29.7016 21.8282 29.1745C22.0144 28.6473 21.7376 28.0703 21.2094 27.8845L20.4343 27.6121L19.7561 29.5177Z" fill="#00763B"/>
<path d="M18.7395 32.4112L19.5192 32.6857C20.0474 32.8715 20.6255 32.5952 20.8116 32.068C20.9978 31.5408 20.721 30.9638 20.1928 30.7781L19.4177 30.5056L18.7395 32.4112Z" fill="#00763B"/>
<path d="M33.9654 28.4304C34.4176 26.741 35.791 25.155 36.9817 24.0264C37.5865 23.4531 38.1638 22.9793 38.5899 22.6493C38.8031 22.4841 38.9792 22.3545 39.1026 22.2655C39.1644 22.221 39.213 22.1864 39.2467 22.1629C39.2633 22.1513 39.2762 22.1423 39.2853 22.1361C39.2898 22.1329 39.294 22.1301 39.2965 22.1284C39.2975 22.1277 39.2983 22.127 39.2989 22.1265L39.3003 22.1263L39.3009 22.1254L39.7278 21.8355L40.0048 22.2703L46.6128 32.6709L46.6529 32.735L46.6727 32.8078L50.5226 46.9974L50.5616 47.1389L50.516 47.2793L50.5157 47.2815C50.5154 47.2825 50.5148 47.2837 50.5143 47.2853C50.513 47.2892 50.5116 47.2956 50.5092 47.3031C50.5043 47.3182 50.4965 47.3409 50.4871 47.3696C50.4683 47.427 50.4408 47.5108 50.4051 47.6165C50.3336 47.8283 50.2292 48.1296 50.0986 48.4896C49.8377 49.2093 49.4687 50.1684 49.0401 51.1167C48.6142 52.0589 48.1176 53.0171 47.5961 53.7201C47.3364 54.0701 47.0516 54.3839 46.7441 54.5972C46.4741 54.7845 46.1453 54.9216 45.7866 54.8883L45.6308 54.8633C45.2963 54.7861 44.9652 54.5871 44.657 54.349C44.3416 54.1053 44.0118 53.7896 43.6778 53.4309C43.0091 52.7129 42.2887 51.7856 41.5905 50.8234C40.8908 49.8592 40.2042 48.8473 39.6035 47.958C38.9988 47.0627 38.4882 46.3025 38.1295 45.8204L37.8379 45.4171C37.1368 44.4226 36.3055 43.0657 35.5754 41.596C34.744 39.9222 34.0248 38.0645 33.798 36.4109C33.3647 33.2513 33.1095 31.6275 33.9654 28.4304Z" fill="#00BF5F" stroke="#00763B"/>
<path d="M29.7621 28.5145C30.5674 28.9072 30.9009 29.8779 30.5069 30.6826L28.6687 34.4376C28.2747 35.2423 27.3025 35.5763 26.4972 35.1836C25.6919 34.7909 25.3584 33.8202 25.7524 33.0155L27.5906 29.2605C27.9846 28.4558 28.9567 28.1218 29.7621 28.5145Z" fill="#00BF5F"/>
<path d="M25.2862 36.0371C25.2862 35.9202 25.1992 35.7515 25.0799 35.7362C24.1411 35.615 23.3118 34.8222 23.4288 33.8852C23.4321 33.8596 23.4502 33.7449 23.3736 33.7122C23.3172 33.6881 23.2467 33.6958 23.2297 33.8252C23.0749 35.0199 23.8216 36.1851 25.0186 36.3396C25.1483 36.3565 25.2665 36.1976 25.2834 36.0682C25.2845 36.0578 25.2856 36.048 25.2856 36.0376L25.2862 36.0371Z" fill="black"/>
<path d="M25.3359 36.7051C24.9997 36.7051 24.7271 36.4332 24.7271 36.0977C24.7271 35.7622 24.9997 35.4902 25.3359 35.4902L27.7704 35.4902C28.1067 35.4902 28.3793 35.7622 28.3793 36.0977C28.3793 36.4332 28.1067 36.7051 27.7704 36.7051L25.3359 36.7051Z" fill="#00763B"/>
<path d="M27.5668 37.5203C27.3327 37.5203 26.994 37.6939 26.9634 37.932C26.721 39.8054 25.1323 41.462 23.2542 41.2278C23.2033 41.2212 22.9725 41.1852 22.9068 41.3375C22.8587 41.45 22.874 41.5909 23.1328 41.6242C25.5268 41.9332 27.8617 40.4426 28.1708 38.0532C28.2041 37.795 27.8863 37.558 27.6275 37.5247C27.6067 37.522 27.5865 37.5209 27.5663 37.5209L27.5668 37.5203Z" fill="black"/>
<path d="M24.3927 36.5608C24.3479 36.4527 24.2029 36.3298 24.0869 36.3615C23.1733 36.6083 22.1027 36.1928 21.8521 35.282C21.8456 35.2575 21.8177 35.1439 21.735 35.1428C21.6738 35.1423 21.6114 35.1761 21.6453 35.3017C21.9604 36.4647 23.0973 37.2559 24.262 36.9414C24.3878 36.9075 24.4365 36.7153 24.4026 36.5897C24.3998 36.5799 24.3966 36.5701 24.3927 36.5608Z" fill="black"/>
<path d="M28.3785 37.5149C28.3785 37.9624 28.0152 38.3252 27.567 38.3252C27.1187 38.3252 26.7554 37.9624 26.7554 37.5149L26.7554 35.8949C26.7554 35.4474 27.1187 35.0846 27.567 35.0846C28.0152 35.0846 28.3785 35.4474 28.3785 35.8949L28.3785 37.5149Z" fill="#00BF5F"/>
<path d="M27.5039 36.7051L26.0076 36.7051C25.5242 36.7051 25.1323 36.3139 25.1323 35.8315L25.1323 34.3381C25.1323 33.8556 25.5242 33.4645 26.0076 33.4645L27.5039 33.4645C27.9873 33.4645 28.3792 33.8556 28.3792 34.3381L28.3792 35.8315C28.3792 36.3139 27.9873 36.7051 27.5039 36.7051Z" fill="#00BF5F"/>
<path d="M24.5239 37.3121C24.1876 37.3121 23.915 37.0401 23.915 36.7046C23.915 36.3691 24.1876 36.0972 24.5239 36.0972L26.9584 36.0972C27.2947 36.0972 27.5673 36.3691 27.5673 36.7046C27.5673 37.0401 27.2947 37.3121 26.9584 37.3121L24.5239 37.3121Z" fill="#00BF5F"/>
<rect width="0.836816" height="6.46924" rx="0.418408" transform="matrix(0.894039 0.447989 -0.449378 0.893342 30.293 29.0327)" fill="#00EC76"/>
</g>
</g>
<defs>
<clipPath id="clip0_48_439">
<rect width="75" height="78" fill="white"/>
</clipPath>
</defs>
</svg>
