<svg width="75" height="78" viewBox="0 0 75 78" fill="none" xmlns="http://www.w3.org/2000/svg">
<g clip-path="url(#clip0_48_400)">
<path d="M12.3818 34.5121H14.6823C16.2919 34.5121 17.715 33.5211 18.3024 32.0754L18.5079 31.9913L26.0709 39.1683C26.3659 39.4484 26.6785 39.7033 27.0087 39.9332C28.4369 40.9317 30.4058 40.6089 31.4583 39.2223L45.4839 20.7409C50.3949 14.2698 58.065 10.4678 66.2066 10.4678H68.4705C68.4705 10.4678 68.473 10.4678 68.4743 10.4678H72.4524C72.4524 10.4678 72.455 10.4678 72.4562 10.4678H72.8382C72.9453 10.4678 73.0386 10.5017 73.1129 10.5557C74.231 10.8471 75.0566 11.8582 75.0566 13.064C75.0566 14.4971 73.8907 15.659 72.4524 15.659H65.6634C59.4352 16.1275 53.5991 19.2688 49.8087 24.2628L37.834 40.1078C37.4306 40.6416 37.8125 41.4065 38.4844 41.4065H66.5394H73.1003C74.1793 41.4065 75.0541 42.2782 75.0541 43.3534C75.0541 44.4285 74.1793 45.3002 73.1003 45.3002H69.5129L60.8331 51.8316L67.7823 58.7562C68.3823 59.3541 67.7772 60.3551 66.9655 60.1039L51.402 55.2895C51.0113 55.1689 50.6054 55.1074 50.1957 55.1074H39.3604C35.0671 55.1074 30.9478 53.4168 27.8999 50.4035L11.9886 34.6754L12.3818 34.5134V34.5121Z" fill="#993C3A"/>
<path d="M18.5128 31.3807L19.1141 28.3763L24.0552 26.4068C24.8506 26.0903 25.4758 25.4485 25.772 24.6484L26.1666 23.582L15.6073 25.3266L18.9073 20.7434C23.8183 14.2722 31.4884 10.4702 39.63 10.4702H46.2603C46.3939 10.4702 46.5061 10.5217 46.588 10.6021C47.6267 10.9437 48.3779 11.9159 48.3779 13.0664C48.3779 14.4996 47.212 15.6614 45.7737 15.6614H42.5431L39.3741 19.0904C38.3103 20.2422 37.7191 21.7494 37.7191 23.3145V30.9738L31.4569 39.226C30.4044 40.6126 28.4355 40.9342 27.0073 39.9369C26.6784 39.707 26.3645 39.4521 26.0708 39.172L18.5078 31.9949L18.412 31.7739C18.451 31.6458 18.4863 31.5164 18.5141 31.3833L18.5128 31.3807Z" fill="#C25F4B"/>
<path d="M18.6718 31.4124L19.2554 28.4934L19.7356 28.3025L26.0697 34.3139C26.3646 34.594 26.6772 34.849 27.0075 35.0788C28.4356 36.0774 30.4045 35.7546 31.4571 34.3679L37.7192 26.1157V30.9716L31.4571 39.2237C30.4045 40.6104 28.4356 40.932 27.0075 39.9347C26.6785 39.7048 26.3646 39.4498 26.0697 39.1697L18.5066 31.9927C18.5747 31.8056 18.6314 31.6134 18.6718 31.4137V31.4124Z" fill="#A52E23"/>
<path d="M60.5863 51.8143L63.9594 49.2759L71.1481 56.4391C71.7418 57.0307 71.1569 58.0217 70.3502 57.7918L65.085 56.2959L60.5875 51.8143H60.5863Z" fill="#C25F4B"/>
<path d="M66.6718 37.9425L71.2739 41.5674H38.4819C38.1101 41.5674 37.7748 41.3614 37.6084 41.0286C37.442 40.697 37.4786 40.3063 37.7017 40.0099L49.6764 24.165C53.4958 19.1333 59.3168 15.9731 65.6483 15.4971H69.2659L65.9483 19.0868C64.8844 20.2386 64.2945 21.7459 64.2945 23.3109V33.049C64.2945 34.9569 65.1706 36.7593 66.6718 37.9412V37.9425Z" fill="#FED2A4"/>
<path d="M66.6718 37.9425L71.2739 41.5674H38.4819C38.1101 41.5674 37.7748 41.3614 37.6084 41.0286C37.442 40.697 37.4786 40.3063 37.7017 40.0099L49.6764 24.165C53.4958 19.1333 59.3168 15.9731 65.6483 15.4971H69.2659L65.9483 19.0868C64.8844 20.2386 64.2945 21.7459 64.2945 23.3109V33.049C64.2945 34.9569 65.1706 36.7593 66.6718 37.9412V37.9425Z" fill="#FAAA6F"/>
<path d="M37.7018 40.0099L49.6766 24.165C53.4959 19.1333 59.317 15.9731 65.6485 15.4971H69.2661L66.309 18.6975C61.3943 19.8894 56.9989 22.7331 53.9119 26.8002L42.7514 41.5674H38.4808C38.109 41.5674 37.7737 41.3614 37.6073 41.0286C37.4409 40.697 37.4762 40.3063 37.7006 40.0099H37.7018Z" fill="#E68744"/>
<path d="M43.1457 32.8066L64.5478 34.8063C64.8276 35.7571 65.3344 36.6313 66.0264 37.3548L41.4705 35.0223L43.1444 32.8079L43.1457 32.8066Z" fill="#993C3A"/>
<path d="M47.5804 26.9393L64.4194 22.0771C64.3375 22.4803 64.2946 22.8936 64.2946 23.3106V24.5377L45.9493 29.8633C45.8383 29.896 45.7274 29.9111 45.6178 29.9111C45.5295 29.9111 45.4425 29.8972 45.3581 29.8784L47.5804 26.9393Z" fill="#993C3A"/>
<path d="M16.4685 34.2598L29.5248 47.1656C32.5727 50.1788 36.6921 51.8694 40.9853 51.8694H51.8206C52.229 51.8694 52.6362 51.931 53.0269 52.0516L64.669 55.6526L67.7824 58.755C68.3824 59.3529 67.7774 60.354 66.9656 60.1028L51.4022 55.2884C51.0114 55.1678 50.6055 55.1062 50.1958 55.1062H39.3606C35.0673 55.1062 30.9479 53.4156 27.9 50.4024L11.9874 34.6743H14.6811C15.3177 34.6743 15.9253 34.5248 16.4673 34.2598H16.4685Z" fill="#C25F4B"/>
<path d="M2.0874 29.6073C2.129 29.591 2.17059 29.5759 2.21345 29.5608L19.5303 23.8634L23.8903 22.3951C25.0235 22.0133 26.2525 22.6187 26.6357 23.7479C27.0189 24.8771 26.4113 26.1017 25.2782 26.4835L19.2529 28.5133L18.6731 31.411C18.2937 33.3076 16.6235 34.6729 14.6836 34.6729H2.56639C1.14958 34.6729 0.00126589 33.5287 0.00126589 32.1169C0.00126589 30.8684 0.901267 29.8296 2.08992 29.606L2.0874 29.6073Z" fill="#E68744"/>
<path d="M0.185154 33.0702C0.0666663 32.7763 -0.000136717 32.4547 -0.000136717 32.1181C-0.000136717 30.8294 0.957844 29.7656 2.20322 29.5897L2.21331 29.5608L23.8889 22.3951V22.4001L23.9053 22.3951C25.0385 22.0133 26.2675 22.6187 26.6507 23.7479C26.6999 23.8911 26.7314 24.0368 26.749 24.1812L23.7742 25.1597L5.38473 31.3256L0.185154 33.0689V33.0702Z" fill="#993C3A"/>
<path d="M14.1805 29.0145C14.2095 29.1825 14.2095 29.6803 14.2095 29.6803L14.2044 30.346C14.1981 31.2465 13.4595 31.9713 12.5557 31.965C11.8738 31.96 11.2927 31.5392 11.0506 30.9463C10.9725 30.7542 10.9296 30.5432 10.9309 30.3221L10.9359 29.6564C10.9422 28.7558 11.6595 28.5749 12.5557 28.3238C13.1091 28.1686 13.8729 27.8841 14.0897 28.4493C14.1656 28.6471 14.1805 29.0145 14.1805 29.0145Z" fill="white"/>
<path d="M12.5649 30.434C12.5626 30.7344 12.3165 30.9761 12.015 30.9738C11.7136 30.9716 11.4711 30.7262 11.4733 30.4259L11.4799 29.5492C11.4822 29.2488 11.7284 29.0072 12.0298 29.0094C12.3312 29.0117 12.5738 29.257 12.5715 29.5574L12.5649 30.434Z" fill="black"/>
</g>
<defs>
<clipPath id="clip0_48_400">
<rect width="75" height="78" fill="white" transform="matrix(-1 0 0 1 75 0)"/>
</clipPath>
</defs>
</svg>
