<svg width="1205" height="256" viewBox="0 0 1205 256" fill="none" xmlns="http://www.w3.org/2000/svg">
<path d="M0 48H1205V255H0V48Z" fill="#DFB79F"/>
<path d="M305.899 49.3002L313.825 43.6413C314.818 42.9334 316.052 42.6653 317.246 42.903L325.616 44.5668C327.032 44.85 328.221 45.8007 328.8 47.1257L330.196 50.2964C330.196 50.2964 319.736 56.0058 305.899 49.3002Z" fill="#EBD5C6"/>
<path d="M324.517 44.3491C324.517 44.3491 324.774 52.0358 305.899 49.2999C305.899 49.2999 313.251 53.4467 321.474 52.5617C321.474 52.5617 326.336 52.5718 330.201 50.2962C330.201 50.2962 329.717 47.3479 327.833 45.229C327.833 45.229 326.619 44.2277 324.512 44.3491H324.517Z" fill="#A78B78"/>
<path d="M89.7705 68.5499L96.2411 63.9302C97.0515 63.3522 98.0593 63.1334 99.0342 63.3274L105.867 64.6857C107.023 64.9169 107.993 65.693 108.467 66.7746L109.606 69.3632C109.606 69.3632 101.066 74.0241 89.7705 68.5499Z" fill="#EBD5C6"/>
<path d="M104.97 64.5078C104.97 64.5078 105.18 70.783 89.7705 68.5496C89.7705 68.5496 95.7722 71.9349 102.485 71.2124C102.485 71.2124 106.455 71.2206 109.61 69.3629C109.61 69.3629 109.215 66.956 107.677 65.2262C107.677 65.2262 106.685 64.4088 104.966 64.5078H104.97Z" fill="#A78B78"/>
<path d="M842.445 69.7833L848.916 65.1636C849.726 64.5856 850.734 64.3668 851.709 64.5608L858.542 65.9191C859.697 66.1502 860.668 66.9264 861.141 68.008L862.281 70.5965C862.281 70.5965 853.741 75.2575 842.445 69.7833Z" fill="#EBD5C6"/>
<path d="M857.645 65.7412C857.645 65.7412 857.855 72.0164 842.445 69.783C842.445 69.783 848.447 73.1683 855.16 72.4458C855.16 72.4458 859.13 72.454 862.285 70.5963C862.285 70.5963 861.89 68.1894 860.352 66.4596C860.352 66.4596 859.36 65.6422 857.641 65.7412H857.645Z" fill="#A78B78"/>
<path d="M776 50.3837L779.914 47.5895C780.404 47.2399 781.013 47.1075 781.603 47.2249L785.736 48.0464C786.435 48.1863 787.022 48.6557 787.308 49.31L787.998 50.8756C787.998 50.8756 782.832 53.6948 776 50.3837Z" fill="#EBD5C6"/>
<path d="M785.193 47.9386C785.193 47.9386 785.32 51.7342 776 50.3833C776 50.3833 779.63 52.4309 783.691 51.9939C783.691 51.9939 786.092 51.9989 788 50.8752C788 50.8752 787.761 49.4194 786.831 48.3731C786.831 48.3731 786.231 47.8787 785.191 47.9386H785.193Z" fill="#A78B78"/>
<path d="M1145.83 68.5499L1152.3 63.9302C1153.11 63.3522 1154.12 63.1334 1155.1 63.3274L1161.93 64.6857C1163.08 64.9169 1164.05 65.693 1164.53 66.7746L1165.67 69.3632C1165.67 69.3632 1157.13 74.0241 1145.83 68.5499Z" fill="#EBD5C6"/>
<path d="M1161.03 64.5078C1161.03 64.5078 1161.24 70.783 1145.83 68.5496C1145.83 68.5496 1151.83 71.9349 1158.55 71.2124C1158.55 71.2124 1162.52 71.2206 1165.67 69.3629C1165.67 69.3629 1165.28 66.956 1163.74 65.2262C1163.74 65.2262 1162.75 64.4088 1161.03 64.5078H1161.03Z" fill="#A78B78"/>
<path d="M547.485 128.414L565.319 115.681C567.552 114.088 570.33 113.485 573.017 114.02L591.848 117.764C595.034 118.401 597.709 120.54 599.013 123.521L602.154 130.655C602.154 130.655 578.617 143.501 547.485 128.414Z" fill="#EBD5C6"/>
<path d="M589.376 117.274C589.376 117.274 589.955 134.57 547.485 128.414C547.485 128.414 564.026 137.744 582.529 135.753C582.529 135.753 593.469 135.776 602.165 130.655C602.165 130.655 601.077 124.022 596.836 119.254C596.836 119.254 594.104 117.001 589.365 117.274H589.376Z" fill="#A78B78"/>
<path d="M1138.28 109.559L1156.12 96.8268C1158.35 95.2338 1161.13 94.6308 1163.81 95.1656L1182.65 98.9091C1185.83 99.5463 1188.51 101.685 1189.81 104.667L1192.95 111.801C1192.95 111.801 1169.42 124.647 1138.28 109.559Z" fill="#EBD5C6"/>
<path d="M1180.17 98.4199C1180.17 98.4199 1180.75 115.715 1138.28 109.559C1138.28 109.559 1154.82 118.89 1173.33 116.898C1173.33 116.898 1184.27 116.921 1192.96 111.801C1192.96 111.801 1191.87 105.167 1187.63 100.4C1187.63 100.4 1184.9 98.1469 1180.16 98.4199H1180.17Z" fill="#A78B78"/>
<path d="M919.176 92.2706L923.232 89.3751C923.741 89.0117 924.374 88.8755 924.98 89.0004L929.262 89.852C929.986 89.9939 930.591 90.4822 930.891 91.1635L931.604 92.7872C931.604 92.7872 926.247 95.7054 919.17 92.2763L919.176 92.2706Z" fill="#EBD5C6"/>
<path d="M928.696 89.7382C928.696 89.7382 928.826 93.6727 919.175 92.2704C919.175 92.2704 922.937 94.3937 927.14 93.9395C927.14 93.9395 929.629 93.9395 931.604 92.7813C931.604 92.7813 931.355 91.2711 930.393 90.1867C930.393 90.1867 929.771 89.6757 928.696 89.7382Z" fill="#A78B78"/>
<path d="M934.992 80.3761L943.116 70.3043C944.683 68.3626 946.974 67.1533 949.452 66.9602L964.415 65.802C968.041 65.5181 971.486 67.4428 973.155 70.6846L977.46 79.0419C977.46 79.0419 962.921 86.3715 934.987 80.3761H934.992Z" fill="#EBD5C6"/>
<path d="M964.415 65.8024C964.415 65.8024 980.622 81.9491 934.987 80.3821C934.987 80.3821 958.854 87.0304 977.46 79.0479C977.46 79.0479 975.106 72.2747 971.407 68.3345C969.404 66.2055 966.858 65.4674 964.415 65.8024Z" fill="#A78B78"/>
<path d="M140.167 136.504L145.86 132.44C146.575 131.93 147.464 131.738 148.314 131.914L154.325 133.109C155.341 133.308 156.191 133.994 156.611 134.95L157.612 137.229C157.612 137.229 150.092 141.325 140.159 136.512L140.167 136.504Z" fill="#EBD5C6"/>
<path d="M153.53 132.95C153.53 132.95 153.713 138.472 140.167 136.504C140.167 136.504 145.447 139.484 151.347 138.847C151.347 138.847 154.841 138.847 157.612 137.221C157.612 137.221 157.262 135.101 155.913 133.579C155.913 133.579 155.039 132.862 153.53 132.95Z" fill="#A78B78"/>
<path d="M162.368 119.809L173.77 105.672C175.97 102.946 179.186 101.249 182.664 100.978L203.666 99.3522C208.755 98.9538 213.591 101.655 215.933 106.206L221.976 117.936C221.976 117.936 201.569 128.224 162.36 119.809H162.368Z" fill="#EBD5C6"/>
<path d="M203.666 99.3526C203.666 99.3526 226.414 122.016 162.36 119.817C162.36 119.817 195.86 129.149 221.976 117.944C221.976 117.944 218.673 108.437 213.48 102.907C210.669 99.9184 207.096 98.8824 203.666 99.3526Z" fill="#A78B78"/>
<path d="M1037.09 206.291H984.279" stroke="#A78B78" stroke-width="10" stroke-linecap="round" stroke-linejoin="round"/>
<path d="M1044.58 168.197L1040.3 178.574C1038.8 182.187 1034.68 183.898 1031.08 182.402L1018.29 177.959" stroke="#A78B78" stroke-width="6" stroke-miterlimit="10"/>
<path d="M987.247 170.854L1001 174.924C1001.35 175.065 1001.73 175.176 1002.11 175.255C1005.63 175.958 1009.04 173.669 1009.74 170.14L1011.26 162.578" stroke="#A78B78" stroke-width="6" stroke-miterlimit="10"/>
<path d="M1026.91 164.19L1020.81 175.853C1019.79 177.812 1017.44 178.668 1015.4 177.817L1006.13 174.761" stroke="#A78B78" stroke-width="6" stroke-miterlimit="10"/>
<path d="M985.201 169.956L986.337 164.232C987.106 160.346 990.781 157.715 994.696 158.25L996.659 158.439" stroke="#A78B78" stroke-width="6" stroke-miterlimit="10"/>
<path d="M984.049 193.519L983.122 197.594H986.556L985.629 193.519C985.436 192.679 984.248 192.679 984.054 193.519H984.049Z" fill="#F4E5D2"/>
<path d="M988.341 193.519L987.415 197.594H990.848L989.922 193.519C989.728 192.679 988.54 192.679 988.346 193.519H988.341Z" fill="#F4E5D2"/>
<path d="M992.634 193.519L991.707 197.594H995.141L994.214 193.519C994.021 192.679 992.832 192.679 992.639 193.519H992.634Z" fill="#F4E5D2"/>
<path d="M996.921 193.519L995.994 197.594H999.428L998.502 193.519C998.308 192.679 997.12 192.679 996.926 193.519H996.921Z" fill="#F4E5D2"/>
<path d="M1001.21 193.519L1000.29 197.594H1003.72L1002.79 193.519C1002.6 192.679 1001.41 192.679 1001.22 193.519H1001.21Z" fill="#F4E5D2"/>
<path d="M1005.51 193.519L1004.58 197.594H1008.01L1007.09 193.519C1006.89 192.679 1005.7 192.679 1005.51 193.519H1005.51Z" fill="#F4E5D2"/>
<path d="M1009.8 193.519L1008.87 197.594H1012.31L1011.38 193.519C1011.19 192.679 1010 192.679 1009.8 193.519H1009.8Z" fill="#F4E5D2"/>
<path d="M981.966 184.65C981.929 185.684 983.316 186.052 983.792 185.138L986.593 179.792L982.17 178.616L981.966 184.65Z" fill="#F4E5D2"/>
<path d="M1019.14 188.441L1018.94 194.475C1018.9 195.509 1020.29 195.877 1020.76 194.963L1023.57 189.617L1019.14 188.441Z" fill="#F4E5D2"/>
<path d="M1013.86 187.039L1013.66 193.072C1013.65 193.419 1013.79 193.692 1014.01 193.865L1013.16 197.594H1016.6L1015.67 193.519C1015.66 193.451 1015.63 193.393 1015.61 193.34L1018.29 188.215L1013.87 187.039H1013.86Z" fill="#F4E5D2"/>
<path d="M1008.37 191.671C1008.34 192.705 1009.72 193.073 1010.2 192.159L1013 186.813L1008.58 185.637L1008.37 191.671Z" fill="#F4E5D2"/>
<path d="M1004.92 190.751L1007.72 185.405L1003.3 184.229L1003.09 190.263C1003.06 191.297 1004.44 191.665 1004.92 190.751Z" fill="#F4E5D2"/>
<path d="M998.015 182.827L997.811 188.861C997.774 189.896 999.161 190.263 999.638 189.349L1002.44 184.003L998.015 182.827Z" fill="#F4E5D2"/>
<path d="M994.356 187.942L997.156 182.596L992.733 181.42L992.529 187.454C992.492 188.488 993.88 188.856 994.356 187.942Z" fill="#F4E5D2"/>
<path d="M989.074 186.54L991.875 181.194L987.451 180.018L987.247 186.051C987.211 187.086 988.598 187.454 989.074 186.54Z" fill="#F4E5D2"/>
<path d="M981.405 199.873C981.405 203.418 984.269 206.29 987.802 206.29H1031.09C1031.09 206.29 1031.12 206.29 1031.13 206.29C1033.37 206.301 1035.6 205.455 1037.31 203.743L1050.84 190.169C1054.23 186.771 1054.23 181.267 1050.84 177.875L1018.97 196.938C1018.26 197.368 1017.44 197.594 1016.59 197.594H982.546C981.918 197.594 981.405 198.109 981.405 198.739V199.873Z" fill="#F8EEE1"/>
<path d="M1037.23 157.458C1036.53 157.316 1035.81 157.221 1035.11 157.169L998.454 152.169C988.796 150.857 979.782 157.305 977.882 166.9L977.134 170.681C976.422 174.278 978.62 177.812 982.154 178.742L1028.42 190.972C1029.09 191.193 1029.78 191.376 1030.49 191.518C1039.86 193.388 1048.97 187.28 1050.84 177.875C1052.7 168.47 1046.61 159.327 1037.24 157.458H1037.23ZM986.221 164.284L985.844 166.175C985.656 167.115 984.75 167.724 983.813 167.54C982.876 167.351 982.269 166.438 982.452 165.503L982.829 163.612C983.954 157.925 989.32 154.086 995.041 154.863C995.989 154.989 996.648 155.866 996.523 156.817C996.392 157.767 995.523 158.429 994.575 158.303C990.66 157.767 986.99 160.398 986.216 164.284H986.221ZM1009.73 170.192C1009.03 173.716 1005.62 176.006 1002.1 175.307C1001.72 175.228 1001.34 175.118 1000.99 174.976L993.314 172.708C990.492 171.873 988.77 169.016 989.346 166.122C989.917 163.234 992.592 161.26 995.512 161.569L1003.48 162.42C1003.86 162.425 1004.25 162.467 1004.64 162.541C1008.15 163.245 1010.43 166.669 1009.74 170.192H1009.73ZM1023.99 169.804C1023.88 170.077 1023.74 170.334 1023.59 170.576L1020.8 175.906C1019.78 177.865 1017.43 178.721 1015.39 177.87C1013.36 177.024 1012.31 174.761 1012.96 172.655L1014.75 166.9C1014.81 166.621 1014.9 166.338 1015.01 166.065C1016.04 163.575 1018.89 162.394 1021.37 163.423C1023.85 164.452 1025.03 167.309 1024 169.798L1023.99 169.804ZM1041.38 175.953L1040.28 178.626C1038.79 182.239 1034.66 183.951 1031.06 182.454C1027.46 180.958 1025.75 176.82 1027.24 173.207L1028.35 170.534C1029.84 166.921 1033.97 165.209 1037.57 166.705C1041.17 168.202 1042.88 172.34 1041.38 175.953Z" fill="#FCF7F1"/>
</svg>
