<svg width="1205" height="471" viewBox="0 0 1205 471" fill="none" xmlns="http://www.w3.org/2000/svg">
<rect width="1205" height="471" fill="#4584FF"/>
<g style="mix-blend-mode:multiply" opacity="0.5">
<path d="M1169.49 107.1C1169.33 106.62 1169.16 106.14 1168.97 105.68C1168.91 105.52 1168.83 105.37 1168.76 105.21C1168.63 104.91 1168.5 104.6 1168.35 104.31C1168.26 104.12 1168.15 103.95 1168.06 103.77C1167.92 103.51 1167.79 103.25 1167.64 103C1167.53 102.81 1167.4 102.62 1167.28 102.43C1167.13 102.2 1166.99 101.97 1166.83 101.75C1166.69 101.56 1166.55 101.37 1166.41 101.18C1166.25 100.97 1166.1 100.77 1165.94 100.57C1165.78 100.38 1165.62 100.2 1165.46 100.01C1165.3 99.82 1165.14 99.64 1164.97 99.46C1164.79 99.27 1164.61 99.1 1164.43 98.92C1164.26 98.76 1164.09 98.59 1163.92 98.44C1163.72 98.26 1163.52 98.09 1163.32 97.92C1163.15 97.78 1162.97 97.63 1162.8 97.5C1162.58 97.33 1162.36 97.17 1162.14 97.01C1161.97 96.89 1161.79 96.76 1161.61 96.64C1161.37 96.48 1161.14 96.33 1160.89 96.18C1160.71 96.07 1160.54 95.97 1160.36 95.87C1160.1 95.73 1159.85 95.58 1159.58 95.45C1159.41 95.36 1159.23 95.28 1159.05 95.2C1158.77 95.07 1158.5 94.94 1158.21 94.83C1158.04 94.76 1157.87 94.7 1157.69 94.63C1157.39 94.52 1157.1 94.41 1156.79 94.31C1156.63 94.26 1156.46 94.21 1156.29 94.16C1155.97 94.07 1155.65 93.97 1155.32 93.89C1155.17 93.85 1155.02 93.83 1154.87 93.8C1154.52 93.73 1154.17 93.65 1153.81 93.6C1153.69 93.58 1153.57 93.57 1153.45 93.56C1153.06 93.51 1152.66 93.45 1152.26 93.42C1152.21 93.03 1152.15 92.64 1152.08 92.25C1151.39 88.37 1149.84 84.81 1147.63 81.74C1147.61 81.72 1147.6 81.7 1147.58 81.67C1147.38 81.4 1147.18 81.13 1146.97 80.87C1146.93 80.82 1146.9 80.78 1146.86 80.73C1146.66 80.48 1146.46 80.24 1146.26 80C1146.21 79.94 1146.16 79.88 1146.11 79.82C1145.91 79.59 1145.71 79.37 1145.5 79.15C1145.44 79.08 1145.37 79.02 1145.31 78.95C1145.11 78.74 1144.9 78.53 1144.69 78.33C1144.62 78.26 1144.55 78.19 1144.47 78.12C1144.26 77.92 1144.05 77.73 1143.84 77.54C1143.76 77.47 1143.68 77.41 1143.61 77.34C1143.39 77.15 1143.18 76.97 1142.95 76.79C1142.88 76.73 1142.8 76.67 1142.72 76.61C1142.49 76.43 1142.26 76.24 1142.02 76.07C1141.97 76.03 1141.92 76 1141.86 75.96C1141.09 75.4 1140.28 74.88 1139.44 74.4C1139.32 74.33 1139.21 74.26 1139.09 74.2C1138.9 74.09 1138.7 73.99 1138.5 73.89C1138.34 73.81 1138.18 73.72 1138.02 73.64C1137.83 73.55 1137.65 73.46 1137.46 73.38C1137.28 73.3 1137.1 73.22 1136.92 73.14C1136.74 73.06 1136.55 72.99 1136.37 72.91C1136.18 72.83 1135.99 72.76 1135.8 72.68C1135.62 72.61 1135.44 72.55 1135.25 72.48C1135.05 72.41 1134.85 72.34 1134.64 72.27C1134.46 72.21 1134.28 72.16 1134.09 72.1C1133.88 72.04 1133.67 71.98 1133.46 71.92C1133.28 71.87 1133.1 71.82 1132.92 71.78C1132.7 71.73 1132.48 71.68 1132.25 71.63C1132.07 71.59 1131.89 71.55 1131.71 71.52C1131.48 71.47 1131.25 71.43 1131.01 71.4C1130.84 71.37 1130.66 71.34 1130.49 71.31C1130.24 71.27 1129.99 71.24 1129.74 71.21C1129.58 71.19 1129.41 71.17 1129.25 71.15C1128.97 71.12 1128.69 71.1 1128.4 71.09C1128.26 71.09 1128.13 71.07 1127.99 71.06C1127.57 71.04 1127.14 71.03 1126.71 71.03C1126.71 71.03 1126.7 71.03 1126.69 71.03C1126.03 71.03 1125.38 71.06 1124.73 71.11C1124.62 71.11 1124.51 71.13 1124.41 71.13C1123.99 71.17 1123.58 71.21 1123.16 71.27C1120.6 65.52 1117.01 60.33 1112.62 55.93C1110.6 53.91 1108.41 52.08 1106.08 50.42C1106.08 50.42 1106.07 50.42 1106.06 50.41C1105.37 49.92 1104.66 49.44 1103.94 48.98C1103.93 48.98 1103.91 48.96 1103.9 48.95C1103.18 48.49 1102.46 48.06 1101.72 47.64C1101.7 47.64 1101.69 47.62 1101.68 47.61C1100.93 47.19 1100.17 46.78 1099.4 46.39C1098.04 45.71 1096.65 45.09 1095.22 44.52L1095.15 44.49C1094.37 44.18 1093.58 43.9 1092.78 43.63C1092.72 43.61 1092.66 43.59 1092.6 43.57C1091.84 43.32 1091.08 43.09 1090.31 42.87C1090.2 42.84 1090.1 42.81 1089.99 42.78C1089.27 42.58 1088.54 42.4 1087.8 42.24C1087.65 42.21 1087.49 42.17 1087.34 42.13C1086.65 41.98 1085.96 41.85 1085.26 41.73C1085.06 41.7 1084.86 41.66 1084.66 41.62C1084 41.51 1083.33 41.43 1082.66 41.35C1082.43 41.32 1082.2 41.29 1081.96 41.26C1081.29 41.19 1080.62 41.14 1079.94 41.09C1079.71 41.07 1079.48 41.05 1079.24 41.04C1078.35 41.03 1077.44 41 1076.53 41C1076.43 41 1076.33 41 1076.23 41C1075.98 41 1075.73 41.01 1075.48 41.02C1074.97 41.03 1074.45 41.03 1073.94 41.06C1073.17 41.1 1072.41 41.16 1071.65 41.23C1071.64 41.23 1071.62 41.23 1071.61 41.23C1071.59 41.23 1071.57 41.23 1071.54 41.23C1071.54 41.23 1071.52 41.23 1071.51 41.23C1071.47 41.23 1071.44 41.23 1071.4 41.23C1070.57 41.31 1069.76 41.42 1068.94 41.54C1068.92 41.54 1068.91 41.54 1068.89 41.54C1068.07 41.66 1067.25 41.81 1066.44 41.97C1066.44 41.97 1066.44 41.97 1066.43 41.97C1066.43 41.97 1066.43 41.97 1066.42 41.97C1065.97 42.06 1065.52 42.17 1065.08 42.27C1064.76 42.34 1064.44 42.41 1064.12 42.49C1063.67 42.6 1063.23 42.73 1062.79 42.85C1062.49 42.93 1062.18 43.02 1061.88 43.11C1061.42 43.25 1060.97 43.39 1060.52 43.54C1060.25 43.63 1059.98 43.72 1059.71 43.81C1059.23 43.98 1058.76 44.15 1058.29 44.33C1058.08 44.41 1057.87 44.5 1057.66 44.58C1057.14 44.79 1056.62 45 1056.11 45.22C1056.01 45.26 1055.91 45.31 1055.81 45.36C1044.33 50.47 1035.08 59.69 1029.94 71.15C1029.04 71.05 1028.12 71 1027.19 71C1013.58 71 1002.44 81.56 1001.51 94.94C999.12 93.9 996.49 93.32 993.71 93.32C984.92 93.32 977.55 99.11 975 107.06H1169.51L1169.49 107.1Z" fill="#D7E5FF"/>
</g>
<g style="mix-blend-mode:multiply" opacity="0.5">
<path d="M859.38 209.92C858.25 206.94 856.51 204.27 854.33 202.03C850.16 197.75 844.34 195.07 837.89 195.07C837.22 195.07 836.56 195.1 835.9 195.16C835.77 195.17 835.64 195.19 835.51 195.21C834.97 195.27 834.43 195.34 833.9 195.43C833.81 195.45 833.72 195.47 833.62 195.48C833.04 195.59 832.46 195.72 831.9 195.87C831.86 195.87 831.83 195.89 831.79 195.9C831.17 196.07 830.56 196.27 829.96 196.49C829.88 195.97 829.79 195.45 829.69 194.93C829.65 194.74 829.62 194.54 829.59 194.35C829.5 193.88 829.39 193.41 829.28 192.94C829.23 192.71 829.18 192.48 829.12 192.25C829.01 191.8 828.89 191.36 828.77 190.92C828.7 190.68 828.63 190.43 828.56 190.19C828.43 189.76 828.3 189.33 828.15 188.9C828.07 188.65 827.99 188.41 827.9 188.17C827.75 187.75 827.6 187.33 827.44 186.92C827.35 186.68 827.25 186.44 827.16 186.2C826.99 185.79 826.83 185.38 826.65 184.98C826.55 184.75 826.44 184.52 826.34 184.28C826.15 183.87 825.97 183.47 825.77 183.07C825.66 182.85 825.55 182.64 825.44 182.43C825.23 182.02 825.02 181.61 824.8 181.21C824.7 181.03 824.6 180.86 824.5 180.68C823.65 179.19 822.73 177.75 821.72 176.38C821.65 176.28 821.58 176.18 821.51 176.08C821.25 175.73 820.97 175.38 820.7 175.04C820.54 174.84 820.38 174.63 820.22 174.43C819.96 174.12 819.7 173.81 819.43 173.5C819.24 173.28 819.05 173.06 818.86 172.84C818.6 172.55 818.33 172.26 818.06 171.98C817.85 171.76 817.64 171.53 817.42 171.31C817.15 171.04 816.88 170.77 816.61 170.51C816.38 170.29 816.15 170.07 815.92 169.85C815.65 169.6 815.38 169.35 815.1 169.1C814.85 168.88 814.6 168.67 814.35 168.45C814.07 168.22 813.8 167.98 813.51 167.75C813.25 167.54 812.98 167.33 812.71 167.12C812.43 166.9 812.15 166.69 811.87 166.48C811.58 166.27 811.29 166.07 811 165.86C810.72 165.66 810.44 165.46 810.16 165.27C809.84 165.06 809.51 164.85 809.19 164.65C808.93 164.48 808.66 164.31 808.4 164.15C807.94 163.88 807.48 163.61 807.02 163.35C806.73 163.19 806.44 163.03 806.14 162.87C805.68 162.62 805.21 162.38 804.74 162.15C804.49 162.03 804.23 161.91 803.97 161.8C803.58 161.62 803.2 161.44 802.81 161.27C802.53 161.15 802.25 161.04 801.96 160.92C801.58 160.77 801.21 160.62 800.83 160.47C800.54 160.36 800.24 160.26 799.94 160.15C799.56 160.02 799.18 159.89 798.8 159.76C798.5 159.66 798.19 159.57 797.89 159.48C797.5 159.37 797.12 159.25 796.73 159.15C796.42 159.07 796.11 158.99 795.81 158.91C795.41 158.81 795.01 158.72 794.61 158.63C794.3 158.56 793.99 158.5 793.68 158.44C793.27 158.36 792.85 158.29 792.44 158.22C792.13 158.17 791.83 158.12 791.52 158.07C791.08 158.01 790.64 157.95 790.21 157.9C789.92 157.87 789.63 157.83 789.34 157.8C788.85 157.75 788.36 157.72 787.87 157.69C787.62 157.67 787.37 157.65 787.12 157.64C786.39 157.6 785.65 157.58 784.9 157.58C784.9 157.58 784.88 157.58 784.87 157.58C784.17 157.58 783.47 157.6 782.78 157.63C782.57 157.63 782.37 157.65 782.16 157.66C781.64 157.69 781.12 157.73 780.6 157.78C780.41 157.8 780.21 157.81 780.02 157.83C779.34 157.9 778.67 157.99 778 158.09C777.88 158.11 777.76 158.13 777.65 158.15C777.09 158.24 776.54 158.34 775.99 158.45C775.77 158.49 775.55 158.54 775.33 158.59C774.85 158.69 774.37 158.8 773.9 158.92C773.71 158.97 773.51 159.01 773.32 159.06C772.7 159.22 772.08 159.4 771.47 159.59C771.27 159.65 771.07 159.72 770.87 159.78C770.44 159.92 770.01 160.06 769.58 160.22C769.33 160.31 769.08 160.4 768.84 160.49C768.44 160.64 768.04 160.8 767.64 160.96C767.42 161.05 767.2 161.13 766.98 161.23C766.43 161.46 765.89 161.71 765.35 161.97C765.08 162.1 764.82 162.23 764.56 162.36C764.25 162.52 763.94 162.67 763.63 162.84C763.34 162.99 763.06 163.14 762.78 163.3C762.49 163.46 762.21 163.62 761.93 163.79C761.43 164.08 760.93 164.39 760.44 164.7C760.2 164.85 759.96 165 759.73 165.15C759.41 165.36 759.1 165.58 758.79 165.8C758.59 165.94 758.4 166.07 758.21 166.21C757.89 166.44 757.56 166.68 757.24 166.92C757.13 167 757.03 167.09 756.92 167.17C756.23 167.7 755.56 168.26 754.91 168.83C754.83 168.9 754.74 168.98 754.66 169.05C754.32 169.35 753.98 169.67 753.64 169.98C753.55 170.07 753.46 170.15 753.37 170.24C752.27 171.29 751.22 172.4 750.23 173.56C750.22 173.58 750.2 173.59 750.19 173.61C749.85 174.01 749.52 174.41 749.19 174.82L749.16 174.86C746.83 177.8 744.86 181.02 743.3 184.48C742.17 183.92 741 183.42 739.8 182.98C739.74 182.96 739.68 182.94 739.62 182.92C739.1 182.73 738.58 182.56 738.05 182.4C737.95 182.37 737.85 182.34 737.76 182.31C737.19 182.14 736.62 181.99 736.04 181.85C736.02 181.85 735.99 181.84 735.97 181.83C735.36 181.69 734.73 181.56 734.11 181.45C734.01 181.43 733.91 181.42 733.81 181.4C733.31 181.32 732.81 181.24 732.3 181.18C732.12 181.16 731.93 181.14 731.75 181.12C731.3 181.07 730.85 181.03 730.4 181C730.22 180.99 730.04 180.97 729.85 180.96C729.23 180.93 728.61 180.91 727.98 180.91C727.17 180.91 726.36 180.95 725.56 181C725.43 181 725.31 181.02 725.18 181.03C724.38 181.09 723.6 181.18 722.82 181.3C722.75 181.31 722.68 181.32 722.61 181.33C720.94 181.59 719.31 181.97 717.73 182.46C717.73 182.46 717.73 182.45 717.73 182.44C716.65 179.92 715.35 177.52 713.87 175.25C713.77 175.1 713.68 174.94 713.58 174.79C713.3 174.38 713.02 173.97 712.73 173.57C712.59 173.37 712.44 173.16 712.3 172.96C712.03 172.59 711.74 172.22 711.46 171.86C711.28 171.64 711.11 171.41 710.93 171.19C710.66 170.85 710.37 170.52 710.09 170.19C709.89 169.95 709.69 169.72 709.48 169.49C709.2 169.18 708.92 168.87 708.63 168.57C708.4 168.33 708.18 168.09 707.95 167.85C707.81 167.71 707.69 167.57 707.55 167.43C707.4 167.28 707.25 167.15 707.1 167C706.85 166.76 706.6 166.52 706.34 166.28C706.06 166.02 705.77 165.76 705.49 165.5C705.22 165.26 704.94 165.02 704.66 164.78C704.38 164.54 704.09 164.3 703.8 164.06C703.5 163.82 703.2 163.59 702.9 163.35C702.62 163.13 702.33 162.91 702.04 162.7C701.72 162.46 701.39 162.23 701.06 162C700.78 161.8 700.5 161.61 700.22 161.42C699.86 161.18 699.5 160.95 699.14 160.73C698.87 160.56 698.61 160.39 698.34 160.23C697.92 159.98 697.5 159.74 697.08 159.5C696.85 159.37 696.63 159.24 696.4 159.11C695.76 158.76 695.1 158.43 694.44 158.11C694.11 157.95 693.77 157.81 693.44 157.65C693.01 157.45 692.58 157.26 692.15 157.07C691.93 156.98 691.71 156.9 691.49 156.81C690.94 156.59 690.38 156.37 689.82 156.17C689.57 156.08 689.32 156 689.07 155.91C688.52 155.72 687.97 155.54 687.42 155.38C687.17 155.31 686.92 155.24 686.67 155.17C686.1 155.01 685.52 154.85 684.93 154.71C684.7 154.65 684.46 154.6 684.23 154.55C683.61 154.41 682.99 154.28 682.37 154.17C682.16 154.13 681.96 154.09 681.75 154.06C681.08 153.94 680.4 153.84 679.72 153.76C679.55 153.74 679.39 153.72 679.22 153.7C678.47 153.61 677.72 153.54 676.96 153.49C676.85 153.49 676.75 153.47 676.64 153.47C675.77 153.42 674.9 153.38 674.03 153.37C674.03 153.37 674.03 153.37 674.02 153.37C674.02 153.35 674 153.33 673.99 153.31C673.39 152.12 672.76 150.94 672.09 149.79C672.02 149.67 671.95 149.54 671.88 149.42C671.56 148.88 671.23 148.34 670.89 147.8C670.8 147.65 670.7 147.5 670.6 147.35C669.55 145.71 668.43 144.13 667.24 142.6C667.1 142.42 666.96 142.24 666.82 142.06C666.44 141.59 666.06 141.12 665.67 140.65C665.62 140.59 665.57 140.53 665.52 140.47C664.75 139.56 663.95 138.68 663.13 137.82C662.94 137.63 662.76 137.43 662.57 137.24C662.18 136.84 661.79 136.45 661.4 136.07C661.18 135.85 660.95 135.64 660.73 135.43C660.06 134.79 659.37 134.17 658.67 133.56C658.41 133.34 658.16 133.11 657.9 132.89C657.52 132.57 657.13 132.26 656.74 131.95C656.43 131.7 656.12 131.46 655.81 131.22C655.43 130.93 655.06 130.64 654.68 130.36C654.18 129.99 653.67 129.63 653.15 129.27C652.7 128.96 652.24 128.66 651.79 128.35C651.38 128.08 650.97 127.82 650.56 127.56C650.2 127.34 649.85 127.12 649.49 126.91C649.01 126.62 648.53 126.35 648.04 126.08C647.68 125.88 647.32 125.68 646.95 125.48C646.3 125.13 645.64 124.79 644.97 124.47C644.65 124.31 644.32 124.16 644 124.01C643.47 123.76 642.93 123.52 642.39 123.28C642.09 123.15 641.79 123.02 641.49 122.89C640.7 122.56 639.89 122.24 639.08 121.94C638.83 121.85 638.58 121.77 638.33 121.68C637.7 121.45 637.06 121.24 636.41 121.03C636.12 120.94 635.82 120.84 635.52 120.75C634.75 120.52 633.98 120.3 633.2 120.09C633.08 120.06 632.96 120.02 632.84 119.99C631.95 119.76 631.06 119.56 630.16 119.37C629.89 119.31 629.61 119.26 629.34 119.21C628.62 119.07 627.9 118.94 627.18 118.82C626.95 118.78 626.72 118.74 626.49 118.71C625.56 118.57 624.63 118.45 623.69 118.35C623.48 118.33 623.27 118.31 623.06 118.29C622.29 118.22 621.52 118.16 620.75 118.11C620.48 118.09 620.21 118.08 619.93 118.07C618.96 118.03 617.99 118 617.01 118C616.03 118 615.05 118.03 614.08 118.07C613.8 118.08 613.52 118.1 613.24 118.12C612.49 118.16 611.75 118.22 611.01 118.29C610.76 118.31 610.52 118.33 610.27 118.36C609.33 118.46 608.39 118.58 607.45 118.72C607.25 118.75 607.06 118.79 606.86 118.82C606.11 118.94 605.36 119.07 604.62 119.22C604.33 119.28 604.04 119.34 603.75 119.4C603.01 119.56 602.27 119.73 601.54 119.91C601.35 119.96 601.16 120 600.97 120.05C600.09 120.28 599.22 120.53 598.35 120.79C598.07 120.87 597.79 120.97 597.52 121.06C596.9 121.26 596.28 121.47 595.67 121.69C595.37 121.8 595.07 121.9 594.77 122.01C593.99 122.3 593.22 122.6 592.46 122.92C592.22 123.02 591.99 123.12 591.76 123.22C591.12 123.5 590.48 123.79 589.84 124.09C589.51 124.25 589.18 124.41 588.86 124.57C588.35 124.82 587.84 125.08 587.34 125.35C587.03 125.52 586.71 125.68 586.4 125.85C585.68 126.25 584.97 126.66 584.26 127.08C583.93 127.28 583.61 127.49 583.28 127.69C582.85 127.96 582.42 128.23 582 128.51C581.64 128.75 581.28 128.99 580.93 129.23C580.53 129.51 580.14 129.79 579.74 130.08C579.2 130.47 578.67 130.86 578.15 131.27C577.74 131.59 577.33 131.9 576.93 132.23C576.56 132.53 576.19 132.85 575.82 133.16C575.52 133.41 575.23 133.67 574.93 133.93C574.55 134.26 574.18 134.59 573.81 134.93C573.55 135.17 573.31 135.41 573.06 135.65C572.38 136.3 571.72 136.96 571.07 137.64C570.85 137.87 570.63 138.09 570.42 138.32C570.05 138.72 569.68 139.13 569.32 139.54C569.12 139.76 568.93 139.99 568.73 140.22C567.51 141.64 566.35 143.11 565.26 144.64C565.11 144.85 564.96 145.06 564.82 145.26C564.48 145.75 564.14 146.24 563.82 146.74C563.71 146.91 563.6 147.08 563.49 147.25C562.82 148.29 562.18 149.35 561.57 150.42C561.52 150.52 561.46 150.61 561.41 150.71C561.11 151.25 560.82 151.79 560.54 152.33C560.43 152.54 560.32 152.76 560.21 152.97C559.93 153.52 559.65 154.07 559.39 154.64C555.54 162.84 553.38 171.98 553.38 181.64C553.38 183.49 553.49 185.32 553.64 187.13C544.24 191.22 537.18 199.66 535 209.92H859.42H859.38Z" fill="#D7E5FF"/>
</g>
<g style="mix-blend-mode:multiply" opacity="0.5">
<path d="M389.31 221.21C389.16 220.76 388.99 220.31 388.82 219.87C388.21 218.3 387.47 216.79 386.62 215.35C386.41 214.99 386.18 214.63 385.96 214.28C385.37 213.36 384.73 212.47 384.04 211.62C383.62 211.1 383.19 210.59 382.75 210.1C378.69 205.66 373.38 202.38 367.37 200.83C366.36 200.57 365.34 200.36 364.3 200.2C362.74 199.96 361.14 199.84 359.51 199.84C358.98 199.84 358.45 199.85 357.92 199.88C357.65 199.89 357.38 199.92 357.11 199.94C356.86 199.96 356.61 199.97 356.36 200C355.99 200.04 355.63 200.09 355.27 200.13C355.13 200.15 354.99 200.16 354.84 200.18C354.41 200.24 353.99 200.32 353.57 200.4C353.5 200.41 353.42 200.43 353.35 200.44C352.89 200.53 352.43 200.64 351.98 200.75C351.95 200.75 351.92 200.76 351.89 200.77C351.41 200.89 350.93 201.02 350.46 201.16C349.51 201.45 348.57 201.78 347.66 202.15C342.2 194.2 333.89 188.37 324.19 186.14C324.65 184.42 325 182.66 325.25 180.86C325.28 180.66 325.3 180.45 325.33 180.24C325.41 179.56 325.48 178.88 325.53 178.2C325.55 177.97 325.57 177.73 325.58 177.5C325.63 176.62 325.67 175.73 325.67 174.84C325.67 150.63 306.04 131 281.83 131C281.81 131 281.8 131 281.78 131C281.75 131 281.72 131 281.69 131C280.96 131 280.24 131.02 279.51 131.06C279.33 131.06 279.15 131.09 278.97 131.1C278.97 131.1 278.96 131.1 278.95 131.1C278.95 131.1 278.95 131.1 278.94 131.1C278.36 131.14 277.78 131.18 277.21 131.24C277.04 131.26 276.88 131.28 276.71 131.3C276.11 131.37 275.52 131.45 274.93 131.54C274.8 131.56 274.67 131.59 274.55 131.61C273.92 131.72 273.3 131.83 272.68 131.96C272.6 131.98 272.52 132 272.43 132.02C271.77 132.16 271.11 132.32 270.46 132.5C270.42 132.51 270.37 132.53 270.33 132.54C269.64 132.73 268.96 132.93 268.28 133.15H268.24C267.53 133.4 266.84 133.64 266.15 133.91C265.46 134.18 264.78 134.46 264.11 134.76C248.75 141.58 238.02 156.95 238.02 174.84C238.02 175.02 238.03 175.2 238.03 175.38C237.94 175.38 237.86 175.4 237.77 175.41C237.69 175.41 237.61 175.43 237.53 175.44C236.77 175.53 236.02 175.63 235.28 175.76C235.26 175.76 235.24 175.76 235.23 175.76C234.43 175.89 233.65 176.05 232.87 176.23C219.35 179.27 208.15 188.43 202.33 200.65C200.19 199.75 197.83 199.25 195.36 199.25C187.71 199.25 181.2 204.04 178.62 210.77C166.92 212.72 158 222.89 158 235.14H264.99H390.76C390.84 234.51 390.9 233.88 390.95 233.24C390.99 232.6 391.02 231.96 391.02 231.31C391.02 227.78 390.43 224.38 389.35 221.21H389.31Z" fill="#D7E5FF"/>
</g>
</svg>
