<svg width="566" height="329" viewBox="0 0 566 329" fill="none" xmlns="http://www.w3.org/2000/svg">
<path d="M51.7217 319.03H121.266" stroke="#A78B78" stroke-width="15" stroke-linecap="round" stroke-linejoin="round"/>
<path d="M17.3041 117.203C26.8583 117.203 34.6082 124.953 34.6082 134.507V161.42C34.6082 170.961 42.3718 178.725 51.9123 178.725V107.595C51.8986 88.4862 67.3848 73 86.4932 73C105.601 73 121.088 88.4862 121.088 107.595V213.305C130.628 213.305 138.392 205.542 138.392 196.001V169.088C138.392 159.534 146.142 151.784 155.696 151.784C165.25 151.784 173 159.534 173 169.088V196.001C173 224.623 149.723 247.9 121.101 247.9V319.016H51.8986V213.305C23.2772 213.319 0 190.028 0 161.42V134.507C0 124.953 7.74994 117.203 17.3041 117.203Z" fill="#00A26C"/>
<path d="M17.3041 117.203V134.507V161.42C17.3041 180.529 32.7903 196.015 51.8986 196.015V107.595C51.8986 88.4862 67.3848 73 86.4932 73V319.03H51.8986V213.319C23.2772 213.319 0 190.028 0 161.42V134.507C0 124.953 7.74994 117.203 17.3041 117.203Z" fill="#00D890"/>
<path d="M121.087 230.609C140.196 230.609 155.682 215.123 155.682 196.015V169.102V151.798C146.128 151.798 138.378 159.548 138.378 169.102V196.015C138.378 205.555 130.614 213.319 121.074 213.319V230.623L121.087 230.609Z" fill="#00D890"/>
<path d="M51.8982 196.014C32.7899 196.014 17.3037 180.528 17.3037 161.42V134.507V117.203C26.8579 117.203 34.6078 124.953 34.6078 134.507V161.42C34.6078 170.96 42.3714 178.724 51.9119 178.724C61.4661 178.724 69.216 186.474 69.216 196.028H51.9119L51.8982 196.014Z" fill="#00A26C"/>
<g clip-path="url(#clip0_109_265)">
<path d="M491.459 128.549L489.031 116.242L469.075 108.174C465.862 106.878 463.337 104.248 462.141 100.971L460.547 96.6027L503.194 103.749L489.866 84.9746C470.032 58.4667 439.054 42.8923 406.172 42.8923H379.394C378.854 42.8923 378.401 43.1033 378.07 43.4326C373.875 44.8321 370.841 48.8144 370.841 53.5274C370.841 59.398 375.55 64.1573 381.359 64.1573H394.407L407.205 78.2036C411.502 82.9217 413.89 89.0959 413.89 95.5067V126.882L439.181 160.686C443.432 166.366 451.384 167.683 457.152 163.598C458.481 162.656 459.748 161.612 460.934 160.464L491.48 131.065L491.867 130.159C491.709 129.635 491.566 129.105 491.454 128.559L491.459 128.549Z" fill="#FF6C4E"/>
<path d="M490.819 128.678L488.462 116.72L486.523 115.938L460.941 140.563C459.75 141.71 458.487 142.755 457.153 143.696C451.385 147.787 443.433 146.464 439.183 140.784L413.891 106.98V126.872L439.183 160.675C443.433 166.356 451.385 167.673 457.153 163.588C458.482 162.646 459.75 161.602 460.941 160.454L491.486 131.055C491.211 130.288 490.982 129.501 490.819 128.683V128.678Z" fill="#FF5D4E"/>
<path d="M363.465 107.433L357.524 26.4842C356.241 16.9502 362.523 8.05934 371.855 6.18135L375.535 5.44045C379.038 4.73556 382.474 6.90682 383.386 10.3952L399.315 107.428H363.465V107.433Z" fill="#008C46"/>
<path d="M360.894 72.4394L364.223 72.1822C366.479 72.0072 368.164 70.0212 367.991 67.7419C367.817 65.4626 365.852 63.7595 363.597 63.9345L360.288 64.1917L360.894 72.4394Z" fill="#00763B"/>
<path d="M361.805 84.8305L365.134 84.5733C367.39 84.3983 369.075 82.4123 368.902 80.133C368.729 77.8537 366.764 76.1507 364.508 76.3256L361.199 76.5828L361.805 84.8305Z" fill="#00763B"/>
<path d="M359.083 47.7334L362.412 47.4761C364.668 47.3012 366.353 45.3151 366.18 43.0358C366.006 40.7565 364.041 39.0535 361.786 39.2284L358.477 39.4857L359.083 47.7334Z" fill="#00763B"/>
<path d="M359.982 60.0505L363.312 59.7933C365.567 59.6183 367.252 57.6323 367.079 55.353C366.906 53.0737 364.941 51.3706 362.686 51.5456L359.376 51.8028L359.982 60.0505Z" fill="#00763B"/>
<path d="M362.717 97.2256L366.046 96.9683C368.301 96.7934 369.986 94.8073 369.813 92.528C369.64 90.2487 367.675 88.5457 365.42 88.7206L362.111 88.9779L362.717 97.2256Z" fill="#00763B"/>
<path d="M363.476 107.432L363.022 101.289L366.332 101.032C368.587 100.857 370.552 102.56 370.725 104.839C370.796 105.791 370.547 106.692 370.063 107.432H363.476Z" fill="#00763B"/>
<path d="M378.809 18.5751C378.351 19.7534 378.107 21.0396 378.132 22.3877L378.203 26.4421C378.3 31.9217 382.77 36.2899 388.192 36.1921C392.285 36.1201 395.747 33.527 397.162 29.9048C397.62 28.7265 397.864 27.4402 397.839 26.0973L397.768 22.043C397.671 16.5634 393.201 12.1951 387.779 12.2929C383.686 12.3649 380.225 14.9581 378.809 18.5803V18.5751Z" fill="white"/>
<path d="M388.022 26.9175C388.054 28.7444 389.545 30.1995 391.353 30.1676C393.16 30.1357 394.6 28.6289 394.568 26.802L394.476 21.4673C394.445 19.6404 392.954 18.1853 391.146 18.2172C389.339 18.2491 387.899 19.7559 387.93 21.5828L388.022 26.9175Z" fill="black"/>
<path d="M410.435 16.3732C406.693 16.4401 403.715 19.5529 403.781 23.3346C403.786 23.7513 403.832 24.1578 403.913 24.554L404.809 32.9457C405.14 36.0328 407.747 38.3533 410.816 38.3019C413.881 38.2453 416.396 35.8425 416.625 32.7502L417.236 24.3173C417.297 23.9211 417.333 23.5095 417.323 23.0928C417.256 19.3111 414.171 16.3011 410.435 16.368V16.3732Z" fill="#00BF5F"/>
<path d="M449.71 71.0464C449.746 69.9093 448.229 69.508 447.709 70.5216L445.205 75.4095L449.552 76.5466L449.715 71.0413L449.71 71.0464Z" fill="#FCF7F1"/>
<path d="M442.277 69.0951L439.772 73.983L444.12 75.1201L444.283 69.6148C444.319 68.4777 442.802 68.0764 442.282 69.09L442.277 69.0951Z" fill="#FCF7F1"/>
<path d="M436.845 67.6752L434.34 72.5631L438.687 73.7002L438.85 68.1948C438.886 67.0578 437.369 66.6564 436.85 67.67L436.845 67.6752Z" fill="#FCF7F1"/>
<path d="M431.414 66.2514L428.909 71.1393L433.257 72.2763L433.42 66.771C433.455 65.6339 431.938 65.2326 431.419 66.2462L431.414 66.2514Z" fill="#FCF7F1"/>
<path d="M425.982 64.8256L423.477 69.7135L427.825 70.8506L427.988 65.3452C428.023 64.2082 426.506 63.8068 425.987 64.8204L425.982 64.8256Z" fill="#FCF7F1"/>
<path d="M420.549 63.4057L418.044 68.2936L422.392 69.4306L422.555 63.9253C422.591 62.7882 421.073 62.3869 420.554 63.4005L420.549 63.4057Z" fill="#FCF7F1"/>
<path d="M415.117 61.9799L412.612 66.8678L416.959 68.0049L417.122 62.4995C417.158 61.3625 415.641 60.9611 415.122 61.9747L415.117 61.9799Z" fill="#FCF7F1"/>
<path d="M409.69 60.556L407.186 65.4439L411.533 66.581L411.696 61.0757C411.732 59.9386 410.215 59.5373 409.695 60.5509L409.69 60.556Z" fill="#FCF7F1"/>
<path d="M450.997 79.9788C449.826 84.5426 445.214 87.2849 440.698 86.1016L385.34 71.5922C385.34 71.5922 385.299 71.5819 385.279 71.5768C382.418 70.8462 379.837 68.999 378.218 66.2258L365.404 44.2045C362.197 38.694 364.02 31.604 369.472 28.3625L403.927 63.6069C404.706 64.4044 405.683 64.9704 406.752 65.2534L450.295 76.6653C451.099 76.8763 451.588 77.7098 451.374 78.5227L450.997 79.984V79.9788Z" fill="#00BF5F"/>
<path d="M447.939 55.2854L448.784 63.1987C448.927 64.557 450.795 64.7834 451.248 63.4919L453.885 55.9851L447.939 55.2905V55.2854Z" fill="#FCF7F1"/>
<path d="M399.086 57.3705C399.229 58.7288 401.097 58.9552 401.55 57.6638L404.187 50.157L398.241 49.4624L399.086 57.3757V57.3705Z" fill="#FCF7F1"/>
<path d="M406.188 58.2033C406.33 59.5616 408.199 59.788 408.652 58.4966L411.289 50.9898L405.343 50.2952L406.188 58.2084V58.2033Z" fill="#FCF7F1"/>
<path d="M413.285 59.038C413.428 60.3963 415.296 60.6227 415.749 59.3313L418.386 51.8245L412.44 51.1299L413.285 59.0431V59.038Z" fill="#FCF7F1"/>
<path d="M420.381 59.8666C420.523 61.2249 422.392 61.4513 422.845 60.1599L425.482 52.6531L419.536 51.9585L420.381 59.8718V59.8666Z" fill="#FCF7F1"/>
<path d="M427.484 60.6994C427.626 62.0577 429.495 62.2841 429.948 60.9926L432.585 53.4859L426.639 52.7913L427.484 60.7045V60.6994Z" fill="#FCF7F1"/>
<path d="M434.579 61.5321C434.722 62.8905 436.59 63.1168 437.043 61.8254L439.681 54.3186L433.734 53.624L434.579 61.5373V61.5321Z" fill="#FCF7F1"/>
<path d="M441.681 62.3607C441.823 63.7191 443.691 63.9455 444.145 62.654L446.782 55.1472L440.835 54.4526L441.681 62.3659V62.3607Z" fill="#FCF7F1"/>
<path d="M432.55 23.8445C427.642 22.9493 422.943 26.2422 422.057 31.197C421.172 36.1569 424.43 40.9007 429.332 41.8011C429.872 41.8989 430.411 41.9452 430.941 41.9452L442.034 42.9434C446.112 43.3087 449.797 40.4737 450.525 36.3987C451.253 32.334 448.795 28.3826 444.854 27.2815L434.102 24.2819C433.603 24.0966 433.084 23.9474 432.545 23.8445H432.55Z" fill="#00BF5F"/>
<path d="M395.798 1.11297L445.821 13.5025C459.001 16.7697 467.391 29.8333 464.978 43.3239L464.026 48.644C463.12 53.7068 458.472 57.1798 453.422 56.5727L387.291 48.6748C386.309 48.6182 385.326 48.4999 384.334 48.3198C371.24 45.9273 362.545 33.2548 364.912 20.0266C367.284 6.78808 379.818 -1.99985 392.912 0.392647C393.904 0.572728 394.867 0.814551 395.803 1.10782L395.798 1.11297ZM378.199 26.4375C378.296 31.9171 382.766 36.2853 388.187 36.1875C392.28 36.1155 395.742 33.5223 397.158 29.9002C397.616 28.7219 397.86 27.4356 397.835 26.0927L397.763 22.0383C397.667 16.5587 393.197 12.1905 387.775 12.2883C383.682 12.3603 380.22 14.9535 378.805 18.5756C378.347 19.7539 378.102 21.0402 378.128 22.3882L378.199 26.4426V26.4375ZM403.913 24.5492L404.809 32.9409C405.14 36.028 407.747 38.3485 410.816 38.2971C413.881 38.2405 416.396 35.8377 416.625 32.7454L417.236 24.3125C417.297 23.9163 417.333 23.5047 417.322 23.088C417.256 19.3063 414.171 16.2963 410.434 16.3632C406.693 16.4301 403.715 19.5429 403.781 23.3246C403.786 23.7414 403.832 24.1479 403.913 24.544V24.5492ZM429.332 41.8009C429.871 41.8987 430.411 41.945 430.941 41.945L442.034 42.9431C446.111 43.3084 449.797 40.4735 450.525 36.3985C451.253 32.3338 448.794 28.3823 444.854 27.2813L434.102 24.2816C433.603 24.0964 433.084 23.9472 432.544 23.8443C427.637 22.949 422.938 26.2419 422.052 31.1967C421.166 36.1567 424.424 40.9005 429.327 41.8009H429.332Z" fill="#00D86C"/>
<path d="M377.765 7.18483C377.393 7.08707 377.052 6.84525 376.843 6.48509C376.421 5.75962 376.655 4.8232 377.378 4.391C381.858 1.71038 387.152 0.753376 392.284 1.6898C393.139 1.84415 393.999 2.06025 394.839 2.32265L445.824 14.9489C445.824 14.9489 445.84 14.9489 445.845 14.9489C446.644 15.1598 447.133 15.9779 446.934 16.7908C446.736 17.6089 445.916 18.1132 445.107 17.9125L394.081 5.27597C394.05 5.27083 394.02 5.26054 393.989 5.25025C393.251 5.01871 392.493 4.82834 391.749 4.69457C387.335 3.88678 382.779 4.71 378.92 7.01504C378.559 7.23113 378.146 7.27744 377.77 7.17968L377.765 7.18483Z" fill="#00EC76"/>
<path d="M460.583 38.4363L460.262 35.7556L459.942 33.075C459.784 31.7424 458.582 30.7906 457.264 30.9501C455.945 31.1147 455.003 32.3238 455.161 33.6564L455.482 36.3371L455.803 39.0177C455.961 40.3503 457.162 41.3021 458.481 41.1426C459.799 40.978 460.741 39.7689 460.583 38.4363Z" fill="#00763B"/>
<path d="M321.538 212.25L307.915 201.851L278.882 231.194C276.484 233.618 278.846 237.677 282.104 236.736L303.369 230.608L321.533 212.25H321.538Z" fill="#FF6C4E"/>
<path d="M296.958 155.427L278.372 170.276H410.811C412.312 170.276 413.666 169.432 414.338 168.069C415.01 166.71 414.863 165.11 413.962 163.896L365.599 98.9897C350.173 78.3782 326.664 65.4329 301.092 63.4829H286.481L299.88 78.1878C304.177 82.9059 306.56 89.0801 306.56 95.491V135.381C306.56 143.197 303.022 150.58 296.958 155.422V155.427Z" fill="#FED2A4"/>
<path d="M363.639 86.9529L398.766 106.504C398.766 106.504 409.911 121.168 415.002 130.172C420.093 139.176 428.038 158.728 414.548 177.765C401.057 196.802 328.512 169.79 319.348 165.674C310.185 161.558 300.258 150.238 295.167 141.234C290.076 132.23 286.512 118.596 286.512 118.596L305.094 135.06C305.094 135.06 317.567 140.72 326.985 137.118C336.403 133.517 363.639 86.9529 363.639 86.9529Z" fill="#008C46"/>
<path d="M296.958 155.427L278.372 170.276H410.811C412.312 170.276 413.666 169.432 414.338 168.069C415.01 166.71 414.863 165.11 413.962 163.896L365.599 98.9897C350.173 78.3782 326.664 65.4329 301.092 63.4829H286.481L299.88 78.1878C304.177 82.9059 306.56 89.0801 306.56 95.491V135.381C306.56 143.197 303.022 150.58 296.958 155.422V155.427Z" fill="#FFD6B8"/>
<path d="M413.962 163.896L365.599 98.9897C350.174 78.3782 326.664 65.4329 301.093 63.4829H286.482L298.425 76.5928C318.274 81.4755 336.026 93.1242 348.494 109.784L393.568 170.276H410.816C412.318 170.276 413.672 169.432 414.344 168.069C415.016 166.71 414.874 165.11 413.967 163.896H413.962Z" fill="#FFC195"/>
<path d="M391.975 134.388L305.537 142.58C304.407 146.474 302.36 150.055 299.565 153.019L398.741 143.464L391.98 134.394L391.975 134.388Z" fill="#FF984E"/>
<path d="M374.064 110.355L306.055 90.4377C306.386 92.0893 306.559 93.7821 306.559 95.4903V100.517L380.652 122.333C381.1 122.466 381.548 122.528 381.991 122.528C382.347 122.528 382.698 122.472 383.039 122.394L374.064 110.355Z" fill="#FF984E"/>
<path d="M516.221 141.374H506.931C500.43 141.374 494.682 137.315 492.31 131.393L491.48 131.048L460.935 160.447C459.743 161.595 458.481 162.639 457.147 163.581C451.379 167.671 443.427 166.349 439.176 160.669L382.53 84.9626C362.696 58.4548 331.718 42.8804 298.836 42.8804H289.693C289.693 42.8804 289.683 42.8804 289.678 42.8804H273.611C273.611 42.8804 273.601 42.8804 273.596 42.8804H272.053C271.62 42.8804 271.244 43.0193 270.943 43.2405C266.428 44.4342 263.093 48.5761 263.093 53.5154C263.093 59.3861 267.802 64.1453 273.611 64.1453H301.03C326.184 66.0645 349.755 78.9325 365.063 99.3897L413.427 164.296C415.056 166.483 413.513 169.616 410.8 169.616H297.492H270.994C266.637 169.616 263.103 173.187 263.103 177.591C263.103 181.995 266.637 185.566 270.994 185.566H285.483L320.539 212.321L292.473 240.686C290.049 243.135 292.493 247.236 295.772 246.207L358.628 226.485C360.207 225.992 361.846 225.739 363.5 225.739H407.262C424.601 225.739 441.238 218.814 453.548 206.471L517.81 142.043L516.221 141.379V141.374Z" fill="#FF984E"/>
<path d="M499.716 140.341L446.985 193.208C434.675 205.551 418.038 212.476 400.699 212.476H356.938C355.288 212.476 353.644 212.729 352.066 213.223L305.047 227.974L292.472 240.682C290.049 243.131 292.492 247.232 295.771 246.203L358.628 226.482C360.206 225.988 361.845 225.736 363.5 225.736H407.261C424.6 225.736 441.237 218.81 453.547 206.467L517.814 142.039H506.935C504.364 142.039 501.91 141.427 499.721 140.341H499.716Z" fill="#FF6C4E"/>
<path d="M557.799 121.282C557.631 121.215 557.463 121.154 557.29 121.092L487.351 97.7534L469.742 91.7387C465.165 90.1746 460.202 92.6546 458.654 97.2801C457.106 101.906 459.56 106.922 464.137 108.486L488.471 116.801L490.813 128.671C492.345 136.44 499.091 142.033 506.926 142.033H555.864C561.586 142.033 566.224 137.345 566.224 131.562C566.224 126.448 562.589 122.193 557.788 121.277L557.799 121.282Z" fill="#FFC195"/>
<path d="M565.481 135.467C565.96 134.264 566.23 132.946 566.23 131.567C566.23 126.289 562.361 121.931 557.331 121.21L557.29 121.092L469.747 91.7387V91.7593L469.681 91.7387C465.105 90.1746 460.141 92.6546 458.593 97.2801C458.395 97.8666 458.268 98.4635 458.196 99.0552L470.211 103.063L544.481 128.321L565.481 135.462V135.467Z" fill="#FF984E"/>
<path d="M509.323 119.019C509.007 119.811 508.834 120.676 508.839 121.581L508.86 124.308C508.885 127.997 511.869 130.966 515.519 130.94C518.273 130.92 520.62 129.196 521.597 126.767C521.913 125.98 522.086 125.116 522.081 124.21L522.06 121.483C522.035 117.794 519.052 114.826 515.402 114.856C512.647 114.877 510.301 116.601 509.323 119.029V119.019Z" fill="white"/>
<path d="M515.483 124.67C515.492 125.9 516.487 126.89 517.704 126.881C518.921 126.871 519.901 125.867 519.892 124.636L519.865 121.045C519.856 119.815 518.862 118.825 517.644 118.834C516.427 118.843 515.447 119.848 515.456 121.078L515.483 124.67Z" fill="black"/>
<circle cx="391.5" cy="163.5" r="6.5" fill="#002162"/>
</g>
<mask id="path-53-outside-1_109_265" maskUnits="userSpaceOnUse" x="130" y="96" width="324" height="128" fill="black">
<rect fill="white" x="130" y="96" width="324" height="128"/>
<path d="M184.68 120.8C210.24 120.8 223.68 137.24 223.68 160.28C223.68 184.76 211.56 200 187.92 200H153.72V120.8H184.68ZM184.2 182.72C195.12 182.72 201 176.72 201 160.28C201 145.04 193.68 138.08 180.84 138.08H176.16V182.72H184.2ZM233.876 200V120.8H255.716V200H233.876ZM341.03 120.8V200H320.99L300.71 171.92C297.47 167.36 293.87 161.96 290.87 157.16L290.03 157.52C290.63 160.04 290.63 165.44 290.63 171.92V200H269.15V120.8H286.91L309.59 151.88C312.95 156.56 317.87 164.6 319.43 167.48L320.15 167.12C319.55 164.6 319.55 158.36 319.55 151.88V120.8H341.03ZM390.822 119.84C414.342 119.84 430.542 135.44 430.542 160.28C430.542 185.24 414.342 200.84 390.822 200.84C367.302 200.84 351.102 185.24 351.102 160.28C351.102 135.44 367.302 119.84 390.822 119.84ZM390.822 181.52C400.542 181.52 407.862 174.08 407.862 160.28C407.862 146.6 400.542 139.16 390.822 139.16C381.102 139.16 373.782 146.6 373.782 160.28C373.782 174.08 381.102 181.52 390.822 181.52Z"/>
</mask>
<path d="M184.68 120.8C210.24 120.8 223.68 137.24 223.68 160.28C223.68 184.76 211.56 200 187.92 200H153.72V120.8H184.68ZM184.2 182.72C195.12 182.72 201 176.72 201 160.28C201 145.04 193.68 138.08 180.84 138.08H176.16V182.72H184.2ZM233.876 200V120.8H255.716V200H233.876ZM341.03 120.8V200H320.99L300.71 171.92C297.47 167.36 293.87 161.96 290.87 157.16L290.03 157.52C290.63 160.04 290.63 165.44 290.63 171.92V200H269.15V120.8H286.91L309.59 151.88C312.95 156.56 317.87 164.6 319.43 167.48L320.15 167.12C319.55 164.6 319.55 158.36 319.55 151.88V120.8H341.03ZM390.822 119.84C414.342 119.84 430.542 135.44 430.542 160.28C430.542 185.24 414.342 200.84 390.822 200.84C367.302 200.84 351.102 185.24 351.102 160.28C351.102 135.44 367.302 119.84 390.822 119.84ZM390.822 181.52C400.542 181.52 407.862 174.08 407.862 160.28C407.862 146.6 400.542 139.16 390.822 139.16C381.102 139.16 373.782 146.6 373.782 160.28C373.782 174.08 381.102 181.52 390.822 181.52Z" fill="white"/>
<path d="M153.72 200H130.72C130.72 212.703 141.017 223 153.72 223V200ZM153.72 120.8V97.8C141.017 97.8 130.72 108.097 130.72 120.8H153.72ZM176.16 138.08V115.08C163.457 115.08 153.16 125.377 153.16 138.08H176.16ZM176.16 182.72H153.16C153.16 195.423 163.457 205.72 176.16 205.72V182.72ZM184.68 120.8V143.8C192.337 143.8 195.558 146.108 196.988 147.633C198.636 149.391 200.68 153.125 200.68 160.28H223.68H246.68C246.68 144.395 242.004 128.389 230.542 116.167C218.862 103.712 202.583 97.8 184.68 97.8V120.8ZM223.68 160.28H200.68C200.68 169.033 198.499 172.862 197.323 174.212C196.579 175.065 194.546 177 187.92 177V200V223C204.934 223 220.781 217.315 232.007 204.428C242.801 192.038 246.68 176.007 246.68 160.28H223.68ZM187.92 200V177H153.72V200V223H187.92V200ZM153.72 200H176.72V120.8H153.72H130.72V200H153.72ZM153.72 120.8V143.8H184.68V120.8V97.8H153.72V120.8ZM184.2 182.72V205.72C193.924 205.72 206.018 202.864 214.677 192.005C222.355 182.377 224 170.392 224 160.28H201H178C178 163.119 177.736 164.592 177.603 165.12C177.484 165.595 177.628 164.686 178.713 163.325C179.918 161.813 181.518 160.709 183.026 160.117C184.315 159.61 184.913 159.72 184.2 159.72V182.72ZM201 160.28H224C224 149.334 221.386 137.148 212.473 127.691C203.331 117.989 191.292 115.08 180.84 115.08V138.08V161.08C182.029 161.08 182.18 161.248 181.666 161.064C181.391 160.966 180.966 160.78 180.464 160.458C179.955 160.133 179.451 159.721 178.997 159.239C178.544 158.759 178.223 158.296 178.01 157.922C177.802 157.556 177.732 157.335 177.732 157.337C177.748 157.386 178 158.244 178 160.28H201ZM180.84 138.08V115.08H176.16V138.08V161.08H180.84V138.08ZM176.16 138.08H153.16V182.72H176.16H199.16V138.08H176.16ZM176.16 182.72V205.72H184.2V182.72V159.72H176.16V182.72ZM233.876 200H210.876C210.876 212.703 221.174 223 233.876 223V200ZM233.876 120.8V97.8C221.174 97.8 210.876 108.097 210.876 120.8H233.876ZM255.716 120.8H278.716C278.716 108.097 268.419 97.8 255.716 97.8V120.8ZM255.716 200V223C268.419 223 278.716 212.703 278.716 200H255.716ZM233.876 200H256.876V120.8H233.876H210.876V200H233.876ZM233.876 120.8V143.8H255.716V120.8V97.8H233.876V120.8ZM255.716 120.8H232.716V200H255.716H278.716V120.8H255.716ZM255.716 200V177H233.876V200V223H255.716V200ZM341.03 120.8H364.03C364.03 108.097 353.732 97.8 341.03 97.8V120.8ZM341.03 200V223C353.732 223 364.03 212.703 364.03 200H341.03ZM320.99 200L302.344 213.466C306.668 219.453 313.604 223 320.99 223V200ZM300.71 171.92L281.961 185.242C281.995 185.29 282.029 185.338 282.064 185.386L300.71 171.92ZM290.87 157.16L310.374 144.97C304.362 135.351 292.235 131.551 281.81 136.02L290.87 157.16ZM290.03 157.52L280.97 136.38C270.683 140.788 265.063 151.96 267.655 162.847L290.03 157.52ZM290.63 200V223C303.332 223 313.63 212.703 313.63 200H290.63ZM269.15 200H246.15C246.15 212.703 256.447 223 269.15 223V200ZM269.15 120.8V97.8C256.447 97.8 246.15 108.097 246.15 120.8H269.15ZM286.91 120.8L305.489 107.242C301.159 101.309 294.255 97.8 286.91 97.8V120.8ZM309.59 151.88L328.273 138.466C328.239 138.418 328.204 138.37 328.169 138.322L309.59 151.88ZM319.43 167.48L299.206 178.435C305.116 189.346 318.616 193.601 329.716 188.052L319.43 167.48ZM320.15 167.12L330.436 187.692C339.991 182.914 344.999 172.186 342.524 161.793L320.15 167.12ZM319.55 120.8V97.8C306.847 97.8 296.55 108.097 296.55 120.8H319.55ZM341.03 120.8H318.03V200H341.03H364.03V120.8H341.03ZM341.03 200V177H320.99V200V223H341.03V200ZM320.99 200L339.635 186.534L319.355 158.454L300.71 171.92L282.064 185.386L302.344 213.466L320.99 200ZM300.71 171.92L319.459 158.598C316.485 154.412 313.136 149.39 310.374 144.97L290.87 157.16L271.366 169.35C274.603 174.53 278.455 180.308 281.961 185.242L300.71 171.92ZM290.87 157.16L281.81 136.02L280.97 136.38L290.03 157.52L299.09 178.66L299.93 178.3L290.87 157.16ZM290.03 157.52L267.655 162.847C267.43 161.901 267.422 161.447 267.465 161.932C267.496 162.293 267.535 162.929 267.565 163.932C267.627 165.984 267.63 168.568 267.63 171.92H290.63H313.63C313.63 168.792 313.632 165.436 313.544 162.538C313.472 160.173 313.314 156.015 312.404 152.193L290.03 157.52ZM290.63 171.92H267.63V200H290.63H313.63V171.92H290.63ZM290.63 200V177H269.15V200V223H290.63V200ZM269.15 200H292.15V120.8H269.15H246.15V200H269.15ZM269.15 120.8V143.8H286.91V120.8V97.8H269.15V120.8ZM286.91 120.8L268.33 134.358L291.01 165.438L309.59 151.88L328.169 138.322L305.489 107.242L286.91 120.8ZM309.59 151.88L290.906 165.294C292.163 167.045 293.932 169.745 295.675 172.536C297.449 175.377 298.769 177.628 299.206 178.435L319.43 167.48L339.653 156.525C337.653 152.832 332.223 143.967 328.273 138.466L309.59 151.88ZM319.43 167.48L329.716 188.052L330.436 187.692L320.15 167.12L309.864 146.548L309.144 146.908L319.43 167.48ZM320.15 167.12L342.524 161.793C342.784 162.885 342.782 163.405 342.728 162.728C342.689 162.251 342.647 161.478 342.616 160.343C342.552 158.045 342.55 155.215 342.55 151.88H319.55H296.55C296.55 155.025 296.548 158.555 296.634 161.627C296.699 163.981 296.839 168.516 297.775 172.447L320.15 167.12ZM319.55 151.88H342.55V120.8H319.55H296.55V151.88H319.55ZM319.55 120.8V143.8H341.03V120.8V97.8H319.55V120.8ZM390.822 119.84V142.84C397.402 142.84 401.16 144.926 403.221 146.991C405.264 149.038 407.542 152.974 407.542 160.28H430.542H453.542C453.542 142.746 447.72 126.462 435.783 114.499C423.864 102.554 407.763 96.84 390.822 96.84V119.84ZM430.542 160.28H407.542C407.542 167.675 405.246 171.641 403.204 173.691C401.148 175.756 397.4 177.84 390.822 177.84V200.84V223.84C407.764 223.84 423.876 218.124 435.8 206.149C447.739 194.159 453.542 177.845 453.542 160.28H430.542ZM390.822 200.84V177.84C384.244 177.84 380.496 175.756 378.44 173.691C376.399 171.641 374.102 167.675 374.102 160.28H351.102H328.102C328.102 177.845 333.906 194.159 345.844 206.149C357.768 218.124 373.88 223.84 390.822 223.84V200.84ZM351.102 160.28H374.102C374.102 152.974 376.38 149.038 378.423 146.991C380.484 144.926 384.243 142.84 390.822 142.84V119.84V96.84C373.882 96.84 357.78 102.554 345.861 114.499C333.924 126.462 328.102 142.746 328.102 160.28H351.102ZM390.822 181.52V204.52C401.923 204.52 412.782 200.071 420.517 190.965C427.976 182.182 430.862 171.095 430.862 160.28H407.862H384.862C384.862 163.265 384.088 162.798 385.457 161.185C386.137 160.385 387.095 159.635 388.239 159.127C389.358 158.629 390.293 158.52 390.822 158.52V181.52ZM407.862 160.28H430.862C430.862 149.479 427.952 138.417 420.486 129.664C412.757 120.602 401.916 116.16 390.822 116.16V139.16V162.16C390.293 162.16 389.364 162.051 388.255 161.559C387.121 161.055 386.168 160.313 385.488 159.516C384.112 157.903 384.862 157.401 384.862 160.28H407.862ZM390.822 139.16V116.16C379.729 116.16 368.887 120.602 361.158 129.664C353.692 138.417 350.782 149.479 350.782 160.28H373.782H396.782C396.782 157.401 397.532 157.903 396.156 159.516C395.476 160.313 394.523 161.055 393.39 161.559C392.28 162.051 391.351 162.16 390.822 162.16V139.16ZM373.782 160.28H350.782C350.782 171.095 353.668 182.182 361.127 190.965C368.862 200.071 379.722 204.52 390.822 204.52V181.52V158.52C391.351 158.52 392.287 158.629 393.406 159.127C394.55 159.635 395.508 160.385 396.187 161.185C397.556 162.798 396.782 163.265 396.782 160.28H373.782Z" fill="#002162" mask="url(#path-53-outside-1_109_265)"/>
<mask id="path-55-outside-2_109_265" maskUnits="userSpaceOnUse" x="147" y="202" width="277" height="127" fill="black">
<rect fill="white" x="147" y="202" width="277" height="127"/>
<path d="M238.64 287.72L239.84 304.88C239.84 304.88 236.6 305.96 229.16 305.96C203.24 305.96 209.84 280.88 194.48 280.88H193.16V305H170.72V225.8H200.36C222.92 225.8 234.32 234.68 234.32 254.48C234.32 265.52 229.52 272.84 220.04 276.92C227.12 279.32 227.24 287.96 236.12 287.96C237.44 287.96 238.64 287.72 238.64 287.72ZM193.16 265.76H197.48C206.72 265.76 212.48 261.8 212.48 254.72C212.48 247.04 207.32 242.96 198.92 242.96H193.16V265.76ZM293.552 225.8H315.992V273.2C315.992 293.36 302.072 305.96 281.552 305.96C260.672 305.96 246.752 293.36 246.752 273.2L246.872 225.8H269.312V273.2C269.312 281.72 274.352 286.64 281.552 286.64C288.632 286.64 293.552 281.72 293.552 273.2V225.8ZM400.452 225.8V305H380.412L360.132 276.92C356.892 272.36 353.292 266.96 350.292 262.16L349.452 262.52C350.052 265.04 350.052 270.44 350.052 276.92V305H328.572V225.8H346.332L369.012 256.88C372.372 261.56 377.292 269.6 378.852 272.48L379.572 272.12C378.972 269.6 378.972 263.36 378.972 256.88V225.8H400.452Z"/>
</mask>
<path d="M238.64 287.72L239.84 304.88C239.84 304.88 236.6 305.96 229.16 305.96C203.24 305.96 209.84 280.88 194.48 280.88H193.16V305H170.72V225.8H200.36C222.92 225.8 234.32 234.68 234.32 254.48C234.32 265.52 229.52 272.84 220.04 276.92C227.12 279.32 227.24 287.96 236.12 287.96C237.44 287.96 238.64 287.72 238.64 287.72ZM193.16 265.76H197.48C206.72 265.76 212.48 261.8 212.48 254.72C212.48 247.04 207.32 242.96 198.92 242.96H193.16V265.76ZM293.552 225.8H315.992V273.2C315.992 293.36 302.072 305.96 281.552 305.96C260.672 305.96 246.752 293.36 246.752 273.2L246.872 225.8H269.312V273.2C269.312 281.72 274.352 286.64 281.552 286.64C288.632 286.64 293.552 281.72 293.552 273.2V225.8ZM400.452 225.8V305H380.412L360.132 276.92C356.892 272.36 353.292 266.96 350.292 262.16L349.452 262.52C350.052 265.04 350.052 270.44 350.052 276.92V305H328.572V225.8H346.332L369.012 256.88C372.372 261.56 377.292 269.6 378.852 272.48L379.572 272.12C378.972 269.6 378.972 263.36 378.972 256.88V225.8H400.452Z" fill="white"/>
<path d="M238.64 287.72L261.584 286.116C261.123 279.522 257.847 273.445 252.592 269.435C247.337 265.425 240.611 263.87 234.129 265.167L238.64 287.72ZM239.84 304.88L247.113 326.7C257.069 323.381 263.516 313.744 262.784 303.276L239.84 304.88ZM193.16 280.88V257.88C180.457 257.88 170.16 268.177 170.16 280.88H193.16ZM193.16 305V328C205.863 328 216.16 317.703 216.16 305H193.16ZM170.72 305H147.72C147.72 317.703 158.017 328 170.72 328V305ZM170.72 225.8V202.8C158.017 202.8 147.72 213.097 147.72 225.8H170.72ZM220.04 276.92L210.948 255.794C202.202 259.558 196.679 268.321 197.058 277.835C197.437 287.349 203.639 295.646 212.656 298.703L220.04 276.92ZM193.16 265.76H170.16C170.16 278.463 180.457 288.76 193.16 288.76V265.76ZM193.16 242.96V219.96C180.457 219.96 170.16 230.257 170.16 242.96H193.16ZM238.64 287.72L215.696 289.324L216.896 306.484L239.84 304.88L262.784 303.276L261.584 286.116L238.64 287.72ZM239.84 304.88C232.567 283.06 232.574 283.058 232.581 283.055C232.584 283.055 232.591 283.052 232.596 283.051C232.606 283.047 232.615 283.044 232.625 283.041C232.644 283.035 232.663 283.028 232.682 283.022C232.719 283.01 232.756 282.998 232.792 282.986C232.864 282.963 232.933 282.942 232.999 282.921C233.13 282.881 233.249 282.845 233.354 282.815C233.565 282.755 233.724 282.714 233.827 282.689C234.035 282.639 234.019 282.652 233.763 282.692C233.253 282.771 231.765 282.96 229.16 282.96V305.96V328.96C233.995 328.96 237.847 328.609 240.817 328.148C242.301 327.918 243.56 327.661 244.608 327.408C245.131 327.282 245.601 327.157 246.018 327.038C246.227 326.978 246.422 326.92 246.605 326.863C246.696 326.835 246.784 326.807 246.869 326.78C246.911 326.766 246.953 326.753 246.993 326.739C247.014 326.733 247.034 326.726 247.054 326.719C247.064 326.716 247.074 326.713 247.084 326.71C247.089 326.708 247.096 326.705 247.099 326.705C247.106 326.702 247.113 326.7 239.84 304.88ZM229.16 305.96V282.96C226.64 282.96 227.11 282.443 228.404 283.375C229.278 284.004 229.187 284.431 227.929 282.185C227.625 281.641 227.314 281.06 226.894 280.271C226.511 279.553 225.998 278.585 225.46 277.62C224.417 275.749 222.769 272.933 220.451 270.133C214.881 263.403 206.261 257.88 194.48 257.88V280.88V303.88C190.379 303.88 186.694 301.492 185.016 299.465C184.645 299.016 184.682 298.943 185.278 300.011C185.559 300.516 185.852 301.066 186.291 301.891C186.693 302.645 187.218 303.631 187.791 304.655C190.043 308.679 194.122 315.376 201.529 320.708C209.355 326.342 218.72 328.96 229.16 328.96V305.96ZM194.48 280.88V257.88H193.16V280.88V303.88H194.48V280.88ZM193.16 280.88H170.16V305H193.16H216.16V280.88H193.16ZM193.16 305V282H170.72V305V328H193.16V305ZM170.72 305H193.72V225.8H170.72H147.72V305H170.72ZM170.72 225.8V248.8H200.36V225.8V202.8H170.72V225.8ZM200.36 225.8V248.8C209.29 248.8 211.424 250.673 211.131 250.43C210.836 250.186 210.717 249.897 210.78 250.057C210.909 250.385 211.32 251.672 211.32 254.48H234.32H257.32C257.32 240.089 252.998 225.375 240.469 215C228.836 205.367 213.99 202.8 200.36 202.8V225.8ZM234.32 254.48H211.32C211.32 255.584 211.199 256.139 211.161 256.287C211.13 256.404 211.167 256.218 211.373 255.896C211.582 255.569 211.796 255.371 211.866 255.314C211.91 255.279 211.674 255.481 210.948 255.794L220.04 276.92L229.132 298.046C237.266 294.546 244.792 288.999 250.097 280.724C255.362 272.512 257.32 263.361 257.32 254.48H234.32ZM220.04 276.92L212.656 298.703C210.188 297.866 208.608 296.503 208.014 295.908C207.801 295.694 207.773 295.635 208.079 296.011C208.235 296.202 208.396 296.404 208.674 296.752C208.919 297.06 209.269 297.498 209.647 297.957C211.062 299.676 214.077 303.239 218.761 306.135C223.922 309.326 229.814 310.96 236.12 310.96V287.96V264.96C237.986 264.96 240.533 265.514 242.953 267.01C244.896 268.211 245.773 269.464 245.163 268.723C245.034 268.567 244.885 268.381 244.631 268.062C244.409 267.784 244.069 267.357 243.716 266.925C243.005 266.054 241.926 264.768 240.567 263.407C237.682 260.517 233.432 257.174 227.424 255.137L220.04 276.92ZM236.12 287.96V310.96C238.077 310.96 239.747 310.789 240.818 310.651C241.389 310.577 241.879 310.501 242.265 310.436C242.459 310.403 242.632 310.372 242.779 310.345C242.853 310.331 242.921 310.318 242.983 310.306C243.014 310.3 243.044 310.295 243.072 310.289C243.085 310.286 243.099 310.284 243.112 310.281C243.119 310.28 243.125 310.278 243.132 310.277C243.135 310.276 243.138 310.276 243.141 310.275C243.143 310.275 243.145 310.274 243.146 310.274C243.148 310.274 243.151 310.273 238.64 287.72C234.129 265.167 234.132 265.166 234.134 265.166C234.135 265.166 234.137 265.165 234.139 265.165C234.142 265.164 234.145 265.164 234.148 265.163C234.154 265.162 234.16 265.161 234.166 265.159C234.178 265.157 234.19 265.155 234.202 265.152C234.225 265.148 234.247 265.143 234.269 265.139C234.313 265.131 234.354 265.123 234.392 265.116C234.469 265.102 234.538 265.09 234.599 265.079C234.718 265.059 234.826 265.043 234.932 265.029C235.073 265.011 235.483 264.96 236.12 264.96V287.96ZM193.16 265.76V288.76H197.48V265.76V242.76H193.16V265.76ZM197.48 265.76V288.76C204.953 288.76 214.051 287.22 221.915 281.538C230.726 275.171 235.48 265.354 235.48 254.72H212.48H189.48C189.48 253.314 189.784 251.303 190.869 249.135C191.964 246.948 193.495 245.321 194.975 244.252C197.649 242.32 199.247 242.76 197.48 242.76V265.76ZM212.48 254.72H235.48C235.48 245.386 232.109 235.512 223.707 228.402C215.883 221.782 206.516 219.96 198.92 219.96V242.96V265.96C199.724 265.96 197.137 266.178 193.993 263.518C192.376 262.149 191.12 260.41 190.341 258.558C189.593 256.779 189.48 255.372 189.48 254.72H212.48ZM198.92 242.96V219.96H193.16V242.96V265.96H198.92V242.96ZM193.16 242.96H170.16V265.76H193.16H216.16V242.96H193.16ZM293.552 225.8V202.8C280.85 202.8 270.552 213.097 270.552 225.8H293.552ZM315.992 225.8H338.992C338.992 213.097 328.695 202.8 315.992 202.8V225.8ZM246.752 273.2L223.752 273.142C223.752 273.161 223.752 273.181 223.752 273.2L246.752 273.2ZM246.872 225.8V202.8C234.192 202.8 223.904 213.062 223.872 225.742L246.872 225.8ZM269.312 225.8H292.312C292.312 213.097 282.015 202.8 269.312 202.8V225.8ZM293.552 225.8V248.8H315.992V225.8V202.8H293.552V225.8ZM315.992 225.8H292.992V273.2H315.992H338.992V225.8H315.992ZM315.992 273.2H292.992C292.992 277.752 291.571 279.578 290.732 280.365C289.728 281.307 287.128 282.96 281.552 282.96V305.96V328.96C296.497 328.96 311.116 324.313 322.202 313.915C333.453 303.362 338.992 288.808 338.992 273.2H315.992ZM281.552 305.96V282.96C275.699 282.96 273.006 281.248 271.995 280.306C271.166 279.535 269.752 277.746 269.752 273.2H246.752H223.752C223.752 288.814 229.298 303.405 240.65 313.974C251.818 324.372 266.526 328.96 281.552 328.96V305.96ZM246.752 273.2L269.752 273.258L269.872 225.858L246.872 225.8L223.872 225.742L223.752 273.142L246.752 273.2ZM246.872 225.8V248.8H269.312V225.8V202.8H246.872V225.8ZM269.312 225.8H246.312V273.2H269.312H292.312V225.8H269.312ZM269.312 273.2H246.312C246.312 281.983 248.978 291.435 255.984 298.878C263.091 306.43 272.545 309.64 281.552 309.64V286.64V263.64C283.36 263.64 286.693 264.39 289.481 267.352C292.167 270.205 292.312 272.937 292.312 273.2H269.312ZM281.552 286.64V309.64C290.631 309.64 300.084 306.337 307.12 298.702C314.004 291.232 316.552 281.836 316.552 273.2H293.552H270.552C270.552 273.084 270.64 270.408 273.294 267.528C276.1 264.483 279.553 263.64 281.552 263.64V286.64ZM293.552 273.2H316.552V225.8H293.552H270.552V273.2H293.552ZM400.452 225.8H423.452C423.452 213.097 413.154 202.8 400.452 202.8V225.8ZM400.452 305V328C413.154 328 423.452 317.703 423.452 305H400.452ZM380.412 305L361.766 318.466C366.09 324.453 373.026 328 380.412 328V305ZM360.132 276.92L341.382 290.242C341.417 290.29 341.451 290.338 341.486 290.386L360.132 276.92ZM350.292 262.16L369.796 249.97C363.784 240.351 351.657 236.551 341.231 241.02L350.292 262.16ZM349.452 262.52L340.391 241.38C330.105 245.788 324.485 256.96 327.077 267.847L349.452 262.52ZM350.052 305V328C362.754 328 373.052 317.703 373.052 305H350.052ZM328.572 305H305.572C305.572 317.703 315.869 328 328.572 328V305ZM328.572 225.8V202.8C315.869 202.8 305.572 213.097 305.572 225.8H328.572ZM346.332 225.8L364.911 212.242C360.581 206.309 353.677 202.8 346.332 202.8V225.8ZM369.012 256.88L387.695 243.466C387.66 243.418 387.626 243.37 387.591 243.322L369.012 256.88ZM378.852 272.48L358.628 283.435C364.538 294.346 378.038 298.601 389.137 293.052L378.852 272.48ZM379.572 272.12L389.857 292.692C399.413 287.914 404.421 277.186 401.946 266.793L379.572 272.12ZM378.972 225.8V202.8C366.269 202.8 355.972 213.097 355.972 225.8H378.972ZM400.452 225.8H377.452V305H400.452H423.452V225.8H400.452ZM400.452 305V282H380.412V305V328H400.452V305ZM380.412 305L399.057 291.534L378.777 263.454L360.132 276.92L341.486 290.386L361.766 318.466L380.412 305ZM360.132 276.92L378.881 263.598C375.907 259.412 372.558 254.39 369.796 249.97L350.292 262.16L330.788 274.35C334.025 279.53 337.877 285.308 341.382 290.242L360.132 276.92ZM350.292 262.16L341.231 241.02L340.391 241.38L349.452 262.52L358.512 283.66L359.352 283.3L350.292 262.16ZM349.452 262.52L327.077 267.847C326.852 266.901 326.844 266.447 326.886 266.932C326.918 267.293 326.957 267.929 326.987 268.932C327.049 270.984 327.052 273.568 327.052 276.92H350.052H373.052C373.052 273.792 373.054 270.436 372.966 267.538C372.894 265.173 372.736 261.015 371.826 257.193L349.452 262.52ZM350.052 276.92H327.052V305H350.052H373.052V276.92H350.052ZM350.052 305V282H328.572V305V328H350.052V305ZM328.572 305H351.572V225.8H328.572H305.572V305H328.572ZM328.572 225.8V248.8H346.332V225.8V202.8H328.572V225.8ZM346.332 225.8L327.752 239.358L350.432 270.438L369.012 256.88L387.591 243.322L364.911 212.242L346.332 225.8ZM369.012 256.88L350.328 270.294C351.585 272.045 353.354 274.745 355.097 277.536C356.871 280.377 358.191 282.628 358.628 283.435L378.852 272.48L399.075 261.525C397.075 257.832 391.645 248.967 387.695 243.466L369.012 256.88ZM378.852 272.48L389.137 293.052L389.857 292.692L379.572 272.12L369.286 251.548L368.566 251.908L378.852 272.48ZM379.572 272.12L401.946 266.793C402.206 267.885 402.204 268.405 402.149 267.728C402.111 267.251 402.069 266.478 402.038 265.343C401.973 263.045 401.972 260.215 401.972 256.88H378.972H355.972C355.972 260.025 355.97 263.555 356.056 266.627C356.121 268.981 356.261 273.516 357.197 277.447L379.572 272.12ZM378.972 256.88H401.972V225.8H378.972H355.972V256.88H378.972ZM378.972 225.8V248.8H400.452V225.8V202.8H378.972V225.8Z" fill="#002162" mask="url(#path-55-outside-2_109_265)"/>
<defs>
<clipPath id="clip0_109_265">
<rect width="307" height="319" fill="white" transform="translate(259)"/>
</clipPath>
</defs>
</svg>
