<svg width="74" height="78" viewBox="0 0 74 78" fill="none" xmlns="http://www.w3.org/2000/svg">
<g clip-path="url(#clip0_48_338)">
<path d="M55.7628 31.4321L55.1696 28.4228L50.2943 26.4501C49.5095 26.1331 48.8926 25.4902 48.6004 24.6888L48.2111 23.6207L58.6295 25.3682L55.3735 20.7775C50.5281 14.296 42.9602 10.4878 34.9272 10.4878H28.3853C28.2535 10.4878 28.1428 10.5394 28.0619 10.6199C27.0371 10.9621 26.2959 11.9358 26.2959 13.0882C26.2959 14.5237 27.4463 15.6874 28.8654 15.6874H32.053L35.1796 19.1219C36.2293 20.2755 36.8126 21.7852 36.8126 23.3528V31.0244L42.9913 39.2899C44.0298 40.6788 45.9724 41.0009 47.3815 40.002C47.7062 39.7718 48.0158 39.5164 48.3056 39.2358L55.7678 32.0472L55.8623 31.8258C55.8238 31.6975 55.7889 31.5679 55.7616 31.4346L55.7628 31.4321Z" fill="#FF6C4E"/>
<path d="M55.6065 31.4635L55.0307 28.5397L54.5568 28.3485L48.3072 34.3696C48.0162 34.6501 47.7078 34.9055 47.3819 35.1358C45.9728 36.1359 44.0302 35.8126 42.9917 34.4237L36.813 26.1582V31.0219L42.9917 39.2874C44.0302 40.6763 45.9728 40.9983 47.3819 39.9994C47.7065 39.7692 48.0162 39.5138 48.3072 39.2333L55.7694 32.0447C55.7023 31.8572 55.6463 31.6648 55.6065 31.4647V31.4635Z" fill="#FF5D4E"/>
<path d="M24.4939 26.2689L23.0425 6.47576C22.7291 4.14456 24.2638 1.97063 26.5435 1.51143L27.4427 1.33027C28.2984 1.15792 29.1379 1.68882 29.3605 2.54179L33.252 26.2676H24.4939V26.2689Z" fill="#008C46"/>
<path d="M23.8658 17.7125L24.6792 17.6496C25.2301 17.6068 25.6418 17.1212 25.5995 16.5639C25.5572 16.0065 25.0771 15.5901 24.5262 15.6329L23.7178 15.6958L23.8658 17.7125Z" fill="#00763B"/>
<path d="M24.0884 20.7423L24.9018 20.6794C25.4528 20.6366 25.8644 20.151 25.8221 19.5937C25.7799 19.0363 25.2998 18.6199 24.7488 18.6627L23.9404 18.7256L24.0884 20.7423Z" fill="#00763B"/>
<path d="M23.4234 11.6715L24.2368 11.6086C24.7877 11.5658 25.1994 11.0802 25.1571 10.5229C25.1148 9.96553 24.6348 9.54911 24.0838 9.59189L23.2754 9.65479L23.4234 11.6715Z" fill="#00763B"/>
<path d="M23.6431 14.6832L24.4565 14.6203C25.0075 14.5775 25.4191 14.0919 25.3768 13.5346C25.3345 12.9773 24.8545 12.5608 24.3035 12.6036L23.4951 12.6665L23.6431 14.6832Z" fill="#00763B"/>
<path d="M24.3111 23.773L25.1245 23.7101C25.6754 23.6674 26.0871 23.1817 26.0448 22.6244C26.0025 22.0671 25.5224 21.6507 24.9715 21.6935L24.1631 21.7564L24.3111 23.773Z" fill="#00763B"/>
<path d="M24.4964 26.2687L24.3857 24.7666L25.1941 24.7037C25.7451 24.6609 26.2252 25.0773 26.2675 25.6347C26.2849 25.8674 26.2239 26.0876 26.1058 26.2687H24.4964Z" fill="#00763B"/>
<path d="M28.2425 4.54186C28.1306 4.82996 28.0709 5.14447 28.0771 5.47409L28.0945 6.46544C28.1181 7.80528 29.2101 8.87338 30.5346 8.84947C31.5346 8.83186 32.3803 8.1978 32.726 7.31212C32.838 7.02402 32.8977 6.70951 32.8915 6.38115L32.874 5.3898C32.8504 4.04996 31.7584 2.98186 30.4339 3.00576C29.434 3.02338 28.5883 3.65744 28.2425 4.54312V4.54186Z" fill="white"/>
<path d="M30.4933 6.58173C30.501 7.02842 30.8653 7.38422 31.3069 7.37642C31.7485 7.36863 32.1002 7.00019 32.0925 6.55349L32.07 5.24908C32.0623 4.80238 31.698 4.44659 31.2564 4.45438C30.8149 4.46218 30.4631 4.83062 30.4708 5.27731L30.4933 6.58173Z" fill="black"/>
<path d="M35.9686 4.00348C35.0544 4.01983 34.3269 4.78096 34.343 5.70564C34.3443 5.80754 34.3555 5.90693 34.3754 6.0038L34.5943 8.0557C34.6751 8.81054 35.3119 9.37793 36.0618 9.36535C36.8105 9.35151 37.4249 8.76399 37.4809 8.0079L37.6301 5.94593C37.6451 5.84906 37.6538 5.74841 37.6513 5.64651C37.6351 4.72183 36.8814 3.98587 35.9686 4.00222V4.00348Z" fill="#00BF5F"/>
<path d="M45.5636 17.3719C45.5723 17.0938 45.2016 16.9957 45.0748 17.2435L44.4629 18.4387L45.525 18.7167L45.5648 17.3706L45.5636 17.3719Z" fill="#FCF7F1"/>
<path d="M43.7476 16.8947L43.1357 18.0899L44.1979 18.3679L44.2377 17.0218C44.2464 16.7437 43.8757 16.6456 43.7489 16.8934L43.7476 16.8947Z" fill="#FCF7F1"/>
<path d="M42.4205 16.5475L41.8086 17.7427L42.8707 18.0207L42.9105 16.6746C42.9192 16.3966 42.5486 16.2984 42.4217 16.5463L42.4205 16.5475Z" fill="#FCF7F1"/>
<path d="M41.0938 16.1994L40.4819 17.3946L41.5441 17.6726L41.5838 16.3265C41.5926 16.0484 41.2219 15.9503 41.0951 16.1981L41.0938 16.1994Z" fill="#FCF7F1"/>
<path d="M39.7667 15.8508L39.1548 17.0459L40.2169 17.324L40.2567 15.9778C40.2654 15.6998 39.8948 15.6017 39.7679 15.8495L39.7667 15.8508Z" fill="#FCF7F1"/>
<path d="M38.4395 15.5036L37.8276 16.6988L38.8898 16.9768L38.9296 15.6307C38.9383 15.3526 38.5676 15.2545 38.4408 15.5023L38.4395 15.5036Z" fill="#FCF7F1"/>
<path d="M37.1124 15.155L36.5005 16.3501L37.5626 16.6282L37.6024 15.282C37.6111 15.004 37.2405 14.9059 37.1136 15.1537L37.1124 15.155Z" fill="#FCF7F1"/>
<path d="M35.7867 14.8068L35.1748 16.002L36.2369 16.28L36.2767 14.9339C36.2854 14.6558 35.9148 14.5577 35.788 14.8056L35.7867 14.8068Z" fill="#FCF7F1"/>
<path d="M45.8779 19.556C45.5919 20.6719 44.4651 21.3424 43.362 21.0531L29.838 17.5053C29.838 17.5053 29.828 17.5028 29.8231 17.5015C29.1241 17.3229 28.4935 16.8713 28.0981 16.1932L24.9677 10.8086C24.1841 9.46125 24.6294 7.72764 25.9614 6.93506L34.3787 15.5528C34.569 15.7478 34.8078 15.8862 35.069 15.9554L45.7063 18.7458C45.9028 18.7973 46.0222 19.0012 45.97 19.1999L45.8779 19.5572V19.556Z" fill="#00BF5F"/>
<path d="M45.1309 13.5181L45.3373 15.453C45.3721 15.7851 45.8286 15.8405 45.9393 15.5247L46.5835 13.6892L45.1309 13.5193V13.5181Z" fill="#FCF7F1"/>
<path d="M33.1962 14.0279C33.231 14.36 33.6875 14.4154 33.7981 14.0996L34.4424 12.2641L32.9897 12.0942L33.1962 14.0291V14.0279Z" fill="#FCF7F1"/>
<path d="M34.9311 14.2315C34.9659 14.5636 35.4223 14.619 35.533 14.3032L36.1772 12.4677L34.7246 12.2979L34.9311 14.2328V14.2315Z" fill="#FCF7F1"/>
<path d="M36.665 14.4356C36.6998 14.7677 37.1562 14.8231 37.2669 14.5073L37.9111 12.6718L36.4585 12.502L36.665 14.4369V14.4356Z" fill="#FCF7F1"/>
<path d="M38.3983 14.6382C38.4332 14.9704 38.8896 15.0257 39.0003 14.7099L39.6445 12.8744L38.1919 12.7046L38.3983 14.6395V14.6382Z" fill="#FCF7F1"/>
<path d="M40.1337 14.8418C40.1685 15.174 40.625 15.2293 40.7356 14.9136L41.3799 13.078L39.9272 12.9082L40.1337 14.8431V14.8418Z" fill="#FCF7F1"/>
<path d="M41.8671 15.0455C41.9019 15.3776 42.3584 15.4329 42.469 15.1172L43.1133 13.2817L41.6606 13.1118L41.8671 15.0467V15.0455Z" fill="#FCF7F1"/>
<path d="M43.602 15.2481C43.6368 15.5802 44.0932 15.6356 44.2039 15.3198L44.8481 13.4843L43.3955 13.3145L43.602 15.2494V15.2481Z" fill="#FCF7F1"/>
<path d="M41.3712 5.83032C40.1723 5.61142 39.0243 6.41658 38.8079 7.6281C38.5915 8.84087 39.3875 10.0008 40.5852 10.221C40.717 10.2449 40.8488 10.2562 40.9782 10.2562L43.6882 10.5003C44.6844 10.5896 45.5848 9.89639 45.7627 8.9C45.9405 7.90613 45.3398 6.93993 44.3772 6.67071L41.7505 5.93726C41.6286 5.89197 41.5018 5.85548 41.37 5.83032H41.3712Z" fill="#00BF5F"/>
<path d="M32.3929 0.272137L44.6134 3.30156C47.8334 4.10043 49.883 7.29465 49.2935 10.5933L49.0609 11.8941C48.8395 13.1321 47.704 13.9813 46.4703 13.8328L30.3146 11.9017C30.0746 11.8878 29.8346 11.8589 29.5921 11.8149C26.3933 11.2299 24.269 8.13127 24.8474 4.89678C25.4269 1.65978 28.4889 -0.488992 31.6877 0.0960078C31.9302 0.14004 32.1653 0.199169 32.3941 0.270879L32.3929 0.272137ZM28.0934 6.46433C28.117 7.80417 29.209 8.87227 30.5335 8.84836C31.5335 8.83075 32.3792 8.19669 32.7249 7.31101C32.8369 7.02291 32.8966 6.70839 32.8903 6.38004L32.8729 5.38869C32.8493 4.04885 31.7573 2.98075 30.4328 3.00465C29.4329 3.02227 28.5872 3.65633 28.2414 4.54201C28.1295 4.8301 28.0698 5.14462 28.076 5.47423L28.0934 6.46559V6.46433ZM34.3753 6.00262L34.5942 8.05452C34.6751 8.80936 35.3118 9.37675 36.0618 9.36417C36.8105 9.35033 37.4249 8.76281 37.4808 8.00672L37.6301 5.94475C37.645 5.84788 37.6537 5.74723 37.6512 5.64533C37.6351 4.72065 36.8814 3.98469 35.9685 4.00104C35.0544 4.01739 34.3268 4.77852 34.343 5.7032C34.3442 5.8051 34.3554 5.90449 34.3753 6.00136V6.00262ZM40.5851 10.2209C40.7169 10.2448 40.8488 10.2561 40.9781 10.2561L43.6881 10.5002C44.6843 10.5895 45.5848 9.89633 45.7626 8.89994C45.9405 7.90607 45.3398 6.93988 44.3771 6.67065L41.7504 5.9372C41.6286 5.89191 41.5017 5.85543 41.3699 5.83027C40.1709 5.61136 39.023 6.41652 38.8066 7.62804C38.5902 8.84081 39.3862 10.0007 40.5839 10.2209H40.5851Z" fill="#00D86C"/>
<path d="M27.9873 1.75682C27.8965 1.73291 27.8132 1.67379 27.7622 1.58572C27.659 1.40833 27.7162 1.17937 27.8928 1.07369C28.9873 0.418237 30.2807 0.184237 31.5343 0.413205C31.7433 0.450947 31.9535 0.503785 32.1587 0.567947L44.6143 3.65524C44.6143 3.65524 44.618 3.65524 44.6193 3.65524C44.8145 3.70682 44.9339 3.90685 44.8854 4.10562C44.8369 4.30566 44.6367 4.42895 44.4389 4.37988L31.9734 1.29008C31.9659 1.28882 31.9584 1.2863 31.951 1.28379C31.7706 1.22717 31.5853 1.18062 31.4038 1.14791C30.3255 0.950398 29.2124 1.15169 28.2696 1.7153C28.1813 1.76814 28.0806 1.77946 27.9886 1.75556L27.9873 1.75682Z" fill="#00EC76"/>
<path d="M48.2199 9.39823L48.1415 8.74277L48.0632 8.08732C48.0246 7.76148 47.7311 7.52874 47.409 7.56774C47.0869 7.608 46.8568 7.90365 46.8953 8.22949L46.9737 8.88494L47.052 9.54039C47.0906 9.86623 47.3841 10.099 47.7062 10.06C48.0283 10.0197 48.2584 9.72406 48.2199 9.39823Z" fill="#00763B"/>
<path d="M14.2511 51.898L10.923 49.3555L3.83016 56.5302C3.24437 57.1228 3.82145 58.1154 4.61742 57.8851L9.81234 56.3868L14.2499 51.898H14.2511Z" fill="#FF6C4E"/>
<path d="M8.24631 38.0041L3.70557 41.6349H36.0604C36.4272 41.6349 36.7581 41.4285 36.9222 41.0951C37.0864 40.763 37.0503 40.3718 36.8302 40.0749L25.0151 24.2044C21.2467 19.1646 15.5033 15.9993 9.25619 15.5225H5.68678L8.96019 19.118C10.0099 20.2717 10.5919 21.7813 10.5919 23.3489V33.1027C10.5919 35.0137 9.72755 36.819 8.24631 38.0028V38.0041Z" fill="#FED2A4"/>
<path d="M24.5364 21.2612L33.1179 26.0419C33.1179 26.0419 35.8406 29.6274 37.0843 31.829C38.328 34.0306 40.2691 38.8112 36.9733 43.4661C33.6775 48.1209 15.9548 41.5161 13.7162 40.5096C11.4775 39.5032 9.05232 36.7354 7.80862 34.5338C6.56492 32.3322 5.69434 28.9983 5.69434 28.9983L10.2338 33.0241C10.2338 33.0241 13.2809 34.408 15.5817 33.5274C17.8826 32.6467 24.5364 21.2612 24.5364 21.2612Z" fill="#008C46"/>
<path d="M8.24631 38.0041L3.70557 41.6349H36.0604C36.4272 41.6349 36.7581 41.4285 36.9222 41.0951C37.0864 40.763 37.0503 40.3718 36.8302 40.0749L25.0151 24.2044C21.2467 19.1646 15.5033 15.9993 9.25619 15.5225H5.68678L8.96019 19.118C10.0099 20.2717 10.5919 21.7813 10.5919 23.3489V33.1027C10.5919 35.0137 9.72755 36.819 8.24631 38.0028V38.0041Z" fill="#FFD6B8"/>
<path d="M36.8304 40.0749L25.0153 24.2044C21.2469 19.1646 15.5035 15.9993 9.25642 15.5225H5.68701L8.60473 18.728C13.4539 19.9219 17.7907 22.7702 20.8365 26.8438L31.8482 41.6349H36.0618C36.4287 41.6349 36.7595 41.4285 36.9237 41.0951C37.0879 40.763 37.0531 40.3718 36.8317 40.0749H36.8304Z" fill="#FFC195"/>
<path d="M31.4589 32.8599L10.3422 34.8627C10.0661 35.8151 9.56609 36.6907 8.8833 37.4153L33.1118 35.0791L31.4601 32.8611L31.4589 32.8599Z" fill="#FF984E"/>
<path d="M27.0833 26.9832L10.4688 22.1133C10.5496 22.5171 10.5919 22.931 10.5919 23.3487V24.5778L28.6926 29.912C28.8021 29.9447 28.9115 29.9598 29.0197 29.9598C29.1068 29.9598 29.1926 29.946 29.2759 29.9271L27.0833 26.9832Z" fill="#FF984E"/>
<path d="M61.8123 34.568H59.5425C57.9543 34.568 56.5502 33.5754 55.9706 32.1273L55.7679 32.0431L48.3057 39.2316C48.0147 39.5122 47.7063 39.7676 47.3804 39.9978C45.9713 40.998 44.0286 40.6746 42.9901 39.2857L29.1515 20.7746C24.3061 14.293 16.7382 10.4849 8.70514 10.4849H6.47146C6.47146 10.4849 6.46898 10.4849 6.46773 10.4849H2.54262C2.54262 10.4849 2.54014 10.4849 2.53889 10.4849H2.16205C2.05634 10.4849 1.9643 10.5188 1.89093 10.5729C0.787766 10.8648 -0.0268555 11.8775 -0.0268555 13.0853C-0.0268555 14.5207 1.12356 15.6844 2.54262 15.6844H9.24118C15.3863 16.1537 21.1446 19.3001 24.8844 24.3022L36.6995 40.1727C37.0975 40.7073 36.7207 41.4735 36.0578 41.4735H8.37681H1.90336C0.838758 41.4735 -0.0243681 42.3466 -0.0243681 43.4235C-0.0243681 44.5004 0.838758 45.3735 1.90336 45.3735H5.44293L14.007 51.9154L7.15052 58.8512C6.55852 59.45 7.1555 60.4527 7.95644 60.2011L23.3124 55.3789C23.6979 55.2581 24.0984 55.1965 24.5026 55.1965H35.1934C39.4294 55.1965 43.4938 53.5031 46.5011 50.485L62.2003 34.7315L61.8123 34.5693V34.568Z" fill="#FF984E"/>
<path d="M57.7801 34.3154L44.8979 47.242C41.8906 50.2601 37.8262 51.9535 33.5902 51.9535H22.8993C22.4964 51.9535 22.0947 52.0151 21.7091 52.1359L10.2223 55.7428L7.1504 58.8502C6.5584 59.449 7.15537 60.4517 7.95631 60.2001L23.3122 55.3779C23.6978 55.2572 24.0983 55.1955 24.5025 55.1955H35.1933C39.4293 55.1955 43.4937 53.5022 46.501 50.4841L62.2014 34.7306H59.5436C58.9156 34.7306 58.3161 34.5809 57.7813 34.3154H57.7801Z" fill="#FF6C4E"/>
<path d="M71.9695 29.6552C71.9285 29.6389 71.8874 29.6238 71.8451 29.6087L54.7592 23.9021L50.4573 22.4314C49.3392 22.049 48.1266 22.6554 47.7485 23.7864C47.3704 24.9174 47.9699 26.144 49.088 26.5264L55.0328 28.5595L55.6049 31.4618C55.9793 33.3615 57.6272 34.729 59.5412 34.729H71.4969C72.8948 34.729 74.0278 33.5829 74.0278 32.1689C74.0278 30.9183 73.1398 29.8779 71.967 29.654L71.9695 29.6552Z" fill="#FFC195"/>
<path d="M73.8464 33.1237C73.9633 32.8293 74.0292 32.5073 74.0292 32.1701C74.0292 30.8793 73.084 29.8138 71.8552 29.6376L71.8453 29.6087L50.4587 22.4314V22.4365L50.4425 22.4314C49.3244 22.049 48.1118 22.6554 47.7337 23.7864C47.6852 23.9298 47.6541 24.0757 47.6367 24.2204L50.5718 25.2004L68.7161 31.3763L73.8464 33.1225V33.1237Z" fill="#FF984E"/>
<path d="M60.127 29.1018C60.0499 29.2956 60.0076 29.5069 60.0088 29.7283L60.0138 30.3951C60.02 31.2971 60.7488 32.023 61.6405 32.0168C62.3134 32.0117 62.8867 31.5903 63.1255 30.9965C63.2026 30.804 63.2449 30.5926 63.2437 30.3712L63.2387 29.7044C63.2325 28.8024 62.5037 28.0765 61.6119 28.084C60.9391 28.0891 60.3658 28.5105 60.127 29.1043V29.1018Z" fill="white"/>
<path d="M61.6318 30.4835C61.6341 30.7843 61.877 31.0264 62.1744 31.0241C62.4718 31.0218 62.7111 30.7761 62.7088 30.4753L62.7023 29.5972C62.7001 29.2963 62.4572 29.0543 62.1598 29.0566C61.8624 29.0588 61.6231 29.3045 61.6253 29.6054L61.6318 30.4835Z" fill="black"/>
</g>
<defs>
<clipPath id="clip0_48_338">
<rect width="74" height="78" fill="white"/>
</clipPath>
</defs>
</svg>
