<svg width="255" height="57" viewBox="0 0 255 57" fill="none" xmlns="http://www.w3.org/2000/svg">
<g clip-path="url(#clip0_67_929)">
<path d="M159.578 56.9955C212.246 56.8441 254.942 48.4887 254.942 37.9941C254.942 34.9898 251.437 32.1477 245.201 29.6213C243.689 29.0092 243.732 26.8268 245.268 26.2731C251.499 24.0301 254.942 21.573 254.942 18.9927C254.942 8.50022 198.013 -0.00878906 127.79 -0.00878906C57.5669 -0.00878906 7.13369 5.50455 0.637572 18.9927C0.637572 18.9927 -18.3417 57.5082 159.578 56.9955Z" fill="black"/>
<path d="M151.002 54.8975C192.409 54.7785 225.976 48.2097 225.976 39.9602C225.976 37.5983 223.221 35.364 218.319 33.3762C217.129 32.8939 217.163 31.1787 218.37 30.7439C223.268 28.9811 225.976 27.0474 225.976 25.0208C225.976 16.7713 181.22 10.0835 126.01 10.0835C70.8008 10.0835 31.1546 14.4159 26.0466 25.0208C26.0466 25.0208 11.1272 55.302 151.002 54.8975Z" fill="#333333"/>
<path d="M244.091 27.9497V31.3325C244.091 32.0939 244.566 32.7666 245.274 33.0218C247.505 33.8221 252.309 35.931 254.498 39.8372C254.498 39.8372 256.495 36.861 252.53 33.7334C252.53 33.7334 251.317 32.507 248.855 31.3023C248.389 31.0752 247.462 30.595 246.885 30.3419C246.579 30.2078 246.138 30.0045 245.888 29.9072C245.749 29.8531 245.61 29.7817 245.505 29.7428C245.415 29.7082 245.394 29.7017 245.201 29.6238C244.904 29.5005 244.656 29.3059 244.511 29.1307C244.151 28.6959 244.108 28.2525 244.091 27.9519V27.9497Z" fill="#926359"/>
<path d="M254.348 20.8312C254.348 20.8312 250.014 13.2544 210.034 9.42165C210.034 9.42165 173.761 5.48943 144.607 5.47429C144.607 5.47429 93.0868 3.11452 41.3317 8.7771C41.3317 8.7771 16.898 9.84126 0.0149489 21.4563C0.0149489 21.4563 -1.99357 8.91553 41.3317 3.96672C41.3317 3.96672 68.9953 -0.41973 123.334 -0.000118991C123.334 -0.000118991 173.797 -1.11187 212.372 4.83189C212.372 4.83189 261.111 10.2825 254.35 20.8312H254.348Z" fill="#926359"/>
<path d="M48.048 23.6106C48.048 23.6106 111.54 7.66976 213.178 25.0836C213.178 25.0836 222.393 30.4455 205.953 28.1312C205.953 28.1312 109.925 16.0317 49.9218 27.7851C49.9218 27.7851 37.8322 27.3417 48.048 23.6106Z" fill="#4D4E4E"/>
<path d="M158.88 30.3396C158.88 30.3396 152.3 31.5422 152.029 34.5379C149.886 33.424 175.034 44.0959 192.875 33.4888C192.875 33.4888 195.915 30.1795 188.236 29.9243" fill="#4D4E4E"/>
<path d="M155.975 33.9627L162.332 26.0203C163.558 24.4911 165.35 23.5373 167.293 23.3837L179.008 22.4645C181.846 22.2417 184.542 23.7579 185.848 26.3167L189.22 32.9093C189.22 32.9093 177.838 38.6887 155.973 33.9627H155.975Z" fill="#D08062"/>
<path d="M179.008 22.4645C179.008 22.4645 191.697 35.1999 155.976 33.9605C155.976 33.9605 174.658 39.2035 189.222 32.9072C189.222 32.9072 187.38 27.5647 184.482 24.4587C182.914 22.7803 180.921 22.1985 179.008 22.4645Z" fill="#926359"/>
<path d="M202.312 38.8767C202.312 38.8767 200.376 38.7383 199.542 39.3417C199.542 39.3417 198.918 40.1139 199.542 40.7044C199.542 40.7044 202.5 42.4737 205.251 42.2206C205.251 42.2206 209.918 42.5537 212.002 40.9748C212.002 40.9748 213.418 40.6157 212.836 39.5429C212.836 39.5429 211.998 38.8443 210.395 38.7837L202.31 38.8767H202.312Z" fill="#4D4E4E"/>
<path d="M201.226 39.6576L204.4 37.3757C204.798 37.0902 205.292 36.9821 205.771 37.0794L209.123 37.7499C209.69 37.8624 210.164 38.2495 210.398 38.7816L210.958 40.0599C210.958 40.0599 206.766 42.3635 201.226 39.6576Z" fill="#D08062"/>
<path d="M208.68 37.6613C208.68 37.6613 208.785 40.7629 201.226 39.6577C201.226 39.6577 204.169 41.3318 207.463 40.9749C207.463 40.9749 209.409 40.9792 210.958 40.0621C210.958 40.0621 210.763 38.8725 210.01 38.0181C210.01 38.0181 209.525 37.6137 208.682 37.6634L208.68 37.6613Z" fill="#926359"/>
<path d="M140.673 44.7817C140.673 44.7817 139.452 44.8077 139.225 45.861C139.225 45.861 140.32 46.9987 143.535 47.5049C143.535 47.5049 148.042 48.9432 151.708 47.9288C151.708 47.9288 155.875 47.2215 155.25 46.0557C155.25 46.0557 155.283 45.0953 153.411 44.8877C151.539 44.6801 140.671 44.7817 140.671 44.7817H140.673Z" fill="#4D4E4E"/>
<path d="M140.065 45.3394L141.909 43.6501C142.1 43.4771 142.324 43.3473 142.568 43.2695L146.831 41.9155C147.697 41.6408 148.632 41.7121 149.449 42.1145L152.448 43.5961C152.955 43.847 153.314 44.3271 153.413 44.8873L153.678 46.3711C153.678 46.3711 148.677 48.4843 140.065 45.3394Z" fill="#D08062"/>
<path d="M140.065 45.3397C140.065 45.3397 151.167 46.6591 151.231 42.9951C151.231 42.9951 152.964 43.6786 153.188 44.2842C153.188 44.2842 153.396 44.5243 153.678 46.3736C153.678 46.3736 150.623 47.533 146.249 46.8884C146.249 46.8884 141.884 46.2136 140.065 45.3419V45.3397Z" fill="#926359"/>
</g>
<defs>
<clipPath id="clip0_67_929">
<rect width="255" height="57" fill="white"/>
</clipPath>
</defs>
</svg>
