<svg width="124" height="75" viewBox="0 0 124 75" fill="none" xmlns="http://www.w3.org/2000/svg">
<g clip-path="url(#clip0_53_924)">
<path d="M88.188 72H108.436" stroke="#A78B78" stroke-width="5" stroke-linecap="round" stroke-linejoin="round"/>
<path d="M118.564 12.936C115.768 12.936 113.5 15.204 113.5 18V25.876C113.5 28.668 111.228 30.94 108.436 30.94V10.124C108.436 4.532 103.904 0 98.312 0C92.72 0 88.188 4.532 88.188 10.124V41.06C85.396 41.06 83.124 38.788 83.124 35.996V28.12C83.124 25.324 80.856 23.056 78.06 23.056C75.264 23.056 73 25.328 73 28.124V36C73 44.376 79.812 51.188 88.188 51.188V72H108.436V41.064C116.812 41.064 123.624 34.252 123.624 25.876V18C123.624 15.204 121.356 12.936 118.56 12.936H118.564Z" fill="#00D890"/>
<path d="M88.188 46.1241C82.596 46.1241 78.064 41.5921 78.064 36.0001V28.1241V23.0601C80.86 23.0601 83.128 25.3281 83.128 28.1241V36.0001C83.128 38.7921 85.4 41.0641 88.192 41.0641C90.988 41.0641 93.256 43.3321 93.256 46.1281H88.192L88.188 46.1241Z" fill="#00A26C"/>
<path d="M118.564 12.936V25.872C118.564 31.464 114.032 35.996 108.44 35.996V10.124C108.44 4.532 103.908 0 98.3159 0V72H108.44V41.064C116.816 41.064 123.628 34.252 123.628 25.876V18C123.628 15.204 121.36 12.936 118.564 12.936Z" fill="#00A26C"/>
<path d="M50.8599 72H62.6712" stroke="#A78B78" stroke-width="5" stroke-linecap="round" stroke-linejoin="round"/>
<path d="M68.579 37.546C66.948 37.546 65.625 38.869 65.625 40.5V45.0943C65.625 46.723 64.2997 48.0483 62.671 48.0483V35.9057C62.671 32.6437 60.0273 30 56.7653 30C53.5033 30 50.8597 32.6437 50.8597 35.9057V53.9517C49.231 53.9517 47.9057 52.6263 47.9057 50.9977V46.4033C47.9057 44.7723 46.5827 43.4493 44.9517 43.4493C43.3207 43.4493 42 44.7747 42 46.4057V51C42 55.886 45.9737 59.8597 50.8597 59.8597V72H62.671V53.954C67.557 53.954 71.5307 49.9803 71.5307 45.0943V40.5C71.5307 38.869 70.2077 37.546 68.5767 37.546H68.579Z" fill="#00D890"/>
<path d="M50.8598 56.9057C47.5978 56.9057 44.9541 54.262 44.9541 51V46.4057V43.4517C46.5851 43.4517 47.9081 44.7747 47.9081 46.4057V51C47.9081 52.6287 49.2334 53.954 50.8621 53.954C52.4931 53.954 53.8161 55.277 53.8161 56.908H50.8621L50.8598 56.9057Z" fill="#00A26C"/>
<path d="M68.5794 37.546V45.092C68.5794 48.354 65.9357 50.9977 62.6737 50.9977V35.9057C62.6737 32.6437 60.0301 30 56.7681 30V72H62.6737V53.954C67.5597 53.954 71.5334 49.9803 71.5334 45.0943V40.5C71.5334 38.869 70.2104 37.546 68.5794 37.546Z" fill="#00A26C"/>
<path d="M11.1421 72H26.1234" stroke="#A78B78" stroke-width="5" stroke-linecap="round" stroke-linejoin="round"/>
<path d="M3.72767 28.5223C5.78583 28.5223 7.45533 30.1918 7.45533 32.25V38.0476C7.45533 40.1028 9.12778 41.7753 11.183 41.7753V26.4524C11.1801 22.3361 14.5161 19 18.6324 19C22.7488 19 26.0848 22.3361 26.0848 26.4524V49.2247C28.1401 49.2247 29.8125 47.5523 29.8125 45.4971V39.6994C29.8125 37.6413 31.482 35.9718 33.5402 35.9718C35.5983 35.9718 37.2678 37.6413 37.2678 39.6994V45.4971C37.2678 51.6627 32.2534 56.6771 26.0878 56.6771V71.9971H11.1801V49.2247C5.01439 49.2277 0 44.2103 0 38.0476V32.25C0 30.1918 1.6695 28.5223 3.72767 28.5223Z" fill="#00A26C"/>
<path d="M3.72767 28.5223V32.25V38.0476C3.72767 42.1639 7.06372 45.5 11.1801 45.5V26.4524C11.1801 22.3361 14.5161 19 18.6324 19V72H11.1801V49.2277C5.01439 49.2277 0 44.2103 0 38.0476V32.25C0 30.1918 1.6695 28.5223 3.72767 28.5223Z" fill="#00D890"/>
<path d="M26.085 52.9528C30.2013 52.9528 33.5374 49.6167 33.5374 45.5004V39.7028V35.9751C31.4792 35.9751 29.8097 37.6446 29.8097 39.7028V45.5004C29.8097 47.5556 28.1373 49.228 26.082 49.228V52.9557L26.085 52.9528Z" fill="#00D890"/>
<path d="M11.1799 45.5001C7.0636 45.5001 3.72754 42.1641 3.72754 38.0477V32.2501V28.5225C5.78571 28.5225 7.45521 30.192 7.45521 32.2501V38.0477C7.45521 40.103 9.12765 41.7754 11.1829 41.7754C13.241 41.7754 14.9105 43.4449 14.9105 45.5031H11.1829L11.1799 45.5001Z" fill="#00A26C"/>
</g>
<defs>
<clipPath id="clip0_53_924">
<rect width="124" height="75" fill="white"/>
</clipPath>
</defs>
</svg>
