<svg width="51" height="75" viewBox="0 0 51 75" fill="none" xmlns="http://www.w3.org/2000/svg">
<g clip-path="url(#clip0_53_922)">
<path d="M15.188 72H35.436" stroke="#A78B78" stroke-width="5" stroke-linecap="round" stroke-linejoin="round"/>
<path d="M45.564 12.936C42.768 12.936 40.5 15.204 40.5 18V25.876C40.5 28.668 38.228 30.94 35.436 30.94V10.124C35.436 4.532 30.904 0 25.312 0C19.72 0 15.188 4.532 15.188 10.124V41.06C12.396 41.06 10.124 38.788 10.124 35.996V28.12C10.124 25.324 7.856 23.056 5.06 23.056C2.264 23.056 0 25.328 0 28.124V36C0 44.376 6.812 51.188 15.188 51.188V72H35.436V41.064C43.812 41.064 50.624 34.252 50.624 25.876V18C50.624 15.204 48.356 12.936 45.56 12.936H45.564Z" fill="#00D890"/>
<path d="M15.188 46.1241C9.59597 46.1241 5.06396 41.5921 5.06396 36.0001V28.1241V23.0601C7.85996 23.0601 10.128 25.3281 10.128 28.1241V36.0001C10.128 38.7921 12.4 41.0641 15.192 41.0641C17.988 41.0641 20.256 43.3321 20.256 46.1281H15.192L15.188 46.1241Z" fill="#00A26C"/>
<path d="M45.5639 12.936V25.872C45.5639 31.464 41.0319 35.996 35.4399 35.996V10.124C35.4399 4.532 30.9079 0 25.3159 0V72H35.4399V41.064C43.8159 41.064 50.6279 34.252 50.6279 25.876V18C50.6279 15.204 48.3599 12.936 45.5639 12.936Z" fill="#00A26C"/>
</g>
<defs>
<clipPath id="clip0_53_922">
<rect width="51" height="75" fill="white"/>
</clipPath>
</defs>
</svg>
