<svg width="75" height="78" viewBox="0 0 75 78" fill="none" xmlns="http://www.w3.org/2000/svg">
<g clip-path="url(#clip0_48_427)">
<path d="M56.4708 44.3668C56.4708 44.3668 56.4758 45.6678 56.2842 46.8C56.0926 47.9323 53.1708 52.012 53.1708 52.012C48.2599 58.4936 40.5897 62.3018 32.4481 62.3018H25.8178C25.6842 62.3018 25.572 62.2502 25.4901 62.1697C24.4515 61.8275 23.7002 60.8537 23.7002 59.7013C23.7002 58.2659 24.8662 57.1022 26.3044 57.1022H29.5351L32.704 53.6677C33.7678 52.514 34.359 51.0043 34.359 49.4368V41.7651L41.3447 36.1694C42.9122 34.101 46.0838 33.8115 48.0254 35.6662C50.0549 37.5952 56.4708 41.2522 56.4708 44.3668Z" fill="#FF5D4E"/>
<path d="M62.5912 34.5679H60.2908C58.6811 34.5679 57.258 33.5753 56.6706 32.1273L56.4652 32.043L48.9021 39.2315C48.6072 39.5121 48.2946 39.7675 47.9643 39.9977C46.5362 40.9979 43.4605 40.8243 43.4605 40.8243C43.4605 40.8243 37.1605 41.4734 36.4887 41.4734H8.43365H1.87273C0.793735 41.4734 -0.0810547 42.3465 -0.0810547 43.4234C-0.0810547 44.5003 0.793735 45.3734 1.87273 45.3734H5.46012L14.14 51.9154L7.19079 58.8511C6.59079 59.4499 7.19584 60.4526 8.0076 60.201L23.571 55.3788C23.9618 55.258 24.3677 55.1964 24.7773 55.1964H35.6126C39.9059 55.1964 44.0252 53.503 47.0731 50.4849L62.9845 34.7315L62.5912 34.5692V34.5679Z" fill="#FF984E"/>
<path d="M56.3009 31.4631L55.7173 28.5394L55.2371 28.3481L48.903 34.3692C48.6081 34.6498 48.2955 34.9052 47.9652 35.1354C46.5371 36.1356 44.5681 35.8122 43.5156 34.4233V39.287C44.5681 40.6759 46.5371 40.998 47.9652 39.9991C48.2942 39.7689 48.6081 39.5135 48.903 39.2329L56.466 32.0443C56.398 31.8569 56.3413 31.6644 56.3009 31.4644V31.4631Z" fill="#FF5D4E"/>
<path d="M14.3869 51.8975L11.0137 49.355L3.82509 56.5297C3.23139 57.1223 3.81627 58.1149 4.62299 57.8847L9.88811 56.3863L14.3856 51.8975H14.3869Z" fill="#FF6C4E"/>
<path d="M58.5046 34.3149L45.4483 47.2416C42.4004 50.2597 38.2811 51.953 33.9878 51.953H23.1525C22.7441 51.953 22.337 52.0147 21.9462 52.1354L10.3042 55.7423L7.19074 58.8497C6.59074 59.4486 7.19578 60.4512 8.00755 60.1996L23.571 55.3775C23.9618 55.2567 24.3676 55.195 24.7773 55.195H35.6126C39.9059 55.195 44.0252 53.5017 47.0731 50.4836L62.9857 34.7301H60.292C59.6554 34.7301 59.0479 34.5804 58.5059 34.3149H58.5046Z" fill="#FF6C4E"/>
<path d="M72.8857 29.6552C72.8441 29.6389 72.8026 29.6238 72.7597 29.6087L55.4429 23.9021L51.0828 22.4314C49.9496 22.049 48.7206 22.6554 48.3374 23.7864C47.9542 24.9174 48.5618 26.144 49.695 26.5264L55.7202 28.5595L56.3 31.4618C56.6794 33.3615 58.3496 34.729 60.2895 34.729H72.4068C73.8236 34.729 74.9719 33.5829 74.9719 32.1689C74.9719 30.9183 74.0719 29.8779 72.8832 29.654L72.8857 29.6552Z" fill="#FFC195"/>
<path d="M74.7875 33.1237C74.906 32.8293 74.9728 32.5073 74.9728 32.1701C74.9728 30.8793 74.0148 29.8138 72.7694 29.6376L72.7593 29.6087L51.0837 22.4314V22.4365L51.0673 22.4314C49.9341 22.049 48.7051 22.6554 48.322 23.7864C48.2728 23.9298 48.2413 24.0757 48.2236 24.2204L51.1984 25.2004L69.5879 31.3763L74.7875 33.1225V33.1237Z" fill="#FF984E"/>
<path d="M45.7311 47.5863L31.7055 66.0975C26.7946 72.579 19.1244 76.3872 10.9828 76.3872H8.71895C8.71895 76.3872 8.71643 76.3872 8.71517 76.3872H4.73701C4.73701 76.3872 4.73449 76.3872 4.73323 76.3872H4.3513C4.24416 76.3872 4.15088 76.3532 4.07651 76.2991C2.95844 76.0073 2.13281 74.9945 2.13281 73.7868C2.13281 72.3513 3.29878 71.1876 4.73701 71.1876H9.54458C9.54458 71.1876 13.8297 66.6561 15.1533 63.8883C15.1533 59.6109 14.5866 58.4371 14.5866 52.5871C13.8933 48.8758 7.67651 45.3986 7.67651 45.3986H4.08912C3.01012 45.3986 2.13533 44.5255 2.13533 43.4486C2.13533 42.3717 3.01012 41.4986 4.08912 41.4986H7.67651L18.9348 39.1045C18.9348 39.1045 39.1659 34.3454 40.2373 34.198C41.3087 34.0506 46.2416 33.3689 49.2895 36.387C49.2895 36.387 50.5533 41.223 45.7311 47.5863Z" fill="#FF984E"/>
<path d="M10.692 49.0882L6.08985 45.4574H38.8819C39.2537 45.4574 39.589 45.6638 39.7554 45.9971C39.9218 46.3293 39.8852 46.7205 39.6621 47.0174L27.6873 62.8879C23.868 67.9277 18.0469 71.093 11.7155 71.5698H8.09783L11.4155 67.9743C12.4793 66.8206 13.0693 65.311 13.0693 63.7434V53.9896C13.0693 52.0786 12.1932 50.2733 10.692 49.0895V49.0882Z" fill="#FFC195"/>
<path d="M60.8761 29.0725C60.798 29.2663 60.7551 29.4776 60.7564 29.699L60.7614 30.3658C60.7677 31.2678 61.5064 31.9937 62.4102 31.9875C63.0921 31.9824 63.6732 31.561 63.9152 30.9672C63.9933 30.7747 64.0362 30.5633 64.0349 30.3419L64.0299 29.6751C64.0236 28.7731 63.2849 28.0472 62.3812 28.0547C61.6992 28.0598 61.1181 28.4812 60.8761 29.075V29.0725Z" fill="white"/>
<path d="M62.4009 30.4542C62.4032 30.755 62.6494 30.9971 62.9508 30.9948C63.2522 30.9926 63.4947 30.7468 63.4925 30.446L63.4859 29.5679C63.4836 29.267 63.2374 29.025 62.936 29.0273C62.6346 29.0295 62.3921 29.2752 62.3943 29.5761L62.4009 30.4542Z" fill="black"/>
</g>
<defs>
<clipPath id="clip0_48_427">
<rect width="75" height="78" fill="white"/>
</clipPath>
</defs>
</svg>
