<svg width="76" height="80" viewBox="0 0 76 80" fill="none" xmlns="http://www.w3.org/2000/svg">
<g clip-path="url(#clip0_48_286)">
<path d="M36.54 12L47.502 23.8993C47.502 23.8993 49.4219 28.4018 50.9083 31.3605C52.3947 34.3193 52.3328 45.5754 50.9083 49.3703C49.4839 53.1652 41.9281 63.1349 39.9463 64.0997C37.9645 65.0645 21.2428 65.5148 17.9604 64.0997C14.6779 62.6847 7.06028 57.7963 5.51197 55.8023C3.96366 53.8084 2.72502 48.5341 2.41536 46.4115C2.1057 44.289 0 24.7998 0 24.7998C0 24.7998 4.45912 32.9042 8.17506 36.4418C11.891 39.9795 15.545 42.1021 16.7217 42.1664C17.8984 42.2307 21.3047 35.0911 23.9059 32.9685C26.507 30.8459 30.8423 29.6239 33.5054 28.0158C36.1684 26.4078 36.54 22.8702 36.54 22.8702V12Z" fill="#008C46"/>
<path d="M23.0518 61.9305C26.3179 63.6264 28.0137 62.9983 28.0137 62.9983L26.8203 65.9503C26.6414 68.1568 29.7341 70.0563 26.8203 69.7189L22.2981 69.1536C21.2057 69.0271 19.0359 66.7931 18.9691 65.9503L11.3064 58.0991C11.3064 58.0991 19.7857 60.2347 23.0518 61.9305Z" fill="#008C46"/>
<path d="M33.5417 63.1229C37.0503 62.0125 44.6263 58.3495 44.6263 58.3495C44.6263 58.3495 39.4447 68.9017 38.8166 70.5347C38.1885 72.1678 36.4298 74.5545 36.4298 74.5545C36.4298 74.5545 38.8478 75.3711 40.2296 76.1248C41.6114 76.8785 40.6066 78.1976 40.6066 78.1976C39.7448 78.8805 38.1884 78.8441 36.4298 78.8441C36.4298 78.8441 33.5417 77.695 32.9125 76.6901C32.2833 75.6851 32.4413 64.2677 32.4413 64.2677L33.5417 63.1229Z" fill="#008C46"/>
<path d="M72.7795 20.9692C72.6825 20.5435 72.0768 20.5435 71.9798 20.9692L71.5103 23.0256H73.249L72.7795 20.9692Z" fill="#FCF7F1"/>
<path d="M69.8059 20.9692L69.3364 23.0256H71.0752L70.6057 20.9692C70.5086 20.5435 69.903 20.5435 69.8059 20.9692Z" fill="#FCF7F1"/>
<path d="M67.6326 20.9692L67.1631 23.0256H68.9018L68.4323 20.9692C68.3353 20.5435 67.7296 20.5435 67.6326 20.9692Z" fill="#FCF7F1"/>
<path d="M65.4597 20.9692L64.9902 23.0256H66.729L66.2595 20.9692C66.1624 20.5435 65.5568 20.5435 65.4597 20.9692Z" fill="#FCF7F1"/>
<path d="M63.2859 20.9692L62.8164 23.0256H64.5552L64.0857 20.9692C63.9886 20.5435 63.383 20.5435 63.2859 20.9692Z" fill="#FCF7F1"/>
<path d="M61.1126 20.9692L60.6431 23.0256H62.3818L61.9123 20.9692C61.8153 20.5435 61.2096 20.5435 61.1126 20.9692Z" fill="#FCF7F1"/>
<path d="M58.9402 20.9692L58.4707 23.0256H60.2095L59.7399 20.9692C59.6429 20.5435 59.0372 20.5435 58.9402 20.9692Z" fill="#FCF7F1"/>
<path d="M56.7664 20.9692L56.2969 23.0256H58.0356L57.5661 20.9692C57.4691 20.5435 56.8634 20.5435 56.7664 20.9692Z" fill="#FCF7F1"/>
<path d="M74.1205 24.1574C74.1205 25.965 72.6556 27.4299 70.848 27.4299H48.698C48.6902 27.4299 48.6823 27.4299 48.6745 27.4299C47.5305 27.4361 46.3864 27.0042 45.5131 26.1309L38.5894 19.2071C36.8569 17.4746 36.8569 14.667 38.5894 12.936L54.8955 22.6596C55.2633 22.8787 55.6843 22.9945 56.1131 22.9945H73.5336C73.856 22.9945 74.1173 23.2559 74.1173 23.5783V24.1558L74.1205 24.1574Z" fill="#00BF5F"/>
<path d="M70.5977 15.2958L71.6744 18.1489C71.8591 18.6388 72.5806 18.5402 72.6275 18.0174L72.8936 14.9766L70.5977 15.2958Z" fill="#FCF7F1"/>
<path d="M52.4854 20.8188C52.6701 21.3087 53.3916 21.2101 53.4385 20.6874L53.7046 17.6465L51.4087 17.9658L52.4854 20.8188Z" fill="#FCF7F1"/>
<path d="M55.2276 20.437C55.4123 20.9268 56.1338 20.8282 56.1807 20.3055L56.4468 17.2646L54.1509 17.5839L55.2276 20.437Z" fill="#FCF7F1"/>
<path d="M57.9679 20.0556C58.1525 20.5455 58.874 20.4469 58.921 19.9242L59.187 16.8833L56.8911 17.2026L57.9679 20.0556Z" fill="#FCF7F1"/>
<path d="M60.71 19.6748C60.8947 20.1646 61.6162 20.066 61.6632 19.5433L61.9292 16.5024L59.6333 16.8217L60.71 19.6748Z" fill="#FCF7F1"/>
<path d="M63.4503 19.2929C63.635 19.7828 64.3564 19.6842 64.4034 19.1615L64.6694 16.1206L62.3735 16.4399L63.4503 19.2929Z" fill="#FCF7F1"/>
<path d="M66.192 18.9111C66.3767 19.401 67.0981 19.3024 67.1451 18.7796L67.4111 15.7388L65.1152 16.058L66.192 18.9111Z" fill="#FCF7F1"/>
<path d="M68.9347 18.5293C69.1193 19.0191 69.8408 18.9205 69.8878 18.3978L70.1538 15.3569L67.8579 15.6762L68.9347 18.5293Z" fill="#FCF7F1"/>
<path d="M42.0815 8.22563C41.9888 8.70239 41.9869 9.20428 42.0916 9.70884L42.4034 11.2302C42.8255 13.2879 44.8341 14.6148 46.8917 14.1943C48.4449 13.8768 49.5808 12.6535 49.8644 11.1875C49.957 10.7123 49.9589 10.2088 49.8543 9.70426L49.5426 8.18131C49.1205 6.12359 47.1119 4.79675 45.0542 5.21884C43.501 5.5363 42.3651 6.75964 42.0816 8.22407L42.0815 8.22563Z" fill="white"/>
<path d="M45.4096 10.5951C45.5972 11.2696 46.296 11.6644 46.9706 11.4768C47.6451 11.2893 48.0398 10.5904 47.8523 9.91587L47.3043 7.94514C47.1167 7.27061 46.4178 6.87586 45.7433 7.06343C45.0688 7.251 44.674 7.94986 44.8616 8.62439L45.4096 10.5951Z" fill="black"/>
<path d="M61.8055 5.12797C59.8789 5.27195 58.4344 6.95124 58.5799 8.87623C58.7239 10.8012 60.4032 12.2458 62.3282 12.1018C62.541 12.0861 62.7476 12.0501 62.9464 11.9985L67.2002 11.2895C68.7652 11.0282 69.8717 9.61806 69.7527 8.03581C69.6354 6.45825 68.3317 5.2297 66.751 5.20466L62.4315 5.13736C62.228 5.11701 62.0183 5.11232 61.8055 5.12797Z" fill="#00BF5F"/>
<path d="M52.7954 4.50817C51.3994 4.8963 50.5824 6.34083 50.9706 7.73684C51.0128 7.89022 51.0692 8.03733 51.1365 8.17662L52.2805 11.2018C52.7015 12.3146 53.9019 12.9234 55.0475 12.6041C56.1915 12.2864 56.9036 11.1486 56.6908 9.98111L56.1086 6.79469C56.0929 6.64132 56.0663 6.48638 56.0241 6.33301C55.636 4.93699 54.1899 4.12004 52.7954 4.50817Z" fill="#00BF5F"/>
<path d="M45.8407 0.270096L65.7855 0.000909054C71.0393 -0.0695177 75.4418 3.96046 75.8346 9.2002L75.9896 11.2661C76.1367 13.2317 74.7297 14.9705 72.7765 15.2397L47.2242 18.7391C46.8517 18.8127 46.4698 18.8659 46.0817 18.8956C40.9421 19.2806 36.4645 15.4275 36.0795 10.2879C35.6961 5.14832 39.5508 0.670745 44.6888 0.285746C45.0769 0.25601 45.4619 0.25288 45.8407 0.270096ZM41.6792 11.3756C42.2426 13.3992 44.3382 14.5839 46.3618 14.0221C47.8893 13.598 48.9379 12.299 49.1194 10.8169C49.1789 10.3364 49.146 9.83404 49.0067 9.33793L48.5904 7.84019C48.027 5.81659 45.9314 4.63186 43.9078 5.19527C42.3804 5.6194 41.3318 6.91838 41.1502 8.3989C41.0908 8.88094 41.1236 9.38175 41.2629 9.87787L41.6792 11.374V11.3756ZM51.1368 8.17667L52.2808 11.2019C52.7018 12.3146 53.9022 12.9234 55.0478 12.6042C56.1918 12.2865 56.9039 11.1487 56.6911 9.98116L56.1089 6.79474C56.0932 6.64137 56.0666 6.48643 56.0244 6.33305C55.6362 4.93704 54.1901 4.12009 52.7957 4.50822C51.3997 4.89635 50.5827 6.34088 50.9709 7.73689C51.0131 7.89027 51.0695 8.03738 51.1368 8.17667ZM62.3268 12.1033C62.5396 12.0877 62.7462 12.0517 62.945 12.0001L67.1987 11.2911C68.7638 11.0297 69.8703 9.61963 69.7513 8.03738C69.6339 6.45982 68.3303 5.23127 66.7496 5.20623L62.4301 5.13893C62.2266 5.11858 62.0169 5.11389 61.8041 5.12954C59.8775 5.27352 58.433 6.95281 58.5785 8.87781C58.7225 10.8028 60.4018 12.2473 62.3268 12.1033Z" fill="#00D86C"/>
<path d="M39.6644 4.27491C39.5142 4.27491 39.3655 4.21857 39.2513 4.10432C39.0228 3.87582 39.0212 3.50491 39.2497 3.27641C40.6723 1.84753 42.5644 0.977373 44.5786 0.825565C44.9136 0.800524 45.2563 0.795829 45.5975 0.811479L65.9258 0.537598C65.9258 0.537598 65.9305 0.537598 65.9336 0.537598C66.2529 0.537598 66.5142 0.794264 66.5189 1.1151C66.5236 1.43906 66.2654 1.70355 65.9414 1.70825L45.5959 1.98213C45.5834 1.98213 45.5724 1.98213 45.5599 1.98213C45.2594 1.96804 44.959 1.97117 44.6663 1.99308C42.9338 2.12298 41.3046 2.87107 40.0807 4.10119C39.9665 4.21544 39.8162 4.27334 39.666 4.27334L39.6644 4.27491Z" fill="#00EC76"/>
<path d="M73.7202 7.81643L73.3415 6.85236L72.9627 5.8883C72.7749 5.4094 72.2334 5.17308 71.7545 5.36088C71.2756 5.55025 71.0393 6.09019 71.2271 6.56909L71.6058 7.53316L71.9846 8.49722C72.1724 8.97612 72.7139 9.21244 73.1928 9.02464C73.6717 8.83527 73.908 8.29533 73.7202 7.81643Z" fill="#00763B"/>
<path d="M51 37C51 36.4477 51.4477 36 52 36H58C58.5523 36 59 36.4477 59 37V37C59 37.5523 58.5523 38 58 38H52C51.4477 38 51 37.5523 51 37V37Z" fill="#008C46"/>
<path d="M58.5 36C59.3284 36 60 36.6716 60 37.5L60 40.5C60 41.3284 59.3284 42 58.5 42V42C57.6716 42 57 41.3284 57 40.5L57 37.5C57 36.6716 57.6716 36 58.5 36V36Z" fill="#008C46"/>
<mask id="mask0_48_286" style="mask-type:alpha" maskUnits="userSpaceOnUse" x="0" y="12" width="53" height="53">
<path d="M37.0577 12.6875L48.1749 24.3073C48.1749 24.3073 50.122 28.7039 51.6295 31.5932C53.1369 34.4824 53.0741 45.4741 51.6295 49.1799C50.1849 52.8856 42.5221 62.6211 40.5122 63.5633C38.5023 64.5054 21.5437 64.9451 18.2148 63.5633C14.8859 62.1814 7.16029 57.4079 5.59005 55.4608C4.01981 53.5137 2.76362 48.3633 2.44957 46.2906C2.13553 44.2179 0 25.1866 0 25.1866C0 25.1866 4.52229 33.1006 8.29086 36.5551C12.0594 40.0097 15.7024 42.0824 16.9586 42.1452C18.2148 42.208 21.6065 35.2361 24.2445 33.1634C26.8825 31.0907 31.2792 29.8973 33.98 28.3271C36.6808 26.7568 37.0577 23.3023 37.0577 23.3023V12.6875Z" fill="#008C46"/>
</mask>
<g mask="url(#mask0_48_286)">
<path d="M33.9212 28.0491L34.6835 28.7538C35.2 29.2308 36.0047 29.1984 36.4807 28.6827C36.9577 28.1662 36.9253 27.3615 36.4096 26.8855L35.6516 26.1854L33.9202 28.05L33.9212 28.0491Z" fill="#00763B"/>
<path d="M30.4041 30.1849L31.1664 30.8896C31.6829 31.3665 32.4876 31.3341 32.9636 30.8185C33.4406 30.302 33.4082 29.4972 32.8925 29.0212L32.1345 28.3211L30.4032 30.1857L30.4041 30.1849Z" fill="#00763B"/>
<path d="M35.4285 20.2606L36.1908 20.9653C36.7073 21.4422 37.5121 21.4098 37.9881 20.8942C38.465 20.3776 38.4326 19.5729 37.9169 19.0969L37.1589 18.3968L35.4276 20.2614L35.4285 20.2606Z" fill="#00763B"/>
<path d="M35.303 24.1551L36.0653 24.8598C36.5818 25.3367 37.3866 25.3044 37.8626 24.7887C38.3395 24.2722 38.3071 23.4674 37.7915 22.9914L37.0334 22.2913L35.3021 24.156L35.303 24.1551Z" fill="#00763B"/>
<path d="M26.5095 31.8172L27.2718 32.5219C27.7884 32.9988 28.5931 32.9665 29.0691 32.4508C29.546 31.9343 29.5137 31.1295 28.998 30.6535L28.24 29.9534L26.5086 31.8181L26.5095 31.8172Z" fill="#00763B"/>
<path d="M22.9925 34.2044L23.7548 34.9091C24.2713 35.386 25.076 35.3537 25.552 34.838C26.0289 34.3215 25.9966 33.5167 25.4809 33.0407L24.7229 32.3406L22.9915 34.2053L22.9925 34.2044Z" fill="#00763B"/>
<path d="M19.8518 37.2191L20.6141 37.9238C21.1306 38.4007 21.9354 38.3683 22.4114 37.8527C22.8883 37.3361 22.856 36.5314 22.3403 36.0554L21.5823 35.3553L19.8509 37.2199L19.8518 37.2191Z" fill="#00763B"/>
<path d="M17.4651 40.4857L18.2274 41.1904C18.7439 41.6673 19.5487 41.6349 20.0247 41.1193C20.5016 40.6027 20.4692 39.798 19.9536 39.322L19.1955 38.6219L17.4642 40.4865L17.4651 40.4857Z" fill="#00763B"/>
<path d="M47.2139 39.8833C48.9985 39.2513 51.1963 39.5122 52.8115 39.856C53.6448 40.0333 54.3769 40.2453 54.9004 40.4126C55.1627 40.4964 55.3748 40.5697 55.5225 40.6226C55.596 40.6489 55.6539 40.6699 55.6943 40.6851C55.7146 40.6926 55.7309 40.6993 55.7422 40.7036C55.7474 40.7056 55.7517 40.7073 55.7549 40.7085C55.7566 40.7091 55.7587 40.7091 55.7598 40.7095L55.7607 40.7104H55.7617L56.7246 41.0864L56.3184 42.0356L51.4814 53.3413L51.4219 53.481L51.3242 53.5962L41.8135 64.7769L41.6221 65.0005L41.3408 65.0854L41.0518 64.1284L41.3398 65.0854V65.0864H41.3379C41.3367 65.0868 41.335 65.0878 41.333 65.0884C41.3287 65.0897 41.3222 65.091 41.3145 65.0933C41.2986 65.098 41.2755 65.1051 41.2461 65.1138C41.1869 65.1311 41.101 65.1561 40.9922 65.187C40.7743 65.2488 40.4633 65.3348 40.0889 65.4321C39.3423 65.6262 38.3321 65.8686 37.293 66.0552C36.2668 66.2395 35.1555 66.3805 34.2285 66.3472C33.7686 66.3306 33.2879 66.2695 32.8662 66.1099C32.442 65.9492 31.9591 65.6386 31.7314 65.0591C31.5674 64.6414 31.5465 64.1729 31.5703 63.7573C31.5952 63.3231 31.6758 62.8442 31.7861 62.3521C32.0069 61.3672 32.3718 60.2286 32.7725 59.105C33.1748 57.9766 33.6233 56.8342 34.0166 55.8384C34.4155 54.8284 34.7486 53.9932 34.9385 53.4399C35.3572 52.2198 36.0854 50.5321 37.0117 48.8726C37.9318 47.2243 39.087 45.5307 40.3789 44.3569C42.7427 42.2094 43.9983 41.0222 47.2139 39.8833Z" fill="#00BF5F" stroke="#00763B" stroke-width="2"/>
</g>
<path d="M57.0266 40.3798C57.0266 40.2631 56.9399 40.0947 56.8211 40.0794C55.8855 39.9584 55.059 39.1667 55.1756 38.2312C55.1789 38.2056 55.1969 38.0911 55.1206 38.0584C55.0644 38.0344 54.9941 38.042 54.9772 38.1712C54.8229 39.3641 55.5671 40.5276 56.76 40.6819C56.8892 40.6988 57.007 40.5401 57.0239 40.4109C57.025 40.4005 57.0261 40.3907 57.0261 40.3804L57.0266 40.3798Z" fill="black"/>
<path d="M57.076 41.0475C56.7409 41.0475 56.4692 40.776 56.4692 40.441C56.4692 40.106 56.7409 39.8345 57.076 39.8345L59.5022 39.8345C59.8373 39.8345 60.109 40.106 60.109 40.441C60.109 40.776 59.8373 41.0475 59.5022 41.0475L57.076 41.0475Z" fill="#00763B"/>
<path d="M59.2998 41.861C59.0665 41.861 58.729 42.0343 58.6985 42.272C58.4569 44.1426 56.8737 45.7968 55.002 45.5629C54.9513 45.5563 54.7212 45.5203 54.6558 45.6725C54.6078 45.7848 54.6231 45.9254 54.8809 45.9587C57.2668 46.2673 59.5937 44.7789 59.9017 42.3931C59.935 42.1352 59.6182 41.8986 59.3603 41.8653C59.3396 41.8626 59.3194 41.8615 59.2993 41.8615L59.2998 41.861Z" fill="black"/>
<path d="M56.1362 40.9028C56.0915 40.7948 55.947 40.6722 55.8315 40.7038C54.921 40.9502 53.854 40.5353 53.6043 39.6259C53.5978 39.6014 53.57 39.488 53.4876 39.4869C53.4266 39.4863 53.3644 39.5201 53.3982 39.6455C53.7123 40.8068 54.8452 41.5968 56.0059 41.2828C56.1313 41.249 56.1798 41.0571 56.146 40.9317C56.1433 40.9219 56.14 40.912 56.1362 40.9028Z" fill="black"/>
<path d="M60.1083 41.856C60.1083 42.3028 59.7462 42.665 59.2995 42.665C58.8528 42.665 58.4907 42.3028 58.4907 41.856L58.4907 40.2383C58.4907 39.7915 58.8528 39.4293 59.2995 39.4293C59.7462 39.4293 60.1083 39.7915 60.1083 40.2383L60.1083 41.856Z" fill="#008C46"/>
<path d="M59.237 41.0474L57.7459 41.0474C57.2641 41.0474 56.8735 40.6568 56.8735 40.175L56.8735 38.6839C56.8735 38.2021 57.2641 37.8116 57.7459 37.8116L59.237 37.8116C59.7188 37.8116 60.1093 38.2021 60.1093 38.6839L60.1093 40.175C60.1093 40.6568 59.7188 41.0474 59.237 41.0474Z" fill="#00BF5F"/>
<path d="M56.2675 41.6535C55.9323 41.6535 55.6606 41.3819 55.6606 41.047C55.6606 40.712 55.9323 40.4404 56.2675 40.4404L58.6936 40.4404C59.0287 40.4404 59.3004 40.712 59.3004 41.047C59.3004 41.3819 59.0287 41.6535 58.6936 41.6535L56.2675 41.6535Z" fill="#00BF5F"/>
<path d="M27.8433 72L24.1567 72C22.9656 72 22 71.3965 22 70.6521L22 68.3479C22 67.6035 22.9656 67 24.1567 67L27.8433 67C29.0344 67 30 67.6035 30 68.3479L30 70.6521C30 71.3965 29.0344 72 27.8433 72Z" fill="#008C46"/>
</g>
<defs>
<clipPath id="clip0_48_286">
<rect width="76" height="80" fill="white"/>
</clipPath>
</defs>
</svg>
