<svg width="104" height="48" viewBox="0 0 104 48" fill="none" xmlns="http://www.w3.org/2000/svg">
<g clip-path="url(#clip0_91_474)">
<path d="M59.4096 9.39869C61.3318 10.2619 64.9901 9.39869 64.9901 9.39869C64.9901 9.39869 66.2923 18.4621 67.7804 21.2983C69.2685 24.1344 62.7579 23.3329 61.3318 26.9706C59.9056 30.6083 59.5956 30.4011 57.6114 31.3259C55.6272 32.2508 28.8407 34.9858 25.5544 33.6294C22.268 32.273 14.2693 24.4427 12.7191 22.5314C11.169 20.62 9.61883 17.044 6.2085 15.3176C2.79817 13.5913 1 2 1 2C1 2 7.32461 6.99412 9.61883 7.54902C11.913 8.10392 17.3076 8.78213 18.4857 8.84379C19.6638 8.90545 23.8802 7.24074 26.4224 6.56253C28.9647 5.88431 36.6534 5.39107 38.8236 5.39107C40.9938 5.39107 52.837 5.94597 54.0771 6.56253C55.3172 7.17909 57.4874 8.53551 59.4096 9.39869Z" fill="#008C46"/>
<mask id="mask0_91_474" style="mask-type:alpha" maskUnits="userSpaceOnUse" x="1" y="2" width="68" height="33">
<path d="M59.735 9.48217C61.6679 10.3551 65.3466 9.48217 65.3466 9.48217C65.3466 9.48217 66.656 18.6478 68.1524 21.516C69.6489 24.3841 63.102 23.5736 61.6679 27.2523C60.2338 30.931 59.9221 30.7215 57.9268 31.6568C55.9316 32.5921 28.9958 35.358 25.6911 33.9863C22.3865 32.6145 14.3432 24.6959 12.7844 22.763C11.2256 20.8301 9.66684 17.2137 6.23752 15.4679C2.80819 13.7221 1 2 1 2C1 2 7.35984 7.05046 9.66684 7.61162C11.9738 8.17279 17.3984 8.85865 18.5831 8.921C19.7678 8.98335 24.0077 7.29987 26.5641 6.614C29.1205 5.92814 36.852 5.42933 39.0343 5.42933C41.2166 5.42933 53.1258 5.99049 54.3728 6.614C55.6198 7.23752 57.8021 8.60925 59.735 9.48217Z" fill="#008C46"/>
</mask>
<g mask="url(#mask0_91_474)">
<path d="M43.4772 5.55393L43.4903 6.5844C43.4995 7.28224 44.0725 7.83984 44.7691 7.83053C45.4669 7.8213 46.0245 7.24832 46.0152 6.55172L46.0018 5.52747L43.476 5.55385L43.4772 5.55393Z" fill="#00763B"/>
<path d="M47.842 5.67844L47.855 6.70891C47.8642 7.40675 48.4372 7.96436 49.1338 7.95504C49.8317 7.94581 50.3893 7.37283 50.3799 6.67623L50.3665 5.65199L47.8407 5.67836L47.842 5.67844Z" fill="#00763B"/>
<path d="M52.2067 5.92795L52.2197 6.95842C52.229 7.65626 52.802 8.21387 53.4986 8.20455C54.1964 8.19532 54.754 7.62234 54.7447 6.92574L54.7313 5.9015L52.2055 5.92787L52.2067 5.92795Z" fill="#00763B"/>
<path d="M56.696 7.79807L56.709 8.82854C56.7182 9.52638 57.2912 10.084 57.9878 10.0747C58.6857 10.0654 59.2433 9.49246 59.2339 8.79586L59.2205 7.77161L56.6947 7.79799L56.696 7.79807Z" fill="#00763B"/>
<path d="M61.4343 9.66868L61.4473 10.6991C61.4565 11.397 62.0295 11.9546 62.7261 11.9453C63.4239 11.936 63.9815 11.3631 63.9722 10.6665L63.9588 9.64222L61.433 9.6686L61.4343 9.66868Z" fill="#00763B"/>
<path d="M38.8635 5.42893L38.8765 6.4594C38.8857 7.15724 39.4587 7.71484 40.1553 7.70553C40.8531 7.6963 41.4107 7.12332 41.4014 6.42672L41.388 5.40247L38.8622 5.42885L38.8635 5.42893Z" fill="#00763B"/>
<path d="M34.0002 5.55393L34.0132 6.5844C34.0224 7.28224 34.5954 7.83984 35.292 7.83053C35.9899 7.8213 36.5475 7.24832 36.5381 6.55172L36.5247 5.52747L33.9989 5.55385L34.0002 5.55393Z" fill="#00763B"/>
</g>
<path d="M100.303 24.6587C100.207 24.2362 99.6054 24.2362 99.5091 24.6587L99.043 26.7002H100.769L100.303 24.6587Z" fill="#FCF7F1"/>
<path d="M97.3513 24.6587L96.8853 26.7002H98.6113L98.1452 24.6587C98.0489 24.2362 97.4477 24.2362 97.3513 24.6587Z" fill="#FCF7F1"/>
<path d="M95.1931 24.6587L94.7271 26.7002H96.4531L95.987 24.6587C95.8907 24.2362 95.2895 24.2362 95.1931 24.6587Z" fill="#FCF7F1"/>
<path d="M93.0369 24.6587L92.5708 26.7002H94.2969L93.8308 24.6587C93.7345 24.2362 93.1332 24.2362 93.0369 24.6587Z" fill="#FCF7F1"/>
<path d="M90.8787 24.6587L90.4126 26.7002H92.1387L91.6726 24.6587C91.5763 24.2362 90.975 24.2362 90.8787 24.6587Z" fill="#FCF7F1"/>
<path d="M88.721 24.6587L88.2549 26.7002H89.981L89.5149 24.6587C89.4185 24.2362 88.8173 24.2362 88.721 24.6587Z" fill="#FCF7F1"/>
<path d="M86.5647 24.6587L86.0986 26.7002H87.8247L87.3586 24.6587C87.2623 24.2362 86.661 24.2362 86.5647 24.6587Z" fill="#FCF7F1"/>
<path d="M84.406 24.6587L83.9399 26.7002H85.666L85.1999 24.6587C85.1036 24.2362 84.5024 24.2362 84.406 24.6587Z" fill="#FCF7F1"/>
<path d="M101.635 27.8235C101.635 29.618 100.18 31.0722 98.3859 31.0722H76.3975C76.3897 31.0722 76.382 31.0722 76.3742 31.0722C75.2385 31.0784 74.1028 30.6496 73.2359 29.7827L66.3626 22.9094C64.6428 21.1896 64.6428 18.4024 66.3626 16.6841L82.5498 26.3367C82.9149 26.5542 83.3329 26.6692 83.7585 26.6692H101.052C101.372 26.6692 101.631 26.9287 101.631 27.2487V27.822L101.635 27.8235Z" fill="#00BF5F"/>
<path d="M98.1372 19.0269L99.2061 21.8592C99.3894 22.3454 100.106 22.2476 100.152 21.7286L100.416 18.71L98.1372 19.0269Z" fill="#FCF7F1"/>
<path d="M80.1573 24.51C80.3406 24.9963 81.0568 24.8984 81.1034 24.3795L81.3675 21.3608L79.0884 21.6778L80.1573 24.51Z" fill="#FCF7F1"/>
<path d="M82.879 24.1306C83.0623 24.6169 83.7785 24.519 83.8251 24.0001L84.0892 20.9814L81.8101 21.2984L82.879 24.1306Z" fill="#FCF7F1"/>
<path d="M85.5997 23.7517C85.783 24.238 86.4992 24.1401 86.5458 23.6212L86.8099 20.6025L84.5308 20.9195L85.5997 23.7517Z" fill="#FCF7F1"/>
<path d="M88.3213 23.3738C88.5047 23.8601 89.2209 23.7622 89.2675 23.2433L89.5316 20.2246L87.2524 20.5415L88.3213 23.3738Z" fill="#FCF7F1"/>
<path d="M91.042 22.9949C91.2254 23.4812 91.9416 23.3833 91.9882 22.8644L92.2523 19.8457L89.9731 20.1626L91.042 22.9949Z" fill="#FCF7F1"/>
<path d="M93.7637 22.6155C93.947 23.1018 94.6633 23.0039 94.7099 22.485L94.974 19.4663L92.6948 19.7832L93.7637 22.6155Z" fill="#FCF7F1"/>
<path d="M96.4859 22.2366C96.6692 22.7229 97.3854 22.625 97.432 22.1061L97.6962 19.0874L95.417 19.4043L96.4859 22.2366Z" fill="#FCF7F1"/>
<path d="M69.829 12.0079C69.7371 12.4812 69.7352 12.9794 69.8391 13.4803L70.1486 14.9906C70.5676 17.0333 72.5616 18.3505 74.6042 17.933C76.146 17.6179 77.2737 16.4034 77.5552 14.9481C77.6471 14.4764 77.6491 13.9766 77.5452 13.4758L77.2357 11.9639C76.8167 9.92121 74.8228 8.60404 72.7801 9.02306C71.2382 9.3382 70.1106 10.5526 69.8292 12.0064L69.829 12.0079Z" fill="white"/>
<path d="M73.133 14.3603C73.3192 15.0299 74.013 15.4218 74.6826 15.2356C75.3522 15.0494 75.7441 14.3556 75.5579 13.686L75.0139 11.7297C74.8277 11.06 74.1339 10.6682 73.4643 10.8544C72.7947 11.0406 72.4028 11.7343 72.589 12.404L73.133 14.3603Z" fill="black"/>
<path d="M89.4088 8.93308C87.4963 9.07601 86.0623 10.743 86.2068 12.654C86.3497 14.565 88.0168 15.9989 89.9277 15.856C90.139 15.8405 90.3441 15.8047 90.5414 15.7535L94.7642 15.0497C96.3178 14.7902 97.4162 13.3904 97.2981 11.8197C97.1816 10.2537 95.8874 9.03406 94.3183 9.0092L90.0303 8.9424C89.8283 8.9222 89.6201 8.91754 89.4088 8.93308Z" fill="#00BF5F"/>
<path d="M80.465 8.31801C79.0792 8.70331 78.2682 10.1373 78.6535 11.5231C78.6954 11.6754 78.7513 11.8214 78.8181 11.9597L79.9538 14.9629C80.3718 16.0675 81.5634 16.6718 82.7006 16.3549C83.8363 16.0395 84.5432 14.91 84.3319 13.751L83.754 10.5879C83.7385 10.4356 83.7121 10.2818 83.6701 10.1295C83.2848 8.74371 81.8493 7.93272 80.465 8.31801Z" fill="#00BF5F"/>
<path d="M73.5608 4.1109L93.3601 3.84368C98.5756 3.77376 102.946 7.77434 103.336 12.9759L103.49 15.0266C103.636 16.978 102.239 18.7041 100.3 18.9713L74.9342 22.4452C74.5644 22.5182 74.1853 22.571 73.8 22.6005C68.6979 22.9827 64.253 19.1577 63.8708 14.0556C63.4902 8.95354 67.3168 4.50863 72.4173 4.12643C72.8026 4.09692 73.1848 4.09381 73.5608 4.1109ZM69.4297 15.1354C69.989 17.1442 72.0693 18.3203 74.0781 17.7626C75.5945 17.3415 76.6354 16.052 76.8156 14.5808C76.8746 14.1038 76.842 13.6051 76.7037 13.1126L76.2905 11.6258C75.7312 9.61693 73.6509 8.44084 71.642 9.00014C70.1257 9.42118 69.0848 10.7107 68.9046 12.1804C68.8455 12.6589 68.8782 13.1561 69.0164 13.6486L69.4297 15.1338V15.1354ZM78.8182 11.9598L79.9539 14.9629C80.3718 16.0676 81.5635 16.6719 82.7007 16.355C83.8364 16.0396 84.5433 14.9101 84.332 13.7511L83.7541 10.5879C83.7385 10.4357 83.7121 10.2819 83.6702 10.1296C83.2849 8.7438 81.8493 7.93281 80.4651 8.31811C79.0792 8.7034 78.2682 10.1374 78.6535 11.5232C78.6955 11.6755 78.7514 11.8215 78.8182 11.9598ZM89.9266 15.8578C90.1379 15.8423 90.343 15.8066 90.5403 15.7553L94.763 15.0515C96.3167 14.792 97.4151 13.3922 97.297 11.8215C97.1805 10.2555 95.8863 9.03588 94.3171 9.01102L90.0292 8.94421C89.8272 8.92402 89.619 8.91936 89.4077 8.93489C87.4952 9.07783 86.0612 10.7449 86.2057 12.6558C86.3486 14.5668 88.0157 16.0008 89.9266 15.8578Z" fill="#00D86C"/>
<path d="M67.4302 8.08602C67.281 8.08602 67.1334 8.03009 67.02 7.91668C66.7932 7.68985 66.7916 7.32164 67.0185 7.09481C68.4307 5.67636 70.309 4.81254 72.3085 4.66184C72.641 4.63698 72.9813 4.63232 73.32 4.64786L93.4999 4.37598C93.4999 4.37598 93.5046 4.37598 93.5077 4.37598C93.8246 4.37598 94.0841 4.63077 94.0888 4.94926C94.0934 5.27086 93.8371 5.53342 93.5155 5.53809L73.3184 5.80997C73.306 5.80997 73.2951 5.80997 73.2827 5.80997C72.9844 5.79599 72.6861 5.79909 72.3956 5.82084C70.6757 5.94979 69.0584 6.69243 67.8434 7.91357C67.73 8.02699 67.5809 8.08447 67.4317 8.08447L67.4302 8.08602Z" fill="#00EC76"/>
<path d="M101.237 11.6022L100.861 10.6452L100.485 9.68818C100.298 9.21277 99.7608 8.97818 99.2853 9.16461C98.8099 9.3526 98.5753 9.8886 98.7618 10.364L99.1378 11.321L99.5137 12.2781C99.7002 12.7535 100.238 12.9881 100.713 12.8016C101.189 12.6137 101.423 12.0777 101.237 11.6022Z" fill="#00763B"/>
<path d="M54 38.5C54 37.6716 54.6716 37 55.5 37H56.5C57.3284 37 58 37.6716 58 38.5V38.5C58 39.3284 57.3284 40 56.5 40H55.5C54.6716 40 54 39.3284 54 38.5V38.5Z" fill="#008C46"/>
<path d="M55.5 32C56.3284 32 57 32.6716 57 33.5L57 37.5C57 38.3284 56.3284 39 55.5 39V39C54.6716 39 54 38.3284 54 37.5L54 33.5C54 32.6716 54.6716 32 55.5 32V32Z" fill="#008C46"/>
<path d="M57.3553 39.8127C57.3553 39.6969 57.2692 39.5296 57.1512 39.5145C56.2225 39.3943 55.402 38.6085 55.5178 37.6797C55.5211 37.6543 55.5389 37.5406 55.4631 37.5082C55.4074 37.4843 55.3376 37.4919 55.3208 37.6202C55.1676 38.8044 55.9064 39.9594 57.0906 40.1125C57.2189 40.1293 57.3358 39.9718 57.3526 39.8435C57.3536 39.8333 57.3547 39.8235 57.3547 39.8132L57.3553 39.8127Z" fill="black"/>
<path d="M57.4041 40.4747C57.0715 40.4747 56.8018 40.2052 56.8018 39.8726C56.8018 39.5401 57.0715 39.2705 57.4041 39.2705L59.8126 39.2705C60.1453 39.2705 60.415 39.5401 60.415 39.8726C60.415 40.2052 60.1453 40.4747 59.8126 40.4747L57.4041 40.4747Z" fill="#00763B"/>
<path d="M59.611 41.2827C59.3793 41.2827 59.0443 41.4549 59.014 41.6908C58.7743 43.5478 57.2025 45.1898 55.3445 44.9577C55.2942 44.9512 55.0658 44.9154 55.0008 45.0664C54.9532 45.1779 54.9684 45.3176 55.2244 45.3506C57.5928 45.6569 59.9027 44.1794 60.2085 41.811C60.2415 41.555 59.9271 41.3201 59.6711 41.2871C59.6505 41.2844 59.6305 41.2833 59.6104 41.2833L59.611 41.2827Z" fill="black"/>
<path d="M56.4712 40.3318C56.4268 40.2247 56.2834 40.1029 56.1686 40.1343C55.2648 40.3789 54.2056 39.9671 53.9577 39.0643C53.9512 39.0399 53.9236 38.9274 53.8419 38.9263C53.7813 38.9257 53.7196 38.9593 53.7531 39.0838C54.0649 40.2366 55.1895 41.0208 56.3418 40.7091C56.4663 40.6755 56.5145 40.485 56.4809 40.3605C56.4782 40.3508 56.4749 40.341 56.4712 40.3318Z" fill="black"/>
<path d="M60.4144 41.2774C60.4144 41.721 60.0549 42.0806 59.6115 42.0806C59.1681 42.0806 58.8086 41.721 58.8086 41.2774L58.8086 39.6716C58.8086 39.228 59.1681 38.8684 59.6115 38.8684C60.0549 38.8684 60.4144 39.228 60.4144 39.6716L60.4144 41.2774Z" fill="#008C46"/>
<path d="M59.5488 40.4751L58.0686 40.4751C57.5903 40.4751 57.2026 40.0874 57.2026 39.6091L57.2026 38.1289C57.2026 37.6506 57.5903 37.2629 58.0686 37.2629L59.5488 37.2629C60.0271 37.2629 60.4148 37.6506 60.4148 38.1289L60.4148 39.6091C60.4148 40.0874 60.0271 40.4751 59.5488 40.4751Z" fill="#00BF5F"/>
<path d="M56.6009 41.0768C56.2682 41.0768 55.9985 40.8072 55.9985 40.4747C55.9985 40.1421 56.2682 39.8726 56.6009 39.8726L59.0094 39.8726C59.3421 39.8726 59.6117 40.1421 59.6117 40.4747C59.6117 40.8072 59.3421 41.0768 59.0094 41.0768L56.6009 41.0768Z" fill="#00BF5F"/>
<path d="M100.303 24.6587C100.207 24.2362 99.6054 24.2362 99.5091 24.6587L99.043 26.7002H100.769L100.303 24.6587Z" fill="#FCF7F1"/>
<path d="M97.3513 24.6587L96.8853 26.7002H98.6113L98.1452 24.6587C98.0489 24.2362 97.4477 24.2362 97.3513 24.6587Z" fill="#FCF7F1"/>
<path d="M95.1931 24.6587L94.7271 26.7002H96.4531L95.987 24.6587C95.8907 24.2362 95.2895 24.2362 95.1931 24.6587Z" fill="#FCF7F1"/>
<path d="M93.0369 24.6587L92.5708 26.7002H94.2969L93.8308 24.6587C93.7345 24.2362 93.1332 24.2362 93.0369 24.6587Z" fill="#FCF7F1"/>
<path d="M90.8787 24.6587L90.4126 26.7002H92.1387L91.6726 24.6587C91.5763 24.2362 90.975 24.2362 90.8787 24.6587Z" fill="#FCF7F1"/>
<path d="M88.721 24.6587L88.2549 26.7002H89.981L89.5149 24.6587C89.4185 24.2362 88.8173 24.2362 88.721 24.6587Z" fill="#FCF7F1"/>
<path d="M86.5647 24.6587L86.0986 26.7002H87.8247L87.3586 24.6587C87.2623 24.2362 86.661 24.2362 86.5647 24.6587Z" fill="#FCF7F1"/>
<path d="M84.406 24.6587L83.9399 26.7002H85.666L85.1999 24.6587C85.1036 24.2362 84.5024 24.2362 84.406 24.6587Z" fill="#FCF7F1"/>
<path d="M101.635 27.8235C101.635 29.618 100.18 31.0722 98.3859 31.0722H76.3975C76.3897 31.0722 76.382 31.0722 76.3742 31.0722C75.2385 31.0784 74.1028 30.6496 73.2359 29.7827L66.3626 22.9094C64.6428 21.1896 64.6428 18.4024 66.3626 16.6841L82.5498 26.3367C82.9149 26.5542 83.3329 26.6692 83.7585 26.6692H101.052C101.372 26.6692 101.631 26.9287 101.631 27.2487V27.822L101.635 27.8235Z" fill="#00BF5F"/>
<path d="M98.1372 19.0269L99.2061 21.8592C99.3894 22.3454 100.106 22.2476 100.152 21.7286L100.416 18.71L98.1372 19.0269Z" fill="#FCF7F1"/>
<path d="M80.1573 24.51C80.3406 24.9963 81.0568 24.8984 81.1034 24.3795L81.3675 21.3608L79.0884 21.6778L80.1573 24.51Z" fill="#FCF7F1"/>
<path d="M82.879 24.1306C83.0623 24.6169 83.7785 24.519 83.8251 24.0001L84.0892 20.9814L81.8101 21.2984L82.879 24.1306Z" fill="#FCF7F1"/>
<path d="M85.5997 23.7517C85.783 24.238 86.4992 24.1401 86.5458 23.6212L86.8099 20.6025L84.5308 20.9195L85.5997 23.7517Z" fill="#FCF7F1"/>
<path d="M88.3213 23.3738C88.5047 23.8601 89.2209 23.7622 89.2675 23.2433L89.5316 20.2246L87.2524 20.5415L88.3213 23.3738Z" fill="#FCF7F1"/>
<path d="M91.042 22.9949C91.2254 23.4812 91.9416 23.3833 91.9882 22.8644L92.2523 19.8457L89.9731 20.1626L91.042 22.9949Z" fill="#FCF7F1"/>
<path d="M93.7637 22.6155C93.947 23.1018 94.6633 23.0039 94.7099 22.485L94.974 19.4663L92.6948 19.7832L93.7637 22.6155Z" fill="#FCF7F1"/>
<path d="M96.4859 22.2366C96.6692 22.7229 97.3854 22.625 97.432 22.1061L97.6962 19.0874L95.417 19.4043L96.4859 22.2366Z" fill="#FCF7F1"/>
<path d="M69.829 12.0079C69.7371 12.4812 69.7352 12.9794 69.8391 13.4803L70.1486 14.9906C70.5676 17.0333 72.5616 18.3505 74.6042 17.933C76.146 17.6179 77.2737 16.4034 77.5552 14.9481C77.6471 14.4764 77.6491 13.9766 77.5452 13.4758L77.2357 11.9639C76.8167 9.92121 74.8228 8.60404 72.7801 9.02306C71.2382 9.3382 70.1106 10.5526 69.8292 12.0064L69.829 12.0079Z" fill="white"/>
<path d="M73.133 14.3603C73.3192 15.0299 74.013 15.4218 74.6826 15.2356C75.3522 15.0494 75.7441 14.3556 75.5579 13.686L75.0139 11.7297C74.8277 11.06 74.1339 10.6682 73.4643 10.8544C72.7947 11.0406 72.4028 11.7343 72.589 12.404L73.133 14.3603Z" fill="black"/>
<path d="M89.4088 8.93308C87.4963 9.07601 86.0623 10.743 86.2068 12.654C86.3497 14.565 88.0168 15.9989 89.9277 15.856C90.139 15.8405 90.3441 15.8047 90.5414 15.7535L94.7642 15.0497C96.3178 14.7902 97.4162 13.3904 97.2981 11.8197C97.1816 10.2537 95.8874 9.03406 94.3183 9.0092L90.0303 8.9424C89.8283 8.9222 89.6201 8.91754 89.4088 8.93308Z" fill="#00BF5F"/>
<path d="M80.465 8.31801C79.0792 8.70331 78.2682 10.1373 78.6535 11.5231C78.6954 11.6754 78.7513 11.8214 78.8181 11.9597L79.9538 14.9629C80.3718 16.0675 81.5634 16.6718 82.7006 16.3549C83.8363 16.0395 84.5432 14.91 84.3319 13.751L83.754 10.5879C83.7385 10.4356 83.7121 10.2818 83.6701 10.1295C83.2848 8.74371 81.8493 7.93272 80.465 8.31801Z" fill="#00BF5F"/>
<path d="M73.5608 4.1109L93.3601 3.84368C98.5756 3.77376 102.946 7.77434 103.336 12.9759L103.49 15.0266C103.636 16.978 102.239 18.7041 100.3 18.9713L74.9342 22.4452C74.5644 22.5182 74.1853 22.571 73.8 22.6005C68.6979 22.9827 64.253 19.1577 63.8708 14.0556C63.4902 8.95354 67.3168 4.50863 72.4173 4.12643C72.8026 4.09692 73.1848 4.09381 73.5608 4.1109ZM69.4297 15.1354C69.989 17.1442 72.0693 18.3203 74.0781 17.7626C75.5945 17.3415 76.6354 16.052 76.8156 14.5808C76.8746 14.1038 76.842 13.6051 76.7037 13.1126L76.2905 11.6258C75.7312 9.61693 73.6509 8.44084 71.642 9.00014C70.1257 9.42118 69.0848 10.7107 68.9046 12.1804C68.8455 12.6589 68.8782 13.1561 69.0164 13.6486L69.4297 15.1338V15.1354ZM78.8182 11.9598L79.9539 14.9629C80.3718 16.0676 81.5635 16.6719 82.7007 16.355C83.8364 16.0396 84.5433 14.9101 84.332 13.7511L83.7541 10.5879C83.7385 10.4357 83.7121 10.2819 83.6702 10.1296C83.2849 8.7438 81.8493 7.93281 80.4651 8.31811C79.0792 8.7034 78.2682 10.1374 78.6535 11.5232C78.6955 11.6755 78.7514 11.8215 78.8182 11.9598ZM89.9266 15.8578C90.1379 15.8423 90.343 15.8066 90.5403 15.7553L94.763 15.0515C96.3167 14.792 97.4151 13.3922 97.297 11.8215C97.1805 10.2555 95.8863 9.03588 94.3171 9.01102L90.0292 8.94421C89.8272 8.92402 89.619 8.91936 89.4077 8.93489C87.4952 9.07783 86.0612 10.7449 86.2057 12.6558C86.3486 14.5668 88.0157 16.0008 89.9266 15.8578Z" fill="#00D86C"/>
<path d="M67.4302 8.08602C67.281 8.08602 67.1334 8.03009 67.02 7.91668C66.7932 7.68985 66.7916 7.32164 67.0185 7.09481C68.4307 5.67636 70.309 4.81254 72.3085 4.66184C72.641 4.63698 72.9813 4.63232 73.32 4.64786L93.4999 4.37598C93.4999 4.37598 93.5046 4.37598 93.5077 4.37598C93.8246 4.37598 94.0841 4.63077 94.0888 4.94926C94.0934 5.27086 93.8371 5.53342 93.5155 5.53809L73.3184 5.80997C73.306 5.80997 73.2951 5.80997 73.2827 5.80997C72.9844 5.79599 72.6861 5.79909 72.3956 5.82084C70.6757 5.94979 69.0584 6.69243 67.8434 7.91357C67.73 8.02699 67.5809 8.08447 67.4317 8.08447L67.4302 8.08602Z" fill="#00EC76"/>
<path d="M101.237 11.6022L100.861 10.6452L100.485 9.68818C100.298 9.21277 99.7608 8.97818 99.2853 9.16461C98.8099 9.3526 98.5753 9.8886 98.7618 10.364L99.1378 11.321L99.5137 12.2781C99.7002 12.7535 100.238 12.9881 100.713 12.8016C101.189 12.6137 101.423 12.0777 101.237 11.6022Z" fill="#00763B"/>
<path d="M54 38C54 37.4477 54.4477 37 55 37H59C59.5523 37 60 37.4477 60 38L60 39C60 39.5523 59.5523 40 59 40H55C54.4477 40 54 39.5523 54 39V38Z" fill="#008C46"/>
<path d="M55.5 29C56.3284 29 57 29.6716 57 30.5L57 37.5C57 38.3284 56.3284 39 55.5 39V39C54.6716 39 54 38.3284 54 37.5L54 30.5C54 29.6716 54.6716 29 55.5 29V29Z" fill="#008C46"/>
<path d="M57.3553 39.8127C57.3553 39.6969 57.2692 39.5296 57.1512 39.5145C56.2225 39.3943 55.402 38.6085 55.5178 37.6797C55.5211 37.6543 55.5389 37.5406 55.4631 37.5082C55.4074 37.4843 55.3376 37.4919 55.3208 37.6202C55.1676 38.8044 55.9064 39.9594 57.0906 40.1125C57.2189 40.1293 57.3358 39.9718 57.3526 39.8435C57.3536 39.8333 57.3547 39.8235 57.3547 39.8132L57.3553 39.8127Z" fill="black"/>
<path d="M57.4041 40.4747C57.0715 40.4747 56.8018 40.2052 56.8018 39.8726C56.8018 39.5401 57.0715 39.2705 57.4041 39.2705L59.8126 39.2705C60.1453 39.2705 60.415 39.5401 60.415 39.8726C60.415 40.2052 60.1453 40.4747 59.8126 40.4747L57.4041 40.4747Z" fill="#00763B"/>
<path d="M59.611 41.2827C59.3793 41.2827 59.0443 41.4549 59.014 41.6908C58.7743 43.5478 57.2025 45.1898 55.3445 44.9577C55.2942 44.9512 55.0658 44.9154 55.0008 45.0664C54.9532 45.1779 54.9684 45.3176 55.2244 45.3506C57.5928 45.6569 59.9027 44.1794 60.2085 41.811C60.2415 41.555 59.9271 41.3201 59.6711 41.2871C59.6505 41.2844 59.6305 41.2833 59.6104 41.2833L59.611 41.2827Z" fill="black"/>
<path d="M56.4712 40.3318C56.4268 40.2247 56.2834 40.1029 56.1686 40.1343C55.2648 40.3789 54.2056 39.9671 53.9577 39.0643C53.9512 39.0399 53.9236 38.9274 53.8419 38.9263C53.7813 38.9257 53.7196 38.9593 53.7531 39.0838C54.0649 40.2366 55.1895 41.0208 56.3418 40.7091C56.4663 40.6755 56.5145 40.485 56.4809 40.3605C56.4782 40.3508 56.4749 40.341 56.4712 40.3318Z" fill="black"/>
<path d="M60.4144 41.2774C60.4144 41.721 60.0549 42.0806 59.6115 42.0806C59.1681 42.0806 58.8086 41.721 58.8086 41.2774L58.8086 39.6716C58.8086 39.228 59.1681 38.8684 59.6115 38.8684C60.0549 38.8684 60.4144 39.228 60.4144 39.6716L60.4144 41.2774Z" fill="#008C46"/>
<path d="M59.5488 40.4751L58.0686 40.4751C57.5903 40.4751 57.2026 40.0874 57.2026 39.6091L57.2026 38.1289C57.2026 37.6506 57.5903 37.2629 58.0686 37.2629L59.5488 37.2629C60.0271 37.2629 60.4148 37.6506 60.4148 38.1289L60.4148 39.6091C60.4148 40.0874 60.0271 40.4751 59.5488 40.4751Z" fill="#00BF5F"/>
<path d="M56.6009 41.0768C56.2682 41.0768 55.9985 40.8072 55.9985 40.4747C55.9985 40.1421 56.2682 39.8726 56.6009 39.8726L59.0094 39.8726C59.3421 39.8726 59.6117 40.1421 59.6117 40.4747C59.6117 40.8072 59.3421 41.0768 59.0094 41.0768L56.6009 41.0768Z" fill="#00BF5F"/>
<path d="M45.6314 29.6075C48.6156 31.157 47.2384 31.3291 47.2384 31.3291L46.148 34.0264C45.9844 36.0424 48.8102 37.7779 46.1479 37.4697L40.8683 37.4697C39.8702 37.354 40.9293 34.7964 40.8683 34.0264L42.7047 28.9762C42.7047 28.9762 42.6472 28.058 45.6314 29.6075Z" fill="#008C46"/>
<path d="M28.3582 30.4111C31.564 29.3966 38.6309 30.4111 38.6309 30.4111C38.6309 30.4111 31.457 39.1341 30.8833 40.2819C30.3095 41.4296 28.3582 44.1269 28.3582 44.1269C28.3582 44.1269 30.166 43.9675 30.8833 44.9303C31.6007 45.8931 30.8833 47.5127 30.8833 47.5127C30.0958 48.1367 27.727 48.0292 26.1202 48.0292C26.1202 48.0292 25.8917 48.1035 24.7427 46.7667C23.5938 45.4299 24.7427 31.2145 24.7427 31.2145L28.3582 30.4111Z" fill="#008C46"/>
<path d="M46.1129 39L42.8871 39C41.8449 39 40.5 38.0956 40.5 37.5L40.5 37C40.5 36.4044 40.9578 35 42 35L46.1129 35C47.1551 35 48 35.4828 48 36.0783L48 37.9217C48 38.5172 47.1551 39 46.1129 39Z" fill="#008C46"/>
</g>
<defs>
<clipPath id="clip0_91_474">
<rect width="104" height="48" fill="white"/>
</clipPath>
</defs>
</svg>
