<svg width="76" height="80" viewBox="0 0 76 80" fill="none" xmlns="http://www.w3.org/2000/svg">
<g clip-path="url(#clip0_48_286)">
<path d="M37.0579 12.6646L48.1752 24.2633C48.1752 24.2633 50.1223 28.652 51.6298 31.536C53.1372 34.42 53.0744 45.3918 51.6298 49.0909C50.1851 52.7899 42.5223 62.5078 40.5124 63.4483C38.5025 64.3887 21.5438 64.8276 18.2149 63.4483C14.886 62.0689 7.16033 57.3041 5.59008 55.3605C4.01983 53.4169 2.76364 48.2758 2.44959 46.2069C2.13554 44.1379 0 25.141 0 25.141C0 25.141 4.52231 33.0407 8.29091 36.489C12.0595 39.9373 15.7653 42.0062 16.9587 42.0689C18.1521 42.1316 21.6066 35.1724 24.2446 33.1034C26.8826 31.0345 31.2793 29.8432 33.9802 28.2758C36.681 26.7084 37.0579 23.2602 37.0579 23.2602V12.6646Z" fill="#008C46"/>
<path d="M23.0513 61.8183C26.3174 63.5111 28.0133 62.8842 28.0133 62.8842L26.8198 65.8309C26.6409 68.0334 29.7336 69.9294 26.8198 69.5926L22.2975 69.0284C21.2052 68.9021 19.0354 66.6721 18.9686 65.8309L11.3058 57.9939C11.3058 57.9939 19.7851 60.1255 23.0513 61.8183Z" fill="#008C46"/>
<path d="M33.5419 63.0093C37.0506 61.9009 40.9837 59.5752 40.9837 59.5752C40.9837 59.5752 40.2928 70.0454 40.2299 71.2993C40.1671 72.5532 40.6068 74.5595 40.6068 74.5595C40.6068 74.5595 43.2448 74.3087 44.6266 75.0611C46.0085 75.8134 44.6266 77.9451 44.6266 77.9451C43.7648 78.6267 42.7423 78.7018 40.9837 78.7018L37.0895 78.7018L32.4415 64.152L33.5419 63.0093Z" fill="#008C46"/>
<path d="M72.7795 20.9315C72.6825 20.5066 72.0768 20.5066 71.9798 20.9315L71.5103 22.9842H73.249L72.7795 20.9315Z" fill="#FCF7F1"/>
<path d="M69.8059 20.9315L69.3364 22.9842H71.0752L70.6057 20.9315C70.5086 20.5066 69.903 20.5066 69.8059 20.9315Z" fill="#FCF7F1"/>
<path d="M67.6321 20.9315L67.1626 22.9842H68.9014L68.4319 20.9315C68.3348 20.5066 67.7291 20.5066 67.6321 20.9315Z" fill="#FCF7F1"/>
<path d="M65.4597 20.9315L64.9902 22.9842H66.729L66.2595 20.9315C66.1625 20.5066 65.5568 20.5066 65.4597 20.9315Z" fill="#FCF7F1"/>
<path d="M63.2859 20.9315L62.8164 22.9842H64.5552L64.0857 20.9315C63.9886 20.5066 63.383 20.5066 63.2859 20.9315Z" fill="#FCF7F1"/>
<path d="M61.1121 20.9315L60.6426 22.9842H62.3813L61.9118 20.9315C61.8148 20.5066 61.2091 20.5066 61.1121 20.9315Z" fill="#FCF7F1"/>
<path d="M58.9397 20.9315L58.4702 22.9842H60.209L59.7395 20.9315C59.6424 20.5066 59.0368 20.5066 58.9397 20.9315Z" fill="#FCF7F1"/>
<path d="M56.7659 20.9315L56.2964 22.9842H58.0352L57.5656 20.9315C57.4686 20.5066 56.8629 20.5066 56.7659 20.9315Z" fill="#FCF7F1"/>
<path d="M74.1207 24.1136C74.1207 25.918 72.6558 27.3802 70.8482 27.3802H48.6981C48.6902 27.3802 48.6824 27.3802 48.6746 27.3802C47.5305 27.3864 46.3865 26.9553 45.5132 26.0836L38.5894 19.1724C36.8569 17.443 36.8569 14.6404 38.5894 12.9126L54.8956 22.6186C55.2634 22.8373 55.6844 22.9529 56.1132 22.9529H73.5338C73.8562 22.9529 74.1175 23.2138 74.1175 23.5356V24.1121L74.1207 24.1136Z" fill="#00BF5F"/>
<path d="M70.5977 15.2684L71.6744 18.1163C71.8591 18.6053 72.5806 18.5068 72.6275 17.9851L72.8936 14.9497L70.5977 15.2684Z" fill="#FCF7F1"/>
<path d="M52.4854 20.7813C52.6701 21.2703 53.3916 21.1719 53.4386 20.6501L53.7046 17.6147L51.4087 17.9334L52.4854 20.7813Z" fill="#FCF7F1"/>
<path d="M55.2276 20.4C55.4123 20.889 56.1338 20.7905 56.1807 20.2688L56.4468 17.2334L54.1509 17.5521L55.2276 20.4Z" fill="#FCF7F1"/>
<path d="M57.9679 20.0191C58.1525 20.5081 58.874 20.4097 58.921 19.8879L59.187 16.8525L56.8911 17.1712L57.9679 20.0191Z" fill="#FCF7F1"/>
<path d="M60.7101 19.6392C60.8947 20.1282 61.6162 20.0298 61.6632 19.508L61.9292 16.4727L59.6333 16.7913L60.7101 19.6392Z" fill="#FCF7F1"/>
<path d="M63.4503 19.2584C63.635 19.7474 64.3564 19.6489 64.4034 19.1272L64.6695 16.0918L62.3735 16.4105L63.4503 19.2584Z" fill="#FCF7F1"/>
<path d="M66.1925 18.877C66.3772 19.366 67.0986 19.2676 67.1456 18.7458L67.4116 15.7104L65.1157 16.0291L66.1925 18.877Z" fill="#FCF7F1"/>
<path d="M68.9342 18.4957C69.1188 18.9847 69.8403 18.8862 69.8873 18.3645L70.1533 15.3291L67.8574 15.6478L68.9342 18.4957Z" fill="#FCF7F1"/>
<path d="M42.0815 8.21079C41.9888 8.68669 41.9869 9.18767 42.0916 9.69132L42.4034 11.21C42.8255 13.264 44.8341 14.5884 46.8918 14.1686C48.4449 13.8517 49.5808 12.6306 49.8645 11.1673C49.957 10.6929 49.959 10.1904 49.8543 9.68675L49.5426 8.16656C49.1205 6.11257 47.1119 4.78812 45.0542 5.20945C43.501 5.52633 42.3651 6.74746 42.0816 8.20924L42.0815 8.21079Z" fill="white"/>
<path d="M45.4096 10.5756C45.5971 11.2489 46.296 11.6429 46.9705 11.4557C47.6451 11.2685 48.0398 10.5709 47.8523 9.89757L47.3043 7.93041C47.1167 7.2571 46.4178 6.86306 45.7433 7.05029C45.0687 7.23752 44.674 7.93512 44.8616 8.60843L45.4096 10.5756Z" fill="black"/>
<path d="M61.8055 5.11867C59.8789 5.2624 58.4344 6.93864 58.5799 8.86016C58.7239 10.7817 60.4032 12.2236 62.3282 12.0799C62.5411 12.0642 62.7476 12.0283 62.9464 11.9768L67.2002 11.2691C68.7652 11.0082 69.8717 9.60064 69.7528 8.02125C69.6354 6.44655 68.3317 5.22022 66.751 5.19522L62.4315 5.12805C62.228 5.10774 62.0183 5.10305 61.8055 5.11867Z" fill="#00BF5F"/>
<path d="M52.7954 4.50018C51.3994 4.88761 50.5824 6.32953 50.9706 7.72302C51.0128 7.87611 51.0692 8.02296 51.1365 8.16199L52.2805 11.1817C52.7015 12.2925 53.9019 12.9002 55.0475 12.5815C56.1916 12.2643 56.9037 11.1286 56.6908 9.96322L56.1086 6.78257C56.093 6.62947 56.0664 6.47481 56.0241 6.32172C55.636 4.92823 54.1899 4.11276 52.7954 4.50018Z" fill="#00BF5F"/>
<path d="M45.8402 0.269607L65.7852 0.000907408C71.039 -0.0693919 75.4415 3.95329 75.8343 9.18356L75.9893 11.2457C76.1364 13.2078 74.7294 14.9434 72.7762 15.2121L47.2237 18.7052C46.8512 18.7786 46.4694 18.8317 46.0812 18.8614C40.9416 19.2457 36.464 15.3996 36.079 10.2693C35.6956 5.139 39.5503 0.669532 44.6884 0.285229C45.0765 0.255547 45.4615 0.252423 45.8402 0.269607ZM41.6788 11.355C42.2422 13.375 44.3378 14.5575 46.3614 13.9967C47.8889 13.5734 48.9375 12.2767 49.119 10.7973C49.1785 10.3177 49.1456 9.81625 49.0063 9.32103L48.59 7.826C48.0266 5.80607 45.931 4.62348 43.9074 5.18587C42.3799 5.60923 41.3313 6.90586 41.1498 8.38371C41.0903 8.86487 41.1232 9.36477 41.2625 9.85999L41.6788 11.3535V11.355ZM51.1363 8.16187L52.2804 11.1816C52.7014 12.2923 53.9018 12.9 55.0474 12.5814C56.1914 12.2642 56.9035 11.1285 56.6907 9.9631L56.1085 6.78244C56.0928 6.62935 56.0662 6.47469 56.024 6.32159C55.6359 4.92811 54.1898 4.11263 52.7953 4.50006C51.3993 4.88749 50.5823 6.3294 50.9704 7.72289C51.0127 7.87599 51.069 8.02284 51.1363 8.16187ZM62.3264 12.0814C62.5393 12.0658 62.7459 12.0299 62.9446 11.9783L67.1984 11.2707C68.7635 11.0098 69.87 9.60223 69.751 8.02284C69.6336 6.44813 68.3299 5.2218 66.7492 5.1968L62.4297 5.12963C62.2263 5.10932 62.0165 5.10464 61.8037 5.12026C59.8771 5.26398 58.4326 6.94023 58.5781 8.86174C58.7221 10.7833 60.4014 12.2252 62.3264 12.0814Z" fill="#00D86C"/>
<path d="M39.6649 4.26717C39.5147 4.26717 39.366 4.21093 39.2517 4.09689C39.0233 3.86881 39.0217 3.49856 39.2502 3.27048C40.6728 1.84419 42.565 0.975601 44.5792 0.824067C44.9141 0.799072 45.2568 0.794385 45.598 0.810007L65.9264 0.536621C65.9264 0.536621 65.9311 0.536621 65.9342 0.536621C66.2535 0.536621 66.5149 0.792823 66.5196 1.11308C66.5242 1.43645 66.266 1.70046 65.9421 1.70515L45.5964 1.97854C45.5839 1.97854 45.573 1.97854 45.5604 1.97854C45.26 1.96448 44.9595 1.9676 44.6668 1.98947C42.9343 2.11914 41.3051 2.86587 40.0812 4.09376C39.967 4.20781 39.8167 4.26561 39.6665 4.26561L39.6649 4.26717Z" fill="#00EC76"/>
<path d="M73.7202 7.80259L73.3415 6.84027L72.9627 5.87795C72.7749 5.39992 72.2334 5.16402 71.7545 5.35149C71.2756 5.54052 71.0393 6.07948 71.2271 6.55751L71.6058 7.51983L71.9846 8.48215C72.1724 8.96018 72.7139 9.19608 73.1928 9.00861C73.6717 8.81959 73.908 8.28063 73.7202 7.80259Z" fill="#00763B"/>
<path d="M51.3159 36.0656C51.3159 35.174 52.0387 34.4512 52.9303 34.4512H57.1131C58.0047 34.4512 58.7275 35.174 58.7275 36.0656V36.0656C58.7275 36.9572 58.0047 37.68 57.1131 37.68H52.9303C52.0387 37.68 51.3159 36.9572 51.3159 36.0656V36.0656Z" fill="#008C46"/>
<path d="M58.4133 34.4829C59.3152 34.4829 60.0464 35.2141 60.0464 36.116L60.0464 39.4956C60.0464 40.3975 59.3152 41.1287 58.4133 41.1287V41.1287C57.5114 41.1287 56.7803 40.3975 56.7803 39.4956L56.7803 36.116C56.7803 35.2141 57.5114 34.4829 58.4133 34.4829V34.4829Z" fill="#008C46"/>
<mask id="mask0_48_286" style="mask-type:alpha" maskUnits="userSpaceOnUse" x="0" y="12" width="53" height="53">
<path d="M37.0579 12.6646L48.1752 24.2633C48.1752 24.2633 50.1223 28.652 51.6298 31.536C53.1372 34.42 53.0744 45.3918 51.6298 49.0909C50.1851 52.7899 42.5223 62.5078 40.5124 63.4483C38.5025 64.3887 21.5438 64.8276 18.2149 63.4483C14.886 62.0689 7.16033 57.3041 5.59008 55.3605C4.01983 53.4169 2.76364 48.2758 2.44959 46.2069C2.13554 44.1379 0 25.141 0 25.141C0 25.141 4.52231 33.0407 8.29091 36.489C12.0595 39.9373 15.7025 42.0062 16.9587 42.0689C18.2149 42.1316 21.6066 35.1724 24.2446 33.1034C26.8826 31.0345 31.2793 29.8432 33.9802 28.2758C36.681 26.7084 37.0579 23.2602 37.0579 23.2602V12.6646Z" fill="#008C46"/>
</mask>
<g mask="url(#mask0_48_286)">
<path d="M33.9207 27.9983L34.683 28.7017C35.1995 29.1778 36.0042 29.1455 36.4802 28.6307C36.9572 28.1152 36.9248 27.3119 36.4091 26.8367L35.6511 26.1379L33.9198 27.9992L33.9207 27.9983Z" fill="#00763B"/>
<path d="M30.4036 30.1301L31.1659 30.8336C31.6824 31.3096 32.4872 31.2773 32.9632 30.7626C33.4401 30.247 33.4077 29.4437 32.892 28.9686L32.134 28.2697L30.4027 30.131L30.4036 30.1301Z" fill="#00763B"/>
<path d="M35.4285 20.2239L36.1908 20.9273C36.7073 21.4034 37.5121 21.3711 37.9881 20.8563C38.465 20.3407 38.4326 19.5375 37.9169 19.0623L37.1589 18.3635L35.4276 20.2247L35.4285 20.2239Z" fill="#00763B"/>
<path d="M35.3025 24.1111L36.0648 24.8145C36.5813 25.2906 37.3861 25.2583 37.8621 24.7435C38.339 24.228 38.3066 23.4247 37.791 22.9495L37.0329 22.2507L35.3016 24.1119L35.3025 24.1111Z" fill="#00763B"/>
<path d="M26.5095 31.76L27.2718 32.4635C27.7884 32.9395 28.5931 32.9072 29.0691 32.3925C29.546 31.8769 29.5137 31.0736 28.998 30.5984L28.24 29.8996L26.5086 31.7609L26.5095 31.76Z" fill="#00763B"/>
<path d="M22.992 34.1423L23.7543 34.8458C24.2708 35.3218 25.0755 35.2895 25.5515 34.7748C26.0285 34.2592 25.9961 33.4559 25.4804 32.9808L24.7224 32.2819L22.991 34.1432L22.992 34.1423Z" fill="#00763B"/>
<path d="M19.8513 37.1521L20.6136 37.8555C21.1302 38.3316 21.9349 38.2993 22.4109 37.7846C22.8878 37.269 22.8555 36.4657 22.3398 35.9905L21.5818 35.2917L19.8504 37.153L19.8513 37.1521Z" fill="#00763B"/>
<path d="M17.4646 40.4119L18.2269 41.1153C18.7434 41.5914 19.5482 41.5591 20.0242 41.0443C20.5011 40.5287 20.4688 39.7254 19.9531 39.2503L19.1951 38.5515L17.4637 40.4127L17.4646 40.4119Z" fill="#00763B"/>
<path d="M46.7144 38.395C48.914 37.6176 51.4634 37.9624 53.1226 38.3149C54.0162 38.5048 54.7982 38.7307 55.356 38.9087C55.6361 38.9981 55.864 39.0764 56.0259 39.1343C56.1067 39.1632 56.1714 39.1871 56.2183 39.2046C56.2417 39.2134 56.2615 39.2206 56.2759 39.2261C56.2829 39.2287 56.2887 39.2311 56.2935 39.2329C56.2959 39.2338 56.2985 39.2351 56.3003 39.2358L56.3022 39.2368H56.3032C56.3037 39.237 56.304 39.2371 55.3979 41.5669L56.3042 39.2378L58.7153 40.1743L57.6968 42.5522L52.8599 53.8374L52.7104 54.186L52.4644 54.4741L42.9536 65.6343L42.4771 66.1938L41.772 66.4058V66.4067H41.771L41.769 66.4077L41.7417 66.4155C41.7241 66.4208 41.6988 66.4278 41.6675 66.437C41.6043 66.4555 41.5134 66.482 41.3999 66.5142C41.1731 66.5784 40.8518 66.6668 40.4653 66.7671C39.6974 66.9663 38.6464 67.2181 37.5562 67.4136C36.4989 67.6031 35.263 67.7671 34.1743 67.728C33.6391 67.7088 32.9751 67.6364 32.3364 67.395C31.692 67.1514 30.775 66.6118 30.3345 65.4927C30.0532 64.7781 30.0441 64.0549 30.0728 63.5562C30.104 63.0111 30.2015 62.4453 30.3218 61.9097C30.5626 60.8371 30.9524 59.6334 31.3599 58.4927C31.7717 57.3398 32.2283 56.1778 32.6216 55.1841C33.0287 54.1552 33.3435 53.3656 33.519 52.855C33.9678 51.5496 34.734 49.7835 35.7026 48.0513C36.6554 46.3474 37.9044 44.4941 39.3716 43.1636C41.7554 41.0018 43.1981 39.6381 46.7144 38.395Z" fill="#00BF5F" stroke="#00763B" stroke-width="5"/>
</g>
<path d="M57.0261 40.3071C57.0261 40.1907 56.9394 40.0225 56.8206 40.0073C55.885 39.8864 55.0585 39.0962 55.1752 38.1624C55.1784 38.1368 55.1964 38.0225 55.1201 37.9899C55.0639 37.9659 54.9936 37.9735 54.9767 38.1025C54.8224 39.2933 55.5666 40.4546 56.7595 40.6086C56.8887 40.6255 57.0065 40.4671 57.0234 40.3381C57.0245 40.3278 57.0256 40.318 57.0256 40.3077L57.0261 40.3071Z" fill="black"/>
<path d="M57.0761 40.9731C56.7409 40.9731 56.4692 40.702 56.4692 40.3676C56.4692 40.0333 56.7409 39.7622 57.0761 39.7622L59.5022 39.7622C59.8373 39.7622 60.109 40.0333 60.109 40.3676C60.109 40.702 59.8373 40.9731 59.5022 40.9731L57.0761 40.9731Z" fill="#00763B"/>
<path d="M59.2993 41.7854C59.066 41.7854 58.7285 41.9585 58.698 42.1958C58.4565 44.063 56.8732 45.7141 55.0015 45.4807C54.9508 45.4741 54.7207 45.4382 54.6553 45.59C54.6073 45.7022 54.6226 45.8426 54.8805 45.8758C57.2663 46.1838 59.5932 44.6981 59.9013 42.3166C59.9345 42.0592 59.6177 41.823 59.3599 41.7898C59.3391 41.7871 59.319 41.786 59.2988 41.786L59.2993 41.7854Z" fill="black"/>
<path d="M56.1362 40.8294C56.0915 40.7216 55.9471 40.5992 55.8315 40.6307C54.921 40.8767 53.854 40.4626 53.6043 39.5548C53.5978 39.5303 53.57 39.4171 53.4876 39.416C53.4266 39.4155 53.3644 39.4492 53.3982 39.5744C53.7123 40.7336 54.8452 41.5222 56.0059 41.2087C56.1313 41.1749 56.1799 40.9834 56.1461 40.8582C56.1433 40.8484 56.1401 40.8386 56.1362 40.8294Z" fill="black"/>
<path d="M60.1083 41.7798C60.1083 42.2258 59.7462 42.5874 59.2995 42.5874C58.8528 42.5874 58.4907 42.2258 58.4907 41.7798L58.4907 40.1651C58.4907 39.7191 58.8528 39.3575 59.2995 39.3575C59.7462 39.3575 60.1083 39.7191 60.1083 40.1651L60.1083 41.7798Z" fill="#008C46"/>
<path d="M59.2365 40.9727L57.7454 40.9727C57.2636 40.9727 56.873 40.5828 56.873 40.1019L56.873 38.6135C56.873 38.1326 57.2636 37.7427 57.7454 37.7427L59.2365 37.7427C59.7183 37.7427 60.1088 38.1326 60.1088 38.6135L60.1088 40.1019C60.1088 40.5828 59.7183 40.9727 59.2365 40.9727Z" fill="#00BF5F"/>
<path d="M56.267 41.5781C55.9318 41.5781 55.6602 41.307 55.6602 40.9726C55.6602 40.6383 55.9318 40.3672 56.267 40.3672L58.6931 40.3672C59.0283 40.3672 59.2999 40.6383 59.2999 40.9726C59.2999 41.307 59.0283 41.5781 58.6931 41.5781L56.267 41.5781Z" fill="#00BF5F"/>
<path d="M27.6047 71.5986L23.8998 71.5986C22.7028 71.5986 21.7324 71.0689 21.7324 70.4155L21.7324 68.3931C21.7324 67.7396 22.7028 67.2099 23.8998 67.2099L27.6047 67.2099C28.8017 67.2099 29.7721 67.7396 29.7721 68.3931L29.7721 70.4155C29.7721 71.0689 28.8017 71.5986 27.6047 71.5986Z" fill="#008C46"/>
</g>
<defs>
<clipPath id="clip0_48_286">
<rect width="76" height="80" fill="white"/>
</clipPath>
</defs>
</svg>
