<svg width="76" height="80" viewBox="0 0 76 80" fill="none" xmlns="http://www.w3.org/2000/svg">
<g clip-path="url(#clip0_48_196)">
<path d="M37.0579 12.4141L48.1752 24.0128C48.1752 24.0128 50.1223 28.4015 51.6298 31.2855C53.1372 34.1695 53.0744 45.1413 51.6298 48.8404C50.1851 52.5395 42.5223 62.2573 40.5124 63.1978C38.5025 64.1382 21.5438 64.5771 18.2149 63.1978C14.886 61.8185 7.16033 57.0536 5.59008 55.11C4.01983 53.1664 2.76364 48.0253 2.44959 45.9564C2.13554 43.8874 0 24.8906 0 24.8906C0 24.8906 4.52231 32.7902 8.29091 36.2385C12.0595 39.6868 15.7653 41.7558 16.9587 41.8185C18.1521 41.8811 21.6066 34.9219 24.2446 32.8529C26.8826 30.784 31.2793 29.5927 33.9802 28.0253C36.681 26.458 37.0579 23.0097 37.0579 23.0097V12.4141Z" fill="#008C46"/>
<path d="M23.0513 61.5677C26.3174 63.2605 30.3373 63.2605 30.3373 63.2605L25.2323 76.1081C25.0533 78.3107 25.2114 79.7102 22.2976 79.3734L20.4761 78.4956C19.3838 78.3693 19.0983 73.6943 19.0315 72.853L17.4695 54.922C17.4695 54.922 19.7852 59.8749 23.0513 61.5677Z" fill="#008C46"/>
<path d="M33.5419 62.7588C37.0506 61.6505 40.9837 59.3247 40.9837 59.3247C40.9837 59.3247 40.2928 69.7949 40.2299 71.0488C40.1671 72.3027 40.6068 74.309 40.6068 74.309C40.6068 74.309 43.2448 74.0582 44.6266 74.8106C46.0085 75.5629 44.6266 77.6946 44.6266 77.6946C43.7648 78.3763 42.7423 78.4513 40.9837 78.4513L37.0895 78.4513L32.4415 63.9015L33.5419 62.7588Z" fill="#008C46"/>
<path d="M73.3863 20.7308C73.3863 22.5352 71.9214 23.9974 70.1138 23.9974H47.9637C47.9558 23.9974 47.948 23.9974 47.9402 23.9974C46.7961 24.0036 45.6521 23.5725 44.7788 22.7008L37.855 15.7896C36.1225 14.0602 36.1225 11.2576 37.855 9.52979L44.7788 17.1787C45.1466 17.3974 54.95 19.5701 55.3789 19.5701H72.7994C73.1218 19.5701 73.3832 19.831 73.3832 20.1528V20.7292L73.3863 20.7308Z" fill="#00BF5F"/>
<path d="M42.0649 7.95001C41.947 8.32742 41.9004 8.73328 41.9399 9.15086L42.0561 10.4096C42.2135 12.1122 43.7224 13.3656 45.4278 13.2097C46.7151 13.092 47.7455 12.2041 48.107 11.0435C48.2246 10.6674 48.2714 10.2602 48.2319 9.84267L48.116 8.58266C47.9586 6.88012 46.4497 5.62671 44.7441 5.78383C43.4568 5.9015 42.4263 6.78942 42.0651 7.94876L42.0649 7.95001Z" fill="white"/>
<path d="M42.7108 11.0417C42.7108 12.0766 43.7794 12.9155 45.0976 12.9155C46.4158 12.9155 47.4844 12.0766 47.4844 11.0417L47.4844 8.01818C47.4844 6.9833 46.4158 6.14437 45.0976 6.14437C43.7794 6.14437 42.7108 6.9833 42.7108 8.01818L42.7108 11.0417Z" fill="black"/>
<path d="M61.9113 6.78908C59.9805 6.72025 58.3599 8.22759 58.2927 10.1534C58.2239 12.0791 59.734 13.6967 61.6632 13.7654C61.8764 13.7733 62.0857 13.7602 62.289 13.7308L66.595 13.4949C68.1793 13.4075 69.4342 12.1301 69.4902 10.5472C69.5472 8.9692 68.3867 7.60708 66.8183 7.40856L62.5324 6.86718C62.3325 6.82464 62.1245 6.79694 61.9113 6.78908Z" fill="#00BF5F"/>
<path d="M53.0246 5.18386C51.5943 5.41554 50.6233 6.75893 50.8554 8.1866C50.8805 8.34341 50.9203 8.49555 50.9719 8.64114L51.776 11.7682C52.0719 12.9185 53.198 13.6544 54.3718 13.4635C55.5439 13.274 56.3769 12.2234 56.2939 11.0417L56.066 7.81641C56.0673 7.66253 56.0579 7.50588 56.0328 7.34908C55.8007 5.92141 54.4533 4.952 53.0246 5.18386Z" fill="#00BF5F"/>
<path d="M46.5782 0.214958L66.4316 2.13936C71.6612 2.64676 75.5934 7.12872 75.407 12.3704L75.3336 14.437C75.2635 16.4033 73.6737 17.9738 71.7027 18.0263L45.9203 18.6905C45.542 18.7226 45.1565 18.7334 44.7675 18.7203C39.6167 18.5375 35.5905 14.2228 35.7736 9.08136C35.9582 3.94012 40.2824 -0.0786571 45.4316 0.103922C45.8206 0.117067 46.2036 0.156263 46.5782 0.214958ZM41.2195 10.7758C41.5568 12.8453 43.5092 14.251 45.5824 13.9159C47.1473 13.663 48.3325 12.4894 48.6761 11.0389C48.7881 10.5688 48.8107 10.0668 48.7269 9.55925L48.478 8.02757C48.1407 5.958 46.1883 4.55234 44.1149 4.88897C42.55 5.14193 41.3649 6.31546 41.0214 7.76438C40.9093 8.23608 40.8868 8.73656 40.9706 9.24408L41.2197 10.7742L41.2195 10.7758ZM50.9718 8.64118L51.7759 11.7683C52.0718 12.9185 53.1979 13.6544 54.3717 13.4635C55.5438 13.274 56.3768 12.2235 56.2937 11.0417L56.0658 7.81645C56.0672 7.66257 56.0578 7.50592 56.0327 7.34912C55.8006 5.92145 54.4532 4.95204 53.0245 5.1839C51.5942 5.41558 50.6232 6.75897 50.8553 8.18664C50.8804 8.34345 50.9202 8.49559 50.9718 8.64118ZM61.6616 13.7665C61.8749 13.7743 62.0842 13.7613 62.2874 13.7319L66.5934 13.4959C68.1777 13.4086 69.4327 12.1311 69.4887 10.5483C69.5456 8.97025 68.3851 7.60813 66.8168 7.40961L62.5309 6.86823C62.3309 6.82569 62.123 6.79799 61.9097 6.79013C59.979 6.7213 58.3584 8.22864 58.2912 10.1545C58.2224 12.0801 59.7325 13.6978 61.6616 13.7665Z" fill="#00D86C"/>
<path d="M39.999 3.50999C39.8497 3.49348 39.7081 3.42124 39.6071 3.29534C39.4052 3.04354 39.4444 2.67537 39.6967 2.47378C41.268 1.21247 43.2444 0.557062 45.2631 0.627762C45.5987 0.639718 45.9399 0.672719 46.2773 0.725734L66.5123 2.6876C66.5123 2.6876 66.517 2.68812 66.5201 2.68846C66.8374 2.72354 67.0689 3.00691 67.0383 3.32573C67.0073 3.64766 66.7215 3.88169 66.399 3.85075L46.1469 1.88699C46.1344 1.88562 46.1235 1.88441 46.1111 1.88304C45.814 1.83604 45.515 1.80613 45.2217 1.79572C43.4854 1.73423 41.7837 2.29742 40.4319 3.38338C40.3058 3.48417 40.1501 3.52511 40.0007 3.5086L39.999 3.50999Z" fill="#00EC76"/>
<path d="M73.4575 10.7656L73.1872 9.7675L72.9169 8.76942C72.783 8.27365 72.2708 7.97969 71.7741 8.1134C71.2773 8.24866 70.9829 8.75838 71.1169 9.25414L71.3872 10.2522L71.6575 11.2503C71.7915 11.7461 72.3037 12.04 72.8003 11.9063C73.2972 11.7711 73.5915 11.2614 73.4575 10.7656Z" fill="#00763B"/>
<path d="M51.3159 35.8151C51.3159 34.9235 52.0387 34.2007 52.9303 34.2007H57.1131C58.0047 34.2007 58.7275 34.9235 58.7275 35.8151V35.8151C58.7275 36.7067 58.0047 37.4295 57.1131 37.4295H52.9303C52.0387 37.4295 51.3159 36.7067 51.3159 35.8151V35.8151Z" fill="#008C46"/>
<path d="M58.4133 34.2324C59.3152 34.2324 60.0464 34.9636 60.0464 35.8655L60.0464 39.2451C60.0464 40.147 59.3152 40.8782 58.4133 40.8782V40.8782C57.5114 40.8782 56.7803 40.147 56.7803 39.2451L56.7803 35.8655C56.7803 34.9636 57.5114 34.2324 58.4133 34.2324V34.2324Z" fill="#008C46"/>
<mask id="mask0_48_196" style="mask-type:alpha" maskUnits="userSpaceOnUse" x="0" y="12" width="53" height="53">
<path d="M37.0579 12.4141L48.1752 24.0128C48.1752 24.0128 50.1223 28.4015 51.6298 31.2855C53.1372 34.1695 53.0744 45.1413 51.6298 48.8404C50.1851 52.5395 42.5223 62.2573 40.5124 63.1978C38.5025 64.1382 21.5438 64.5771 18.2149 63.1978C14.886 61.8185 7.16033 57.0536 5.59008 55.11C4.01983 53.1664 2.76364 48.0253 2.44959 45.9564C2.13554 43.8874 0 24.8906 0 24.8906C0 24.8906 4.52231 32.7902 8.29091 36.2385C12.0595 39.6868 15.7025 41.7558 16.9587 41.8185C18.2149 41.8811 21.6066 34.9219 24.2446 32.8529C26.8826 30.784 31.2793 29.5927 33.9802 28.0253C36.681 26.458 37.0579 23.0097 37.0579 23.0097V12.4141Z" fill="#008C46"/>
</mask>
<g mask="url(#mask0_48_196)">
<path d="M33.9207 27.7478L34.683 28.4512C35.1995 28.9273 36.0042 28.895 36.4802 28.3803C36.9572 27.8647 36.9248 27.0614 36.4091 26.5862L35.6511 25.8874L33.9198 27.7487L33.9207 27.7478Z" fill="#00763B"/>
<path d="M30.4036 29.8797L31.1659 30.5831C31.6824 31.0591 32.4872 31.0268 32.9632 30.5121C33.4401 29.9965 33.4077 29.1932 32.892 28.7181L32.134 28.0192L30.4027 29.8805L30.4036 29.8797Z" fill="#00763B"/>
<path d="M35.4285 19.9739L36.1908 20.6773C36.7073 21.1534 37.5121 21.1211 37.9881 20.6063C38.465 20.0907 38.4326 19.2875 37.9169 18.8123L37.1589 18.1135L35.4276 19.9747L35.4285 19.9739Z" fill="#00763B"/>
<path d="M35.3025 23.8606L36.0648 24.564C36.5813 25.0401 37.3861 25.0078 37.8621 24.4931C38.339 23.9775 38.3066 23.1742 37.791 22.699L37.0329 22.0002L35.3016 23.8615L35.3025 23.8606Z" fill="#00763B"/>
<path d="M26.5095 31.5095L27.2718 32.213C27.7884 32.689 28.5931 32.6567 29.0691 32.142C29.546 31.6264 29.5137 30.8231 28.998 30.348L28.24 29.6491L26.5086 31.5104L26.5095 31.5095Z" fill="#00763B"/>
<path d="M22.992 33.8923L23.7543 34.5958C24.2708 35.0718 25.0755 35.0395 25.5515 34.5248C26.0285 34.0092 25.9961 33.2059 25.4804 32.7308L24.7224 32.0319L22.991 33.8932L22.992 33.8923Z" fill="#00763B"/>
<path d="M19.8513 36.9016L20.6136 37.6051C21.1302 38.0811 21.9349 38.0488 22.4109 37.5341C22.8878 37.0185 22.8555 36.2152 22.3398 35.74L21.5818 35.0412L19.8504 36.9025L19.8513 36.9016Z" fill="#00763B"/>
<path d="M17.4646 40.1619L18.2269 40.8653C18.7434 41.3414 19.5482 41.3091 20.0242 40.7943C20.5011 40.2787 20.4688 39.4754 19.9531 39.0003L19.1951 38.3015L17.4637 40.1627L17.4646 40.1619Z" fill="#00763B"/>
<path d="M46.7144 38.145C48.914 37.3676 51.4634 37.7124 53.1226 38.0649C54.0162 38.2548 54.7982 38.4807 55.356 38.6587C55.6361 38.7481 55.864 38.8264 56.0259 38.8843C56.1067 38.9132 56.1714 38.9371 56.2183 38.9546C56.2417 38.9634 56.2615 38.9706 56.2759 38.9761C56.2829 38.9787 56.2887 38.9811 56.2935 38.9829C56.2959 38.9838 56.2985 38.9851 56.3003 38.9858L56.3022 38.9868H56.3032C56.3037 38.987 56.304 38.9871 55.3979 41.3169L56.3042 38.9878L58.7153 39.9243L57.6968 42.3022L52.8599 53.5874L52.7104 53.936L52.4644 54.2241L42.9536 65.3843L42.4771 65.9438L41.772 66.1558V66.1567H41.771L41.769 66.1577L41.7417 66.1655C41.7241 66.1708 41.6988 66.1778 41.6675 66.187C41.6043 66.2055 41.5134 66.232 41.3999 66.2642C41.1731 66.3284 40.8518 66.4168 40.4653 66.5171C39.6974 66.7163 38.6464 66.9681 37.5562 67.1636C36.4989 67.3531 35.263 67.5171 34.1743 67.478C33.6391 67.4588 32.9751 67.3864 32.3364 67.145C31.692 66.9014 30.775 66.3618 30.3345 65.2427C30.0532 64.5281 30.0441 63.8049 30.0728 63.3062C30.104 62.7611 30.2015 62.1953 30.3218 61.6597C30.5626 60.5871 30.9524 59.3834 31.3599 58.2427C31.7717 57.0898 32.2283 55.9278 32.6216 54.9341C33.0287 53.9052 33.3435 53.1156 33.519 52.605C33.9678 51.2996 34.734 49.5335 35.7026 47.8013C36.6554 46.0974 37.9044 44.2441 39.3716 42.9136C41.7554 40.7518 43.1981 39.3881 46.7144 38.145Z" fill="#00BF5F" stroke="#00763B" stroke-width="5"/>
</g>
<path d="M57.0261 40.0566C57.0261 39.9402 56.9394 39.772 56.8206 39.7568C55.885 39.636 55.0585 38.8458 55.1752 37.9119C55.1784 37.8863 55.1964 37.772 55.1201 37.7394C55.0639 37.7154 54.9936 37.723 54.9767 37.852C54.8224 39.0428 55.5666 40.2041 56.7595 40.3581C56.8887 40.375 57.0065 40.2166 57.0234 40.0877C57.0245 40.0773 57.0256 40.0675 57.0256 40.0572L57.0261 40.0566Z" fill="black"/>
<path d="M57.0761 40.7226C56.7409 40.7226 56.4692 40.4515 56.4692 40.1172C56.4692 39.7828 56.7409 39.5117 57.0761 39.5117L59.5022 39.5117C59.8373 39.5117 60.109 39.7828 60.109 40.1172C60.109 40.4515 59.8373 40.7226 59.5022 40.7226L57.0761 40.7226Z" fill="#00763B"/>
<path d="M59.2993 41.5349C59.066 41.5349 58.7285 41.708 58.698 41.9453C58.4565 43.8125 56.8732 45.4636 55.0015 45.2302C54.9508 45.2236 54.7207 45.1877 54.6553 45.3396C54.6073 45.4517 54.6226 45.5921 54.8805 45.6253C57.2663 45.9333 59.5932 44.4476 59.9013 42.0661C59.9345 41.8087 59.6177 41.5725 59.3599 41.5393C59.3391 41.5366 59.319 41.5355 59.2988 41.5355L59.2993 41.5349Z" fill="black"/>
<path d="M56.1362 40.5789C56.0915 40.4711 55.9471 40.3487 55.8315 40.3802C54.921 40.6262 53.854 40.2121 53.6043 39.3043C53.5978 39.2798 53.57 39.1666 53.4876 39.1656C53.4266 39.165 53.3644 39.1988 53.3982 39.3239C53.7123 40.4831 54.8452 41.2717 56.0059 40.9582C56.1313 40.9245 56.1799 40.7329 56.1461 40.6077C56.1433 40.5979 56.1401 40.5881 56.1362 40.5789Z" fill="black"/>
<path d="M60.1083 41.5293C60.1083 41.9753 59.7462 42.3369 59.2995 42.3369C58.8528 42.3369 58.4907 41.9753 58.4907 41.5293L58.4907 39.9146C58.4907 39.4686 58.8528 39.107 59.2995 39.107C59.7462 39.107 60.1083 39.4686 60.1083 39.9146L60.1083 41.5293Z" fill="#008C46"/>
<path d="M59.2365 40.7222L57.7454 40.7222C57.2636 40.7222 56.873 40.3323 56.873 39.8514L56.873 38.363C56.873 37.8821 57.2636 37.4923 57.7454 37.4923L59.2365 37.4923C59.7183 37.4923 60.1088 37.8821 60.1088 38.363L60.1088 39.8514C60.1088 40.3323 59.7183 40.7222 59.2365 40.7222Z" fill="#00BF5F"/>
<path d="M56.267 41.3276C55.9318 41.3276 55.6602 41.0565 55.6602 40.7221C55.6602 40.3878 55.9318 40.1167 56.267 40.1167L58.6931 40.1167C59.0283 40.1167 59.2999 40.3878 59.2999 40.7221C59.2999 41.0565 59.0283 41.3276 58.6931 41.3276L56.267 41.3276Z" fill="#00BF5F"/>
<path d="M25.3435 79.624L21.6386 79.624C20.4416 79.624 19.4712 79.0943 19.4712 78.4409L19.4712 76.4185C19.4712 75.765 20.4416 75.2353 21.6386 75.2353L25.3435 75.2353C26.5405 75.2353 27.5109 75.765 27.5109 76.4184L27.5109 78.4409C27.5109 79.0943 26.5405 79.624 25.3435 79.624Z" fill="#008C46"/>
<path d="M48.1123 18.9967C48.1123 18.5465 48.4772 18.1816 48.9274 18.1816H72.9237C73.3738 18.1816 73.7388 18.5465 73.7388 18.9967V18.9967C73.7388 19.4468 73.3738 19.8117 72.9237 19.8117H48.9274C48.4772 19.8117 48.1123 19.4468 48.1123 18.9967V18.9967Z" fill="#FCF7F1"/>
</g>
<defs>
<clipPath id="clip0_48_196">
<rect width="76" height="80" fill="white"/>
</clipPath>
</defs>
</svg>
