<svg width="75" height="78" viewBox="0 0 75 78" fill="none" xmlns="http://www.w3.org/2000/svg">
<g clip-path="url(#clip0_48_415)">
<path d="M18.5292 44.3668C18.5292 44.3668 18.5242 45.6678 18.7158 46.8C18.9074 47.9323 21.8292 52.012 21.8292 52.012C26.7401 58.4936 34.4103 62.3018 42.5519 62.3018H49.1822C49.3158 62.3018 49.428 62.2502 49.5099 62.1697C50.5485 61.8275 51.2998 60.8537 51.2998 59.7013C51.2998 58.2659 50.1338 57.1022 48.6956 57.1022H45.4649L42.296 53.6677C41.2322 52.514 40.641 51.0043 40.641 49.4368V41.7651L33.6553 36.1694C32.0878 34.101 28.9162 33.8115 26.9746 35.6662C24.9451 37.5952 18.5292 41.2522 18.5292 44.3668Z" fill="#A52E23"/>
<path d="M12.4088 34.5679H14.7092C16.3189 34.5679 17.742 33.5753 18.3294 32.1273L18.5348 32.043L26.0979 39.2315C26.3928 39.5121 26.7054 39.7675 27.0357 39.9977C28.4638 40.9979 31.5395 40.8243 31.5395 40.8243C31.5395 40.8243 37.8395 41.4734 38.5113 41.4734H66.5663H73.1273C74.2063 41.4734 75.0811 42.3465 75.0811 43.4234C75.0811 44.5003 74.2063 45.3734 73.1273 45.3734H69.5399L60.86 51.9154L67.8092 58.8511C68.4092 59.4499 67.8042 60.4526 66.9924 60.201L51.429 55.3788C51.0382 55.258 50.6323 55.1964 50.2227 55.1964H39.3874C35.0941 55.1964 30.9748 53.503 27.9269 50.4849L12.0155 34.7315L12.4088 34.5692V34.5679Z" fill="#993C3A"/>
<path d="M18.6991 31.4631L19.2827 28.5394L19.7629 28.3481L26.097 34.3692C26.3919 34.6498 26.7045 34.9052 27.0348 35.1354C28.4629 36.1356 30.4319 35.8122 31.4844 34.4233V39.287C30.4319 40.6759 28.4629 40.998 27.0348 39.9991C26.7058 39.7689 26.3919 39.5135 26.097 39.2329L18.534 32.0443C18.602 31.8569 18.6587 31.6644 18.6991 31.4644V31.4631Z" fill="#A52E23"/>
<path d="M60.6131 51.8975L63.9863 49.355L71.1749 56.5297C71.7686 57.1223 71.1837 58.1149 70.377 57.8847L65.1119 56.3863L60.6144 51.8975H60.6131Z" fill="#C25F4B"/>
<path d="M16.4954 34.3149L29.5517 47.2416C32.5996 50.2597 36.7189 51.953 41.0122 51.953H51.8475C52.2559 51.953 52.663 52.0147 53.0538 52.1354L64.6958 55.7423L67.8093 58.8497C68.4093 59.4486 67.8042 60.4512 66.9925 60.1996L51.429 55.3775C51.0382 55.2567 50.6324 55.195 50.2227 55.195H39.3874C35.0941 55.195 30.9748 53.5017 27.9269 50.4836L12.0143 34.7301H14.708C15.3446 34.7301 15.9521 34.5804 16.4941 34.3149H16.4954Z" fill="#C25F4B"/>
<path d="M2.11425 29.6552C2.15585 29.6389 2.19745 29.6238 2.2403 29.6087L19.5571 23.9021L23.9172 22.4314C25.0504 22.049 26.2794 22.6554 26.6626 23.7864C27.0458 24.9174 26.4382 26.144 25.305 26.5264L19.2798 28.5595L18.7 31.4618C18.3206 33.3615 16.6504 34.729 14.7105 34.729H2.59324C1.17644 34.729 0.0281214 33.5829 0.0281214 32.1689C0.0281214 30.9183 0.928122 29.8779 2.11678 29.654L2.11425 29.6552Z" fill="#E68744"/>
<path d="M0.212497 33.1237C0.0940101 32.8293 0.027207 32.5073 0.027207 32.1701C0.027207 30.8793 0.985188 29.8138 2.23057 29.6376L2.24065 29.6087L23.9163 22.4314V22.4365L23.9327 22.4314C25.0659 22.049 26.2949 22.6554 26.678 23.7864C26.7272 23.9298 26.7587 24.0757 26.7764 24.2204L23.8016 25.2004L5.41208 31.3763L0.212497 33.1225V33.1237Z" fill="#993C3A"/>
<path d="M14.2078 29.0614C14.2368 29.2296 14.2368 29.7282 14.2368 29.7282L14.2318 30.395C14.2255 31.297 13.4868 32.0229 12.583 32.0166C11.9011 32.0116 11.32 31.5901 11.078 30.9963C10.9998 30.8038 10.957 30.5925 10.9582 30.3711L10.9633 29.7043C10.9696 28.8023 11.6868 28.6211 12.583 28.3695C13.1364 28.2141 13.9003 27.9291 14.1171 28.4953C14.1929 28.6934 14.2078 29.0614 14.2078 29.0614Z" fill="white"/>
<path d="M12.5922 30.483C12.59 30.7838 12.3438 31.0259 12.0424 31.0236C11.7409 31.0214 11.4984 30.7756 11.5007 30.4748L11.5073 29.5967C11.5095 29.2959 11.7557 29.0538 12.0572 29.0561C12.3586 29.0583 12.6011 29.304 12.5988 29.6049L12.5922 30.483Z" fill="black"/>
<path d="M29.2689 47.5863L43.2945 66.0975C48.2054 72.579 55.8756 76.3872 64.0172 76.3872H66.2811C66.2811 76.3872 66.2836 76.3872 66.2848 76.3872H70.263C70.263 76.3872 70.2655 76.3872 70.2668 76.3872H70.6487C70.7558 76.3872 70.8491 76.3532 70.9235 76.2991C72.0416 76.0073 72.8672 74.9945 72.8672 73.7868C72.8672 72.3513 71.7012 71.1876 70.263 71.1876H65.4554C65.4554 71.1876 61.1703 66.6561 59.8467 63.8883C59.8467 59.6109 60.4134 58.4371 60.4134 52.5871C61.1067 48.8758 67.3235 45.3986 67.3235 45.3986H70.9109C71.9899 45.3986 72.8647 44.5255 72.8647 43.4486C72.8647 42.3717 71.9899 41.4986 70.9109 41.4986H67.3235L56.0652 39.1045C56.0652 39.1045 35.8341 34.3454 34.7627 34.198C33.6913 34.0506 28.7584 33.3689 25.7105 36.387C25.7105 36.387 24.4467 41.223 29.2689 47.5863Z" fill="#993C3A"/>
<path d="M64.308 49.0882L68.9101 45.4574H36.1181C35.7463 45.4574 35.411 45.6638 35.2446 45.9971C35.0782 46.3293 35.1148 46.7205 35.3379 47.0174L47.3127 62.8879C51.132 67.9277 56.9531 71.093 63.2845 71.5698H66.9022L63.5845 67.9743C62.5207 66.8206 61.9307 65.311 61.9307 63.7434V53.9896C61.9307 52.0786 62.8068 50.2733 64.308 49.0895V49.0882Z" fill="#E68744"/>
</g>
<defs>
<clipPath id="clip0_48_415">
<rect width="75" height="78" fill="white" transform="matrix(-1 0 0 1 75 0)"/>
</clipPath>
</defs>
</svg>
