<svg width="1206" height="256" viewBox="0 0 1206 256" fill="none" xmlns="http://www.w3.org/2000/svg">
<path d="M1 48H1206V255H1V48Z" fill="#DFB79F"/>
<path d="M306.899 49.3002L314.825 43.6413C315.818 42.9334 317.052 42.6653 318.246 42.903L326.616 44.5668C328.032 44.85 329.221 45.8007 329.8 47.1257L331.196 50.2964C331.196 50.2964 320.736 56.0058 306.899 49.3002Z" fill="#EBD5C6"/>
<path d="M325.517 44.3491C325.517 44.3491 325.774 52.0358 306.899 49.2999C306.899 49.2999 314.251 53.4467 322.474 52.5617C322.474 52.5617 327.336 52.5718 331.201 50.2962C331.201 50.2962 330.717 47.3479 328.833 45.229C328.833 45.229 327.619 44.2277 325.512 44.3491H325.517Z" fill="#A78B78"/>
<path d="M90.7705 68.5499L97.2411 63.9302C98.0515 63.3522 99.0593 63.1334 100.034 63.3274L106.867 64.6857C108.023 64.9169 108.993 65.693 109.467 66.7746L110.606 69.3632C110.606 69.3632 102.066 74.0241 90.7705 68.5499Z" fill="#EBD5C6"/>
<path d="M105.97 64.5078C105.97 64.5078 106.18 70.783 90.7705 68.5496C90.7705 68.5496 96.7722 71.9349 103.485 71.2124C103.485 71.2124 107.455 71.2206 110.61 69.3629C110.61 69.3629 110.215 66.956 108.677 65.2262C108.677 65.2262 107.685 64.4088 105.966 64.5078H105.97Z" fill="#A78B78"/>
<path d="M843.445 69.7833L849.916 65.1636C850.726 64.5856 851.734 64.3668 852.709 64.5608L859.542 65.9191C860.697 66.1502 861.668 66.9264 862.141 68.008L863.281 70.5965C863.281 70.5965 854.741 75.2575 843.445 69.7833Z" fill="#EBD5C6"/>
<path d="M858.645 65.7412C858.645 65.7412 858.855 72.0164 843.445 69.783C843.445 69.783 849.447 73.1683 856.16 72.4458C856.16 72.4458 860.13 72.454 863.285 70.5963C863.285 70.5963 862.89 68.1894 861.352 66.4596C861.352 66.4596 860.36 65.6422 858.641 65.7412H858.645Z" fill="#A78B78"/>
<path d="M777 50.3837L780.914 47.5895C781.404 47.2399 782.013 47.1075 782.603 47.2249L786.736 48.0464C787.435 48.1863 788.022 48.6557 788.308 49.31L788.998 50.8756C788.998 50.8756 783.832 53.6948 777 50.3837Z" fill="#EBD5C6"/>
<path d="M786.193 47.9386C786.193 47.9386 786.32 51.7342 777 50.3833C777 50.3833 780.63 52.4309 784.691 51.9939C784.691 51.9939 787.092 51.9989 789 50.8752C789 50.8752 788.761 49.4194 787.831 48.3731C787.831 48.3731 787.231 47.8787 786.191 47.9386H786.193Z" fill="#A78B78"/>
<path d="M1146.83 68.5499L1153.3 63.9302C1154.11 63.3522 1155.12 63.1334 1156.1 63.3274L1162.93 64.6857C1164.08 64.9169 1165.05 65.693 1165.53 66.7746L1166.67 69.3632C1166.67 69.3632 1158.13 74.0241 1146.83 68.5499Z" fill="#EBD5C6"/>
<path d="M1162.03 64.5078C1162.03 64.5078 1162.24 70.783 1146.83 68.5496C1146.83 68.5496 1152.83 71.9349 1159.55 71.2124C1159.55 71.2124 1163.52 71.2206 1166.67 69.3629C1166.67 69.3629 1166.28 66.956 1164.74 65.2262C1164.74 65.2262 1163.75 64.4088 1162.03 64.5078H1162.03Z" fill="#A78B78"/>
<path d="M548.485 128.414L566.319 115.681C568.552 114.088 571.33 113.485 574.017 114.02L592.848 117.764C596.034 118.401 598.709 120.54 600.013 123.521L603.154 130.655C603.154 130.655 579.617 143.501 548.485 128.414Z" fill="#EBD5C6"/>
<path d="M590.376 117.274C590.376 117.274 590.955 134.57 548.485 128.414C548.485 128.414 565.026 137.744 583.529 135.753C583.529 135.753 594.469 135.776 603.165 130.655C603.165 130.655 602.077 124.022 597.836 119.254C597.836 119.254 595.104 117.001 590.365 117.274H590.376Z" fill="#A78B78"/>
<path d="M1139.28 109.559L1157.12 96.8268C1159.35 95.2338 1162.13 94.6308 1164.81 95.1656L1183.65 98.9091C1186.83 99.5463 1189.51 101.685 1190.81 104.667L1193.95 111.801C1193.95 111.801 1170.42 124.647 1139.28 109.559Z" fill="#EBD5C6"/>
<path d="M1181.17 98.4199C1181.17 98.4199 1181.75 115.715 1139.28 109.559C1139.28 109.559 1155.82 118.89 1174.33 116.898C1174.33 116.898 1185.27 116.921 1193.96 111.801C1193.96 111.801 1192.87 105.167 1188.63 100.4C1188.63 100.4 1185.9 98.1469 1181.16 98.4199H1181.17Z" fill="#A78B78"/>
<path d="M920.176 92.2706L924.232 89.3751C924.741 89.0117 925.374 88.8755 925.98 89.0004L930.262 89.852C930.986 89.9939 931.591 90.4822 931.891 91.1635L932.604 92.7872C932.604 92.7872 927.247 95.7054 920.17 92.2763L920.176 92.2706Z" fill="#EBD5C6"/>
<path d="M929.696 89.7382C929.696 89.7382 929.826 93.6727 920.175 92.2704C920.175 92.2704 923.937 94.3937 928.14 93.9395C928.14 93.9395 930.629 93.9395 932.604 92.7813C932.604 92.7813 932.355 91.2711 931.393 90.1867C931.393 90.1867 930.771 89.6757 929.696 89.7382Z" fill="#A78B78"/>
<path d="M935.992 80.3761L944.116 70.3043C945.683 68.3626 947.974 67.1533 950.452 66.9602L965.415 65.802C969.041 65.5181 972.486 67.4428 974.155 70.6846L978.46 79.0419C978.46 79.0419 963.921 86.3715 935.987 80.3761H935.992Z" fill="#EBD5C6"/>
<path d="M965.415 65.8024C965.415 65.8024 981.622 81.9491 935.987 80.3821C935.987 80.3821 959.854 87.0304 978.46 79.0479C978.46 79.0479 976.106 72.2747 972.407 68.3345C970.404 66.2055 967.858 65.4674 965.415 65.8024Z" fill="#A78B78"/>
<path d="M141.167 136.504L146.86 132.44C147.575 131.93 148.464 131.738 149.314 131.914L155.325 133.109C156.341 133.308 157.191 133.994 157.611 134.95L158.612 137.229C158.612 137.229 151.092 141.325 141.159 136.512L141.167 136.504Z" fill="#EBD5C6"/>
<path d="M154.53 132.95C154.53 132.95 154.713 138.472 141.167 136.504C141.167 136.504 146.447 139.484 152.347 138.847C152.347 138.847 155.841 138.847 158.612 137.221C158.612 137.221 158.262 135.101 156.913 133.579C156.913 133.579 156.039 132.862 154.53 132.95Z" fill="#A78B78"/>
<path d="M163.368 119.809L174.77 105.672C176.97 102.946 180.186 101.249 183.664 100.978L204.666 99.3522C209.755 98.9538 214.591 101.655 216.933 106.206L222.976 117.936C222.976 117.936 202.569 128.224 163.36 119.809H163.368Z" fill="#EBD5C6"/>
<path d="M204.666 99.3526C204.666 99.3526 227.414 122.016 163.36 119.817C163.36 119.817 196.86 129.149 222.976 117.944C222.976 117.944 219.673 108.437 214.48 102.907C211.669 99.9184 208.096 98.8824 204.666 99.3526Z" fill="#A78B78"/>
<path d="M1038.09 206.291H985.279" stroke="#A78B78" stroke-width="10" stroke-linecap="round" stroke-linejoin="round"/>
<path d="M1045.58 168.197L1041.3 178.574C1039.8 182.187 1035.68 183.898 1032.08 182.402L1019.29 177.959" stroke="#A78B78" stroke-width="6" stroke-miterlimit="10"/>
<path d="M988.247 170.854L1002 174.924C1002.35 175.065 1002.73 175.176 1003.11 175.255C1006.63 175.958 1010.04 173.669 1010.74 170.14L1012.26 162.578" stroke="#A78B78" stroke-width="6" stroke-miterlimit="10"/>
<path d="M1027.91 164.19L1021.81 175.853C1020.79 177.812 1018.44 178.668 1016.4 177.817L1007.13 174.761" stroke="#A78B78" stroke-width="6" stroke-miterlimit="10"/>
<path d="M986.201 169.956L987.337 164.232C988.106 160.346 991.781 157.715 995.696 158.25L997.659 158.439" stroke="#A78B78" stroke-width="6" stroke-miterlimit="10"/>
<path d="M985.049 193.519L984.122 197.594H987.556L986.629 193.519C986.436 192.679 985.248 192.679 985.054 193.519H985.049Z" fill="#F4E5D2"/>
<path d="M989.341 193.519L988.415 197.594H991.848L990.922 193.519C990.728 192.679 989.54 192.679 989.346 193.519H989.341Z" fill="#F4E5D2"/>
<path d="M993.634 193.519L992.707 197.594H996.141L995.214 193.519C995.021 192.679 993.832 192.679 993.639 193.519H993.634Z" fill="#F4E5D2"/>
<path d="M997.921 193.519L996.994 197.594H1000.43L999.502 193.519C999.308 192.679 998.12 192.679 997.926 193.519H997.921Z" fill="#F4E5D2"/>
<path d="M1002.21 193.519L1001.29 197.594H1004.72L1003.79 193.519C1003.6 192.679 1002.41 192.679 1002.22 193.519H1002.21Z" fill="#F4E5D2"/>
<path d="M1006.51 193.519L1005.58 197.594H1009.01L1008.09 193.519C1007.89 192.679 1006.7 192.679 1006.51 193.519H1006.51Z" fill="#F4E5D2"/>
<path d="M1010.8 193.519L1009.87 197.594H1013.31L1012.38 193.519C1012.19 192.679 1011 192.679 1010.8 193.519H1010.8Z" fill="#F4E5D2"/>
<path d="M982.966 184.65C982.929 185.684 984.316 186.052 984.792 185.138L987.593 179.792L983.17 178.616L982.966 184.65Z" fill="#F4E5D2"/>
<path d="M1020.14 188.441L1019.94 194.475C1019.9 195.509 1021.29 195.877 1021.76 194.963L1024.57 189.617L1020.14 188.441Z" fill="#F4E5D2"/>
<path d="M1014.86 187.039L1014.66 193.072C1014.65 193.419 1014.79 193.692 1015.01 193.865L1014.16 197.594H1017.6L1016.67 193.519C1016.66 193.451 1016.63 193.393 1016.61 193.34L1019.29 188.215L1014.87 187.039H1014.86Z" fill="#F4E5D2"/>
<path d="M1009.37 191.671C1009.34 192.705 1010.72 193.073 1011.2 192.159L1014 186.813L1009.58 185.637L1009.37 191.671Z" fill="#F4E5D2"/>
<path d="M1005.92 190.751L1008.72 185.405L1004.3 184.229L1004.09 190.263C1004.06 191.297 1005.44 191.665 1005.92 190.751Z" fill="#F4E5D2"/>
<path d="M999.015 182.827L998.811 188.861C998.774 189.896 1000.16 190.263 1000.64 189.349L1003.44 184.003L999.015 182.827Z" fill="#F4E5D2"/>
<path d="M995.356 187.942L998.156 182.596L993.733 181.42L993.529 187.454C993.492 188.488 994.88 188.856 995.356 187.942Z" fill="#F4E5D2"/>
<path d="M990.074 186.54L992.875 181.194L988.451 180.018L988.247 186.051C988.211 187.086 989.598 187.454 990.074 186.54Z" fill="#F4E5D2"/>
<path d="M982.405 199.873C982.405 203.418 985.269 206.29 988.802 206.29H1032.09C1032.09 206.29 1032.12 206.29 1032.13 206.29C1034.37 206.301 1036.6 205.455 1038.31 203.743L1051.84 190.169C1055.23 186.771 1055.23 181.267 1051.84 177.875L1019.97 196.938C1019.26 197.368 1018.44 197.594 1017.59 197.594H983.546C982.918 197.594 982.405 198.109 982.405 198.739V199.873Z" fill="#F8EEE1"/>
<path d="M1038.23 157.458C1037.53 157.316 1036.81 157.221 1036.11 157.169L999.454 152.169C989.796 150.857 980.782 157.305 978.882 166.9L978.134 170.681C977.422 174.278 979.62 177.812 983.154 178.742L1029.42 190.972C1030.09 191.193 1030.78 191.376 1031.49 191.518C1040.86 193.388 1049.97 187.28 1051.84 177.875C1053.7 168.47 1047.61 159.327 1038.24 157.458H1038.23ZM987.221 164.284L986.844 166.175C986.656 167.115 985.75 167.724 984.813 167.54C983.876 167.351 983.269 166.438 983.452 165.503L983.829 163.612C984.954 157.925 990.32 154.086 996.041 154.863C996.989 154.989 997.648 155.866 997.523 156.817C997.392 157.767 996.523 158.429 995.575 158.303C991.66 157.767 987.99 160.398 987.216 164.284H987.221ZM1010.73 170.192C1010.03 173.716 1006.62 176.006 1003.1 175.307C1002.72 175.228 1002.34 175.118 1001.99 174.976L994.314 172.708C991.492 171.873 989.77 169.016 990.346 166.122C990.917 163.234 993.592 161.26 996.512 161.569L1004.48 162.42C1004.86 162.425 1005.25 162.467 1005.64 162.541C1009.15 163.245 1011.43 166.669 1010.74 170.192H1010.73ZM1024.99 169.804C1024.88 170.077 1024.74 170.334 1024.59 170.576L1021.8 175.906C1020.78 177.865 1018.43 178.721 1016.39 177.87C1014.36 177.024 1013.31 174.761 1013.96 172.655L1015.75 166.9C1015.81 166.621 1015.9 166.338 1016.01 166.065C1017.04 163.575 1019.89 162.394 1022.37 163.423C1024.85 164.452 1026.03 167.309 1025 169.798L1024.99 169.804ZM1042.38 175.953L1041.28 178.626C1039.79 182.239 1035.66 183.951 1032.06 182.454C1028.46 180.958 1026.75 176.82 1028.24 173.207L1029.35 170.534C1030.84 166.921 1034.97 165.209 1038.57 166.705C1042.17 168.202 1043.88 172.34 1042.38 175.953Z" fill="#FCF7F1"/>
</svg>
