<svg width="75" height="78" viewBox="0 0 75 78" fill="none" xmlns="http://www.w3.org/2000/svg">
<g clip-path="url(#clip0_48_439)">
<path d="M56.5518 44.3668C56.5518 44.3668 56.5569 45.6678 56.3653 46.8C56.1737 47.9323 53.2518 52.012 53.2518 52.012C48.3409 58.4936 40.6707 62.3018 32.5291 62.3018H25.8989C25.7653 62.3018 25.6531 62.2502 25.5712 62.1697C24.5325 61.8275 23.7812 60.8537 23.7812 59.7013C23.7812 58.2659 24.9472 57.1022 26.3855 57.1022H29.6161L32.785 53.6677C33.8489 52.514 34.4401 51.0043 34.4401 49.4368V41.7651L41.4258 36.1694C42.9932 34.101 46.1648 33.8115 48.1065 35.6662C50.136 37.5952 56.5518 41.2522 56.5518 44.3668Z" fill="#FF5D4E"/>
<path d="M62.6723 34.5679H60.3718C58.7622 34.5679 57.3391 33.5753 56.7517 32.1273L56.5462 32.043L48.9832 39.2315C48.6882 39.5121 48.3756 39.7675 48.0454 39.9977C46.6172 40.9979 43.5416 40.8243 43.5416 40.8243C43.5416 40.8243 37.2416 41.4734 36.5697 41.4734H8.51471H1.95378C0.87479 41.4734 0 42.3465 0 43.4234C0 44.5003 0.87479 45.3734 1.95378 45.3734H5.54118L14.221 51.9154L7.27185 58.8511C6.67185 59.4499 7.27689 60.4526 8.08865 60.201L23.6521 55.3788C24.0429 55.258 24.4487 55.1964 24.8584 55.1964H35.6937C39.987 55.1964 44.1063 53.503 47.1542 50.4849L63.0655 34.7315L62.6723 34.5692V34.5679Z" fill="#FF984E"/>
<path d="M56.3825 31.4631L55.7989 28.5394L55.3186 28.3481L48.9846 34.3692C48.6896 34.6498 48.377 34.9052 48.0468 35.1354C46.6186 36.1356 44.6497 35.8122 43.5972 34.4233V39.287C44.6497 40.6759 46.6186 40.998 48.0468 39.9991C48.3757 39.7689 48.6896 39.5135 48.9846 39.2329L56.5476 32.0443C56.4795 31.8569 56.4228 31.6644 56.3825 31.4644V31.4631Z" fill="#FF5D4E"/>
<path d="M14.4679 51.8975L11.0948 49.355L3.90614 56.5297C3.31245 57.1223 3.89732 58.1149 4.70404 57.8847L9.96917 56.3863L14.4666 51.8975H14.4679Z" fill="#FF6C4E"/>
<path d="M58.5857 34.3149L45.5294 47.2416C42.4815 50.2597 38.3621 51.953 34.0689 51.953H23.2336C22.8252 51.953 22.418 52.0147 22.0273 52.1354L10.3852 55.7423L7.2718 58.8497C6.6718 59.4486 7.27684 60.4512 8.0886 60.1996L23.652 55.3775C24.0428 55.2567 24.4487 55.195 24.8584 55.195H35.6936C39.9869 55.195 44.1063 53.5017 47.1542 50.4836L63.0668 34.7301H60.3731C59.7365 34.7301 59.1289 34.5804 58.5869 34.3149H58.5857Z" fill="#FF6C4E"/>
<path d="M72.9668 29.6552C72.9252 29.6389 72.8836 29.6238 72.8408 29.6087L55.5239 23.9021L51.1639 22.4314C50.0307 22.049 48.8017 22.6554 48.4185 23.7864C48.0353 24.9174 48.6429 26.144 49.776 26.5264L55.8013 28.5595L56.3811 31.4618C56.7605 33.3615 58.4307 34.729 60.3706 34.729H72.4878C73.9046 34.729 75.0529 33.5829 75.0529 32.1689C75.0529 30.9183 74.1529 29.8779 72.9643 29.654L72.9668 29.6552Z" fill="#FFC195"/>
<path d="M74.869 33.1237C74.9875 32.8293 75.0543 32.5073 75.0543 32.1701C75.0543 30.8793 74.0964 29.8138 72.851 29.6376L72.8409 29.6087L51.1653 22.4314V22.4365L51.1489 22.4314C50.0157 22.049 48.7867 22.6554 48.4035 23.7864C48.3543 23.9298 48.3228 24.0757 48.3052 24.2204L51.28 25.2004L69.6695 31.3763L74.869 33.1225V33.1237Z" fill="#FF984E"/>
<path d="M45.8122 47.5863L31.7866 66.0975C26.8756 72.579 19.2055 76.3872 11.0639 76.3872H8.8C8.8 76.3872 8.79748 76.3872 8.79622 76.3872H4.81807C4.81807 76.3872 4.81555 76.3872 4.81429 76.3872H4.43235C4.32521 76.3872 4.23193 76.3532 4.15756 76.2991C3.0395 76.0073 2.21387 74.9945 2.21387 73.7868C2.21387 72.3513 3.37983 71.1876 4.81807 71.1876H9.62564C9.62564 71.1876 13.9108 66.6561 15.2343 63.8883C15.2343 59.6109 14.6677 58.4371 14.6677 52.5871C13.9744 48.8758 7.75756 45.3986 7.75756 45.3986H4.17017C3.09118 45.3986 2.21639 44.5255 2.21639 43.4486C2.21639 42.3717 3.09118 41.4986 4.17017 41.4986H7.75756L19.0158 39.1045C19.0158 39.1045 39.2469 34.3454 40.3184 34.198C41.3898 34.0506 46.3227 33.3689 49.3706 36.387C49.3706 36.387 50.6344 41.223 45.8122 47.5863Z" fill="#FF984E"/>
<path d="M10.7735 49.0882L6.17139 45.4574H38.9634C39.3353 45.4574 39.6706 45.6638 39.8369 45.9971C40.0033 46.3293 39.9668 46.7205 39.7437 47.0174L27.7689 62.8879C23.9496 67.9277 18.1285 71.093 11.797 71.5698H8.17938L11.497 67.9743C12.5609 66.8206 13.1508 65.311 13.1508 63.7434V53.9896C13.1508 52.0786 12.2747 50.2733 10.7735 49.0895V49.0882Z" fill="#FFC195"/>
<path d="M60.9572 29.0725C60.879 29.2663 60.8362 29.4776 60.8374 29.699L60.8425 30.3658C60.8488 31.2678 61.5874 31.9937 62.4912 31.9875C63.1731 31.9824 63.7542 31.561 63.9963 30.9672C64.0744 30.7747 64.1173 30.5633 64.116 30.3419L64.111 29.6751C64.1047 28.7731 63.366 28.0472 62.4622 28.0547C61.7803 28.0598 61.1992 28.4812 60.9572 29.075V29.0725Z" fill="white"/>
<path d="M62.4825 30.4542C62.4847 30.755 62.7309 30.9971 63.0323 30.9948C63.3338 30.9926 63.5763 30.7468 63.574 30.446L63.5674 29.5679C63.5652 29.267 63.319 29.025 63.0175 29.0273C62.7161 29.0295 62.4736 29.2752 62.4759 29.5761L62.4825 30.4542Z" fill="black"/>
<path d="M25.1025 21.5127L33.8 26.2933C33.8 26.2933 36.5595 29.8788 37.82 32.0804C39.0805 34.2821 41.0479 39.0627 37.7075 43.7175C34.3672 48.3724 16.405 41.7675 14.1361 40.7611C11.8672 39.7546 9.40922 36.9869 8.14872 34.7853C6.88821 32.5837 6.00586 29.2498 6.00586 29.2498L10.6067 33.2756C10.6067 33.2756 13.6949 34.6595 16.0269 33.7788C18.3588 32.8982 25.1025 21.5127 25.1025 21.5127Z" fill="#008C46"/>
<path d="M27.9753 39.2515L37.5184 43.5289C37.5184 43.5289 34.9343 48.8757 33.6476 50.4482C32.4763 51.3289 22.5184 55.6692 21.8618 55.5434C21.2053 55.4176 20.8167 55.2289 20.8797 53.8765C20.9427 52.524 25.4175 51.3918 27.0929 48.8757C27.9753 47.5505 27.9753 39.2515 27.9753 39.2515Z" fill="#008C46"/>
<path d="M22.7705 53.7192C22.7705 53.7192 24.4722 55.9838 24.3462 56.8015C24.2201 57.6192 22.7705 57.745 22.4554 57.4934C22.1403 57.2418 21.0688 55.0402 21.0688 55.0402L22.7705 53.7192Z" fill="#008C46"/>
<path d="M24.8075 26.2689L23.3365 6.47576C23.0189 4.14456 24.5743 1.97063 26.8848 1.51143L27.7962 1.33027C28.6634 1.15792 29.5143 1.68882 29.7399 2.54179L33.684 26.2676H24.8075V26.2689Z" fill="#008C46"/>
<path d="M24.171 17.7125L24.9954 17.6496C25.5538 17.6068 25.971 17.1212 25.9281 16.5639C25.8853 16.0065 25.3987 15.5901 24.8403 15.6329L24.021 15.6958L24.171 17.7125Z" fill="#00763B"/>
<path d="M24.3966 20.7423L25.221 20.6794C25.7794 20.6366 26.1966 20.151 26.1537 19.5937C26.1109 19.0363 25.6243 18.6199 25.0659 18.6627L24.2466 18.7256L24.3966 20.7423Z" fill="#00763B"/>
<path d="M23.7223 11.6715L24.5466 11.6086C25.105 11.5658 25.5223 11.0802 25.4794 10.5229C25.4366 9.96553 24.95 9.54911 24.3916 9.59189L23.5723 9.65479L23.7223 11.6715Z" fill="#00763B"/>
<path d="M23.9454 14.6832L24.7698 14.6203C25.3282 14.5775 25.7454 14.0919 25.7026 13.5346C25.6597 12.9773 25.1731 12.5608 24.6147 12.6036L23.7954 12.6665L23.9454 14.6832Z" fill="#00763B"/>
<path d="M28.6066 4.54186C28.4931 4.82996 28.4326 5.14447 28.4389 5.47409L28.4566 6.46544C28.4805 7.80528 29.5872 8.87338 30.9297 8.84947C31.9431 8.83186 32.8003 8.1978 33.1507 7.31212C33.2641 7.02402 33.3246 6.70951 33.3183 6.38115L33.3007 5.3898C33.2767 4.04996 32.17 2.98186 30.8276 3.00576C29.8141 3.02338 28.957 3.65744 28.6066 4.54312V4.54186Z" fill="white"/>
<path d="M30.888 6.58173C30.8959 7.02842 31.265 7.38422 31.7126 7.37642C32.1601 7.36863 32.5166 7.00019 32.5088 6.55349L32.486 5.24908C32.4782 4.80238 32.109 4.44659 31.6615 4.45438C31.2139 4.46218 30.8574 4.83062 30.8652 5.27731L30.888 6.58173Z" fill="black"/>
<path d="M36.4368 4.00348C35.5103 4.01983 34.7729 4.78096 34.7893 5.70564C34.7906 5.80754 34.8019 5.90693 34.8221 6.0038L35.044 8.0557C35.1259 8.81054 35.7713 9.37793 36.5313 9.36535C37.2902 9.35151 37.9129 8.76399 37.9696 8.0079L38.1208 5.94593C38.136 5.84906 38.1448 5.74841 38.1423 5.64651C38.1259 4.72183 37.362 3.98587 36.4368 4.00222V4.00348Z" fill="#00BF5F"/>
<path d="M46.1619 17.3719C46.1708 17.0938 45.7951 16.9957 45.6666 17.2435L45.0464 18.4387L46.1229 18.7167L46.1632 17.3706L46.1619 17.3719Z" fill="#FCF7F1"/>
<path d="M44.3213 16.8947L43.7012 18.0899L44.7776 18.3679L44.818 17.0218C44.8268 16.7437 44.4512 16.6456 44.3226 16.8934L44.3213 16.8947Z" fill="#FCF7F1"/>
<path d="M42.9766 16.5475L42.3564 17.7427L43.4329 18.0207L43.4733 16.6746C43.4821 16.3966 43.1064 16.2984 42.9779 16.5463L42.9766 16.5475Z" fill="#FCF7F1"/>
<path d="M41.6314 16.1994L41.0112 17.3946L42.0877 17.6726L42.128 16.3265C42.1369 16.0484 41.7612 15.9503 41.6327 16.1981L41.6314 16.1994Z" fill="#FCF7F1"/>
<path d="M40.2867 15.8508L39.6665 17.0459L40.743 17.324L40.7833 15.9778C40.7921 15.6998 40.4165 15.6017 40.2879 15.8495L40.2867 15.8508Z" fill="#FCF7F1"/>
<path d="M38.9415 15.5036L38.3213 16.6988L39.3978 16.9768L39.4381 15.6307C39.4469 15.3526 39.0713 15.2545 38.9427 15.5023L38.9415 15.5036Z" fill="#FCF7F1"/>
<path d="M37.5967 15.155L36.9766 16.3501L38.053 16.6282L38.0934 15.282C38.1022 15.004 37.7266 14.9059 37.598 15.1537L37.5967 15.155Z" fill="#FCF7F1"/>
<path d="M36.253 14.8068L35.6328 16.002L36.7093 16.28L36.7496 14.9339C36.7584 14.6558 36.3828 14.5577 36.2542 14.8056L36.253 14.8068Z" fill="#FCF7F1"/>
<path d="M46.4807 19.556C46.1908 20.6719 45.0488 21.3424 43.9307 21.0531L30.224 17.5053C30.224 17.5053 30.2139 17.5028 30.2088 17.5015C29.5004 17.3229 28.8614 16.8713 28.4605 16.1932L25.2878 10.8086C24.4937 9.46125 24.945 7.72764 26.295 6.93506L34.8261 15.5528C35.0189 15.7478 35.2609 15.8862 35.5256 15.9554L46.3067 18.7458C46.5059 18.7973 46.6269 19.0012 46.574 19.1999L46.4807 19.5572V19.556Z" fill="#00BF5F"/>
<path d="M45.7231 13.5181L45.9324 15.453C45.9677 15.7851 46.4303 15.8405 46.5425 15.5247L47.1954 13.6892L45.7231 13.5193V13.5181Z" fill="#FCF7F1"/>
<path d="M33.6272 14.0279C33.6625 14.36 34.1251 14.4154 34.2373 14.0996L34.8902 12.2641L33.418 12.0942L33.6272 14.0291V14.0279Z" fill="#FCF7F1"/>
<path d="M35.3855 14.2315C35.4208 14.5636 35.8834 14.619 35.9956 14.3032L36.6485 12.4677L35.1763 12.2979L35.3855 14.2328V14.2315Z" fill="#FCF7F1"/>
<path d="M37.1428 14.4356C37.1781 14.7677 37.6407 14.8231 37.7529 14.5073L38.4059 12.6718L36.9336 12.502L37.1428 14.4369V14.4356Z" fill="#FCF7F1"/>
<path d="M38.9002 14.6382C38.9355 14.9704 39.3981 15.0257 39.5102 14.7099L40.1632 12.8744L38.6909 12.7046L38.9002 14.6395V14.6382Z" fill="#FCF7F1"/>
<path d="M40.6585 14.8418C40.6938 15.174 41.1564 15.2293 41.2685 14.9136L41.9215 13.078L40.4492 12.9082L40.6585 14.8431V14.8418Z" fill="#FCF7F1"/>
<path d="M42.4153 15.0455C42.4506 15.3776 42.9132 15.4329 43.0254 15.1172L43.6783 13.2817L42.2061 13.1118L42.4153 15.0467V15.0455Z" fill="#FCF7F1"/>
<path d="M44.1741 15.2481C44.2094 15.5802 44.672 15.6356 44.7842 15.3198L45.4371 13.4843L43.9648 13.3145L44.1741 15.2494V15.2481Z" fill="#FCF7F1"/>
<path d="M41.9127 5.83032C40.6975 5.61142 39.5341 6.41658 39.3148 7.6281C39.0954 8.84087 39.9022 10.0008 41.116 10.221C41.2496 10.2449 41.3833 10.2562 41.5143 10.2562L44.261 10.5003C45.2706 10.5896 46.1833 9.89639 46.3635 8.9C46.5438 7.90613 45.9349 6.93993 44.9593 6.67071L42.2971 5.93726C42.1736 5.89197 42.045 5.85548 41.9114 5.83032H41.9127Z" fill="#00BF5F"/>
<path d="M32.813 0.272137L45.1987 3.30156C48.4622 4.10043 50.5395 7.29465 49.942 10.5933L49.7063 11.8941C49.4819 13.1321 48.3311 13.9813 47.0807 13.8328L30.7067 11.9017C30.4634 11.8878 30.2202 11.8589 29.9744 11.8149C26.7323 11.2299 24.5794 8.13127 25.1655 4.89678C25.7529 1.65978 28.8563 -0.488992 32.0983 0.0960078C32.3441 0.14004 32.5823 0.199169 32.8143 0.270879L32.813 0.272137ZM28.4554 6.46433C28.4794 7.80417 29.5861 8.87227 30.9286 8.84836C31.942 8.83075 32.7991 8.19669 33.1496 7.31101C33.263 7.02291 33.3235 6.70839 33.3172 6.38004L33.2996 5.38869C33.2756 4.04885 32.1689 2.98075 30.8265 3.00465C29.813 3.02227 28.9559 3.65633 28.6054 4.54201C28.492 4.8301 28.4315 5.14462 28.4378 5.47423L28.4554 6.46559V6.46433ZM34.8223 6.00262L35.0441 8.05452C35.126 8.80936 35.7714 9.37675 36.5315 9.36417C37.2903 9.35033 37.913 8.76281 37.9697 8.00672L38.121 5.94475C38.1361 5.84788 38.1449 5.74723 38.1424 5.64533C38.126 4.72065 37.3622 3.98469 36.437 4.00104C35.5105 4.01739 34.7731 4.77852 34.7895 5.7032C34.7907 5.8051 34.8021 5.90449 34.8223 6.00136V6.00262ZM41.116 10.2209C41.2496 10.2448 41.3832 10.2561 41.5143 10.2561L44.2609 10.5002C45.2706 10.5895 46.1832 9.89633 46.3634 8.89994C46.5437 7.90607 45.9349 6.93988 44.9592 6.67065L42.297 5.9372C42.1735 5.89191 42.0449 5.85543 41.9113 5.83027C40.6962 5.61136 39.5328 6.41652 39.3134 7.62804C39.0941 8.84081 39.9008 10.0007 41.1147 10.2209H41.116Z" fill="#00D86C"/>
<path d="M28.3485 1.75682C28.2565 1.73291 28.172 1.67379 28.1203 1.58572C28.0157 1.40833 28.0737 1.17937 28.2527 1.07369C29.3619 0.418237 30.6728 0.184237 31.9434 0.413205C32.1552 0.450947 32.3682 0.503785 32.5762 0.567947L45.2002 3.65524C45.2002 3.65524 45.2039 3.65524 45.2052 3.65524C45.4031 3.70682 45.5241 3.90685 45.4749 4.10562C45.4258 4.30566 45.2228 4.42895 45.0224 4.37988L32.3884 1.29008C32.3808 1.28882 32.3733 1.2863 32.3657 1.28379C32.1829 1.22717 31.9951 1.18062 31.8111 1.14791C30.7182 0.950398 29.5901 1.15169 28.6346 1.7153C28.5451 1.76814 28.443 1.77946 28.3497 1.75556L28.3485 1.75682Z" fill="#00EC76"/>
<path d="M48.854 9.39823L48.7746 8.74277L48.6952 8.08732C48.6561 7.76148 48.3587 7.52874 48.0322 7.56774C47.7057 7.608 47.4725 7.90365 47.5116 8.22949L47.591 8.88494L47.6704 9.54039C47.7095 9.86623 48.007 10.099 48.3334 10.06C48.6599 10.0197 48.8931 9.72406 48.854 9.39823Z" fill="#00763B"/>
<mask id="mask0_48_439" style="mask-type:alpha" maskUnits="userSpaceOnUse" x="6" y="21" width="34" height="25">
<path d="M25.1025 21.5127L33.8 26.2933C33.8 26.2933 36.5595 29.8788 37.82 32.0804C39.0805 34.2821 41.0479 39.0627 37.7075 43.7175C34.3672 48.3724 16.405 41.7675 14.1361 40.7611C11.8672 39.7546 9.40922 36.9869 8.14872 34.7853C6.88821 32.5837 6.00586 29.2498 6.00586 29.2498L10.6067 33.2756C10.6067 33.2756 13.6949 34.6595 16.0269 33.7788C18.3588 32.8982 25.1025 21.5127 25.1025 21.5127Z" fill="#008C46"/>
</mask>
<g mask="url(#mask0_48_439)">
</g>
<mask id="mask1_48_439" style="mask-type:alpha" maskUnits="userSpaceOnUse" x="6" y="21" width="34" height="25">
<path d="M25.1025 21.5127L33.8 26.2933C33.8 26.2933 36.5595 29.8788 37.82 32.0804C39.0805 34.2821 41.0479 39.0627 37.7075 43.7175C34.3672 48.3724 16.405 41.7675 14.1361 40.7611C11.8672 39.7546 9.40922 36.9869 8.14872 34.7853C6.88821 32.5837 6.00586 29.2498 6.00586 29.2498L10.6067 33.2756C10.6067 33.2756 13.6949 34.6595 16.0269 33.7788C18.3588 32.8982 25.1025 21.5127 25.1025 21.5127Z" fill="#008C46"/>
</mask>
<g mask="url(#mask1_48_439)">
<path d="M23.4119 24.2335L24.1916 24.508C24.7198 24.6937 25.2979 24.4175 25.484 23.8903C25.6701 23.3631 25.3933 22.7861 24.8651 22.6003L24.09 22.3279L23.4119 24.2335Z" fill="#00763B"/>
<path d="M21.6472 26.7496L22.4269 27.0241C22.9551 27.2098 23.5332 26.9336 23.7194 26.4064C23.9055 25.8792 23.6287 25.3022 23.1005 25.1165L22.3254 24.844L21.6472 26.7496Z" fill="#00763B"/>
<path d="M19.7561 29.5177L20.5358 29.7921C21.064 29.9779 21.6421 29.7016 21.8282 29.1745C22.0144 28.6473 21.7376 28.0703 21.2094 27.8845L20.4343 27.6121L19.7561 29.5177Z" fill="#00763B"/>
<path d="M17.7395 32.4112L18.5192 32.6857C19.0474 32.8715 19.6255 32.5952 19.8116 32.068C19.9978 31.5408 19.721 30.9638 19.1928 30.7781L18.4177 30.5056L17.7395 32.4112Z" fill="#00763B"/>
<path d="M33.9654 28.4304C34.4176 26.741 35.791 25.155 36.9817 24.0264C37.5865 23.4531 38.1638 22.9793 38.5899 22.6493C38.8031 22.4841 38.9792 22.3545 39.1026 22.2655C39.1644 22.221 39.213 22.1864 39.2467 22.1629C39.2633 22.1513 39.2762 22.1423 39.2853 22.1361C39.2898 22.1329 39.294 22.1301 39.2965 22.1284C39.2975 22.1277 39.2983 22.127 39.2989 22.1265L39.3003 22.1263L39.3009 22.1254L39.7278 21.8355L40.0048 22.2703L46.6128 32.6709L46.6529 32.735L46.6727 32.8078L50.5226 46.9974L50.5616 47.1389L50.516 47.2793L50.5157 47.2815C50.5154 47.2825 50.5148 47.2837 50.5143 47.2853C50.513 47.2892 50.5116 47.2956 50.5092 47.3031C50.5043 47.3182 50.4965 47.3409 50.4871 47.3696C50.4683 47.427 50.4408 47.5108 50.4051 47.6165C50.3336 47.8283 50.2292 48.1296 50.0986 48.4896C49.8377 49.2093 49.4687 50.1684 49.0401 51.1167C48.6142 52.0589 48.1176 53.0171 47.5961 53.7201C47.3364 54.0701 47.0516 54.3839 46.7441 54.5972C46.4354 54.8113 46.05 54.9599 45.6308 54.8633C45.2963 54.7861 44.9652 54.5871 44.657 54.349C44.3416 54.1053 44.0118 53.7896 43.6778 53.4309C43.0091 52.7129 42.2887 51.7856 41.5905 50.8234C40.8908 49.8592 40.2042 48.8473 39.6035 47.958C38.9988 47.0627 38.4882 46.3025 38.1295 45.8204C37.3762 44.8081 36.4097 43.2755 35.5754 41.596C34.744 39.9222 34.0248 38.0645 33.798 36.4109C33.3647 33.2513 33.1096 31.6275 33.9654 28.4304Z" fill="#00BF5F" stroke="#00763B"/>
<path d="M29.7621 28.5145C30.5674 28.9072 30.9009 29.8779 30.5069 30.6826L28.6687 34.4376C28.2747 35.2423 27.3025 35.5763 26.4972 35.1836V35.1836C25.6919 34.7909 25.3584 33.8202 25.7524 33.0155L27.5906 29.2605C27.9846 28.4558 28.9567 28.1218 29.7621 28.5145V28.5145Z" fill="#00BF5F"/>
<path d="M25.2862 36.0371C25.2862 35.9202 25.1992 35.7515 25.0799 35.7362C24.1411 35.615 23.3118 34.8222 23.4288 33.8852C23.4321 33.8596 23.4502 33.7449 23.3736 33.7122C23.3172 33.6881 23.2467 33.6958 23.2297 33.8252C23.0749 35.0199 23.8216 36.1851 25.0186 36.3396C25.1483 36.3565 25.2665 36.1976 25.2834 36.0682C25.2845 36.0578 25.2856 36.048 25.2856 36.0376L25.2862 36.0371Z" fill="black"/>
<path d="M25.3359 36.7051C24.9997 36.7051 24.7271 36.4332 24.7271 36.0977C24.7271 35.7622 24.9997 35.4902 25.3359 35.4902L27.7704 35.4902C28.1067 35.4902 28.3793 35.7622 28.3793 36.0977C28.3793 36.4332 28.1067 36.7051 27.7704 36.7051L25.3359 36.7051Z" fill="#00763B"/>
<path d="M27.5668 37.5203C27.3327 37.5203 26.994 37.6939 26.9634 37.932C26.721 39.8054 25.1323 41.462 23.2542 41.2278C23.2033 41.2212 22.9725 41.1852 22.9068 41.3375C22.8587 41.45 22.874 41.5909 23.1328 41.6242C25.5268 41.9332 27.8617 40.4426 28.1708 38.0532C28.2041 37.795 27.8863 37.558 27.6275 37.5247C27.6067 37.522 27.5865 37.5209 27.5663 37.5209L27.5668 37.5203Z" fill="black"/>
<path d="M24.3927 36.5608C24.3479 36.4527 24.2029 36.3298 24.0869 36.3615C23.1733 36.6083 22.1027 36.1928 21.8521 35.282C21.8456 35.2575 21.8177 35.1439 21.735 35.1428C21.6738 35.1423 21.6114 35.1761 21.6453 35.3017C21.9604 36.4647 23.0973 37.2559 24.262 36.9414C24.3878 36.9075 24.4365 36.7153 24.4026 36.5897C24.3998 36.5799 24.3966 36.5701 24.3927 36.5608Z" fill="black"/>
<path d="M28.3785 37.5149C28.3785 37.9624 28.0152 38.3252 27.567 38.3252C27.1187 38.3252 26.7554 37.9624 26.7554 37.5149L26.7554 35.8949C26.7554 35.4474 27.1187 35.0846 27.567 35.0846C28.0152 35.0846 28.3785 35.4474 28.3785 35.8949L28.3785 37.5149Z" fill="#00BF5F"/>
<path d="M27.5039 36.7051L26.0076 36.7051C25.5242 36.7051 25.1323 36.3139 25.1323 35.8315L25.1323 34.3381C25.1323 33.8556 25.5242 33.4645 26.0076 33.4645L27.5039 33.4645C27.9873 33.4645 28.3792 33.8556 28.3792 34.3381L28.3792 35.8315C28.3792 36.3139 27.9873 36.7051 27.5039 36.7051Z" fill="#00BF5F"/>
<path d="M24.5239 37.3121C24.1876 37.3121 23.915 37.0401 23.915 36.7046C23.915 36.3691 24.1876 36.0972 24.5239 36.0972L26.9584 36.0972C27.2947 36.0972 27.5673 36.3691 27.5673 36.7046C27.5673 37.0401 27.2947 37.3121 26.9584 37.3121L24.5239 37.3121Z" fill="#00BF5F"/>
<rect width="0.836816" height="6.46924" rx="0.418408" transform="matrix(0.894039 0.447989 -0.449378 0.893342 30.293 29.0327)" fill="#00EC76"/>
</g>
</g>
<defs>
<clipPath id="clip0_48_439">
<rect width="75" height="78" fill="white"/>
</clipPath>
</defs>
</svg>
